<?xml version="1.0" encoding="UTF-8"?>
<svg xmlns="http://www.w3.org/2000/svg" fill="none" height="40" viewBox="0 0 40 40" width="40">
  <g stroke-linecap="round" stroke-linejoin="round" stroke-width="2.5">
    <path d="m26.25 16.25h12.5" stroke="#9bf"></path>
    <path d="m26.25 6.25h12.5" stroke="#9bf"></path>
    <path clip-rule="evenodd" d="m26.25 2.75c0-.82843.6716-1.5 1.5-1.5h9.5c.8284 0 1.5.67157 1.5 1.5v17c0 .8284-.6716 1.5-1.5 1.5h-9.5c-.8284 0-1.5-.6716-1.5-1.5z" fill-rule="evenodd" stroke="#37f"></path>
    <path d="m1.25 13.75h20" stroke="#9bf"></path>
    <path d="m21.25 6.25h-17.5c-1.38071 0-2.5 1.11929-2.5 2.5v27.5c0 1.3807 1.11929 2.5 2.5 2.5h30c1.3807 0 2.5-1.1193 2.5-2.5v-10" stroke="#37f"></path>
    <g stroke="#9bf">
      <path d="m10.7683 20c.3452 0 .625.2798.625.625s-.2798.625-.625.625-.625-.2798-.625-.625.2798-.625.625-.625"></path>
      <path d="m29.9996 33.75-6.45-9.7284c-.2286-.3439-.6125-.5525-1.0254-.5572-.413-.0046-.8015.1952-1.0379.5339l-3.32 4.7517-2.0667-1.6484c-.2736-.2184-.6263-.3121-.9722-.2583-.346.0539-.6535.2504-.8478.5417l-4.2433 6.365"></path>
      <path d="m7.5 33.75h22.5"></path>
    </g>
  </g>
</svg>
