<svg fill="none" height="36" viewBox="0 0 157 36" width="157" xmlns="http://www.w3.org/2000/svg" xmlns:xlink="http://www.w3.org/1999/xlink"><clipPath id="a"><path d="m.938232 0h155.7v36h-155.7z"/></clipPath><g clip-path="url(#a)" fill="#cdd5e4"><path d="m.699219 6.2998h11.435281c2.1782 0 3.8118.54454 5.0219 1.45211 1.3311 1.08907 2.0571 2.66219 2.0571 4.59829 0 2.2387-.9075 3.6303-2.7227 4.4773v.121c2.4202.7866 3.8118 2.9647 3.8118 5.5664 0 2.4807-.9681 4.4168-2.5412 5.6269-1.3311.9681-3.0252 1.3916-5.3244 1.3916h-11.737781zm10.285681 9.0756c1.2101 0 2.1177-.6655 2.1177-2.0571 0-1.3311-.9076-1.9966-2.1782-1.9966h-3.93274v3.9932h3.99324zm.5446 9.0152c1.3916 0 2.4201-.8471 2.4201-2.3597 0-1.6336-1.089-2.3597-2.4201-2.3597h-4.47734v4.7799h4.47734z"/><path d="m21.3313 6.2998h5.9899v23.2941h-5.9899z"/><path d="m28.5311 21.3048c0-5.2638 3.3883-8.7731 8.6521-8.7731 5.2639 0 8.5916 3.5698 8.5916 8.7731 0 5.2639-3.3277 8.7732-8.5916 8.7732-5.2638 0-8.6521-3.5093-8.6521-8.7732zm11.2538 0c0-2.9042-.9075-4.7193-2.7227-4.7193-1.8151 0-2.6622 1.8151-2.6622 4.7193 0 2.9043.8471 4.7799 2.6622 4.7799 1.8152-.0605 2.7227-1.8756 2.7227-4.7799z"/><path d="m46.4406 21.3048c0-5.2638 3.3882-8.7731 8.652-8.7731 5.2639 0 8.5311 3.5093 8.5311 8.7731 0 5.2639-3.3277 8.7732-8.5916 8.7732-5.2033 0-8.5915-3.5093-8.5915-8.7732zm11.2537 0c0-2.9042-.9075-4.7193-2.7227-4.7193-1.8151 0-2.6621 1.8151-2.6621 4.7193 0 2.9043.847 4.7799 2.6621 4.7799 1.8152-.0605 2.7227-1.8756 2.7227-4.7799z"/><path d="m64.8337 12.9552h5.5664v2.4807h.121c1.0891-1.9361 2.6017-2.9647 5.0219-2.9647 2.1176 0 3.6907 1.0286 4.4773 2.8437h.121c1.3311-2.1782 3.0857-2.8437 5.1429-2.8437 3.8722 0 5.5058 2.8437 5.5058 6.6555v10.4067h-5.8084v-9.3782c0-1.6941-.5445-2.7832-1.9966-2.7832s-2.1782 1.3311-2.1782 3.1463v9.0151h-5.8084v-9.3782c0-1.6941-.5445-2.7832-1.9966-2.7832s-2.1781 1.3311-2.1781 3.1463v9.0151h-5.99z"/><path d="m98.1113 27.3553h-.0605v2.1781h-5.5664v-23.2336h5.8084v8.3496h.121c1.0891-1.4521 2.6012-2.2387 4.7192-2.2387 4.175 0 6.595 3.7513 6.595 8.7731 0 5.6269-2.602 8.8942-6.958 8.8942-1.815 0-3.6907-.8471-4.6587-2.7227zm5.6267-6.232c0-2.6622-.968-4.4168-2.723-4.4168-1.8147 0-2.9037 1.7546-2.9037 4.4168s1.1495 4.4168 2.9037 4.4168c1.755 0 2.723-1.6941 2.723-4.4168z"/><path d="m110.393 21.2443c0-5.2034 3.449-8.7731 8.41-8.7731 2.481 0 4.356.7865 5.809 2.1781 1.936 1.8757 2.783 4.7799 2.722 8.1681h-11.133c.242 2.0572 1.211 3.1462 2.965 3.1462 1.029 0 1.936-.484 2.299-1.5731h5.627c-.968 3.8118-3.933 5.6874-8.107 5.6874-5.143-.0605-8.592-3.5697-8.592-8.8336zm5.808-1.7546h5.325c-.121-1.9967-1.21-3.0252-2.602-3.0252-1.633-.0605-2.541 1.089-2.723 3.0252z"/><path d="m133.929 15.799h.121c1.211-2.2992 2.784-3.2067 4.78-3.2067.484 0 .787.0605.968.1815v5.0823h-.121c-3.448-.605-5.445 1.0286-5.445 4.7799v6.958h-5.869v-16.6387h5.566z"/><path d="m140.403 29.5938h5.627c.242.7261.968 1.3916 2.36 1.3916 1.876 0 2.541-1.1495 2.541-2.9042v-1.2101h-.121c-.907 1.0891-2.178 1.8757-3.993 1.8757-3.57 0-6.716-2.6622-6.716-7.8656 0-4.7798 2.541-8.4706 6.413-8.4706 2.239 0 3.57.9076 4.478 2.2992h.121v-1.8151h5.566v14.4c0 2.6622-.908 4.7193-2.299 5.9294-1.452 1.2706-3.509 1.8151-5.869 1.8151-4.477.0605-7.563-1.7546-8.108-5.4454zm10.77-8.9546c0-2.0571-.968-3.7512-2.662-3.7512-1.634 0-2.662 1.4521-2.662 3.7512 0 2.2387 1.028 3.8118 2.662 3.8118s2.662-1.6336 2.662-3.8118z"/></g></svg>