<svg fill="none" height="1348" width="1440" xmlns="http://www.w3.org/2000/svg"><filter id="b" color-interpolation-filters="sRGB" filterUnits="userSpaceOnUse" height="858.638" width="1047.41" x="-896.831" y="220.193"><feFlood flood-opacity="0" result="BackgroundImageFix"/><feColorMatrix in="SourceAlpha" values="0 0 0 0 0 0 0 0 0 0 0 0 0 0 0 0 0 0 127 0"/><feOffset dy="48"/><feGaussianBlur stdDeviation="24"/><feColorMatrix values="0 0 0 0 0.419608 0 0 0 0 0.482353 0 0 0 0 0.611765 0 0 0 0.05 0"/><feBlend in2="BackgroundImageFix" result="effect1_dropShadow"/><feBlend in="SourceGraphic" in2="effect1_dropShadow" result="shape"/></filter><filter id="c" color-interpolation-filters="sRGB" filterUnits="userSpaceOnUse" height="375.873" width="569.049" x="1097.31" y="304.9"><feFlood flood-opacity="0" result="BackgroundImageFix"/><feColorMatrix in="SourceAlpha" values="0 0 0 0 0 0 0 0 0 0 0 0 0 0 0 0 0 0 127 0"/><feOffset dy="48"/><feGaussianBlur stdDeviation="24"/><feColorMatrix values="0 0 0 0 0.419608 0 0 0 0 0.482353 0 0 0 0 0.611765 0 0 0 0.05 0"/><feBlend in2="BackgroundImageFix" result="effect1_dropShadow"/><feBlend in="SourceGraphic" in2="effect1_dropShadow" result="shape"/></filter><clipPath id="a"><path d="M-716 0h2872v1348H-716z"/></clipPath><g clip-path="url(#a)"><path d="M-716 0h2872v1348H-716z" fill="#f7f9fc"/><g clip-rule="evenodd" fill="#edf0f7" fill-rule="evenodd"><path d="M2240.03 2930.13L-1390.73-700.63l.9-.431L2240.93 2929.7zm1158.62-552.64L-232.109-1253.26l.902-.43L3399.55 2377.06z"/><path d="M978.947-42.872L-2496.91 1615.03l-.7-.71L978.24-43.58zm302.563 302.563L-2194.34 1917.59l-.71-.71L1280.8 258.984zm1172.87 602.453L137.144 1967.41l-.707-.71L2453.67 861.437z"/></g><path d="M925.436 474.032c-16.837-16.836-10.084-40.215 15.081-52.218L2036.54-100.963c25.17-12.003 59.22-8.085 76.05 8.751L3382.9 1178.1c16.84 16.83 10.08 40.21-15.08 52.21l-1096.03 522.78c-25.16 12-59.21 8.09-76.05-8.75z" fill="#f1f5fa"/><path d="M965.485 1406.22c-16.837-16.83-13.063-38.79 8.427-49.04L2247.81 749.56c21.49-10.25 52.56-4.911 69.4 11.925l544.15 544.155c16.84 16.84 13.07 38.8-8.42 49.05l-1273.9 607.61c-21.49 10.25-52.56 4.92-69.4-11.92z" fill="#f1f5fa"/><g filter="url(#b)"><path d="M-838.309 421.539c-16.836-16.836-13.063-38.794 8.427-49.045L-521.5 225.403c21.491-10.25 52.561-4.911 69.397 11.925L92.054 781.485c16.836 16.836 13.063 38.794-8.428 49.045l-308.382 147.09c-21.49 10.251-52.56 4.912-69.396-11.924z" fill="#f7f9fc"/></g><g filter="url(#c)"><path d="M1152.32 500.534c-11.22-11.224-8.71-25.863 5.62-32.696l334.32-159.464c14.33-6.834 35.04-3.275 46.27 7.949l72.81 72.815c11.23 11.224 8.71 25.863-5.61 32.697L1271.4 581.299c-14.32 6.833-35.04 3.274-46.26-7.95z" fill="#f7f9fc"/></g><path d="M-591.515 1525.91c-16.837-16.84-13.063-38.8 8.427-49.05l694.588-331.3c21.491-10.25 52.561-4.91 69.397 11.92L1330.18 2306.77c16.84 16.83 13.06 38.79-8.43 49.04l-694.586 331.3c-21.49 10.25-52.56 4.92-69.396-11.92zM-1560.52-574.093c-16.83-16.837-13.06-38.795 8.43-49.045L-857.5-954.44c21.491-10.25 52.561-4.911 69.397 11.925L361.18 206.768c16.836 16.836 13.063 38.794-8.427 49.045l-694.589 331.301c-21.49 10.251-52.56 4.912-69.396-11.925z" fill="#f1f5fa"/></g></svg>