<?xml version="1.0" encoding="UTF-8"?>
<svg xmlns="http://www.w3.org/2000/svg" fill="none" height="41" viewBox="0 0 40 41" width="40">
  <g stroke-linecap="round" stroke-linejoin="round" stroke-width="2.5">
    <path d="m11.0328 8.76807 17.935 5.70663" stroke="#9bf"></path>
    <path d="m10.7231 28.2349 18.0866 5.755" stroke="#9bf"></path>
    <path d="m10.6184 23.5616 18.6567-5.3316" stroke="#9bf"></path>
    <g clip-rule="evenodd" fill-rule="evenodd" stroke="#37f">
      <path d="m6.25 12.2466c2.76142 0 5-2.2386 5-5.00002s-2.23858-5-5-5-5 2.23858-5 5 2.23858 5.00002 5 5.00002z"></path>
      <path d="m6.25 30.9966c2.76142 0 5-2.2386 5-5s-2.23858-5-5-5-5 2.2386-5 5 2.23858 5 5 5z"></path>
      <path d="m33.75 20.9966c2.7614 0 5-2.2386 5-5s-2.2386-5-5-5-5 2.2386-5 5 2.2386 5 5 5z"></path>
      <path d="m33.75 39.7466c2.7614 0 5-2.2386 5-5s-2.2386-5-5-5-5 2.2386-5 5 2.2386 5 5 5z"></path>
    </g>
  </g>
</svg>
