<svg fill="none" height="32" viewBox="0 0 103 32" width="103" xmlns="http://www.w3.org/2000/svg" xmlns:xlink="http://www.w3.org/1999/xlink"><clipPath id="a"><path d="m.587891 0h101.647v32h-101.647z"/></clipPath><g clip-path="url(#a)"><path d="m93.5761 12.1413v5.1764h1.3177c1.9765 0 2.8235-.9411 2.8235-2.6353 0-1.2235-.5647-2.5411-3.1059-2.5411zm5.3647 11.9529c-1.4117-1.8823-2.7294-3.7647-3.9529-5.8353h-1.4118v4.8941l2.1647.1883v.847h-6.7764v-.9412l2.3529-.0941v-11.0117l-2.3529-.1883v-.9411l2.8235.0941h3.2c2.8235 0 5.1761.9411 5.1761 3.4823 0 1.7883-1.3173 2.8236-2.9173 3.2941 1.3177 1.8824 2.5412 3.7647 4.0473 5.2706l1.412.1883v.847h-3.7652zm-31.3411-11.8588-2.1647-.1883v-.9411l2.5411.0941h4.2353v.847l-2.3529.1883v11.0117l2.3529.1883v.847h-6.8706v-.9411l2.2589-.0942v-11.1058zm-5.2706 0-4.3294 12.047h-1.6942l-4.2352-12.2353-1.6001-.0941v-.9411l2.8236.0941h3.2941v.847l-2.0706.1883 3.2 9.6941 3.2-9.6941-2.1647-.1883v-.9411l2.7294.0941h2.2588v.847l-1.5058.1883zm-59.48239 10.9176v-11.0117l-2.258819-.1883v-.9411l2.635299.0941h6.58823l.09412-.753h.94116v3.7647h-.94116l-.28235-1.9764h-4.51765v4.9882h3.29412l.28235-1.5059h.84706v3.8588h-.94118l-.18823-1.4117h-3.29412v3.9529l.09412.9412c.09411.0941.28235.1882 1.69411.1882h1.31765c1.0353 0 1.6 0 1.78824-.2823.28234-.2824.56474-.9412.94114-2.4471h.8471l-.3765 3.7647h-10.823509v-.9412zm32.65879-2.447c0 2.2588-1.7882 3.5764-4.1411 3.5764-1.3177 0-2.4471-.3764-3.2942-.9411l-.1882 1.1294h-.9412v-4.3294h.9412c0 .5647.1882 1.3176.3765 1.8823.6588.753 1.8823 1.3177 3.0117 1.3177 1.4118 0 2.1648-.753 2.1648-2.0706 0-2.9177-6.2118-2.9177-6.2118-7.0588 0-2.0706 1.8823-3.2942 4.047-3.2942.9412 0 1.7883.1883 2.4471.3765l.2824-.9412h.847v3.7647h-.9412l-.2823-1.6c-.6105-.4183-1.3307-.6475-2.0706-.6588-1.3176 0-2.2588.5647-2.2588 1.8824 0 2.8235 6.2117 2.9176 6.2117 7.0588zm-18.8235 2.3529v-10.9176l-2.2588-.1883v-.9411l2.7294.0941h4.1412v.847l-2.2588.1883v9.9764l.0941.9412h2.2588c1.1294 0 1.5059 0 1.6941-.1882.2824-.2824.6588-.9412.9412-2.8236h.9412l-.2824 4.0471h-6.8706l-3.3882.0941v-.9412l2.3529-.0941zm23.9059 0v-10.9176l-2.2588-.1883v-.9411l2.8235.0941h6.3059l.1882-.753h.9412v3.7647h-.9412l-.3765-1.9764h-4.3294v4.9882h3.2942l.1882-1.5059h.9412v3.8588h-.9412l-.1882-1.4117h-3.2942v3.9529l.0942.9412c0 .0941.2823.1882 1.6941.1882h1.5059c1.1294 0 1.6 0 1.8823-.2823.1882-.2824.4706-.9412.8471-2.4471h.9411l-.4705 3.7647h-11.1059v-.9412l2.2588-.0941zm36.8 0v-10.9176l-2.2588-.1883v-.9411l2.8235.0941h6.3059l.1882-.753h.9412v3.7647h-.9412l-.3764-1.9764h-4.4236v4.9882h3.2941l.2824-1.5059h.8471v3.8588h-.9412l-.1883-1.4117h-3.2941v3.9529l.0941.9412c0 .0941.2824.1882 1.6942.1882h1.3176c1.1294 0 1.6 0 1.7882-.2823.2824-.2824.5647-.9412.9412-2.4471h.8471l-.3765 3.7647h-10.8235v-.9412l2.2588-.0941z" fill="#b9c4da"/></g></svg>