<?xml version="1.0" encoding="UTF-8"?>
<svg xmlns="http://www.w3.org/2000/svg" fill="none" height="40" viewBox="0 0 40 40" width="40">
  <g clip-rule="evenodd" fill-rule="evenodd" stroke-linecap="round" stroke-linejoin="round" stroke-width="2.5">
    <path d="m1.25 2.25c0-.55228.44772-1 1-1h13c.5523 0 1 .44772 1 1v13c0 .5523-.4477 1-1 1h-13c-.55228 0-1-.4477-1-1z" stroke="#37f"></path>
    <path d="m31.25 16.25c4.1421 0 7.5-3.3579 7.5-7.5 0-4.14214-3.3579-7.5-7.5-7.5s-7.5 3.35786-7.5 7.5c0 4.1421 3.3579 7.5 7.5 7.5z" stroke="#9bf"></path>
    <path d="m31.31 23.2952c-.2542-.4887-.7592-.7952-1.31-.7952s-1.0558.3065-1.31.7952l-7.2283 13.0116c-.2778.5056-.2822 1.1172-.0117 1.6267.2557.4956.764.8097 1.3217.8167h14.4566c.5577-.007 1.066-.3211 1.3217-.8167.2705-.5095.2661-1.1211-.0117-1.6267z" stroke="#37f"></path>
    <path d="m9.75167 21.7232c-.24633-.2984-.61305-.4712-1-.4712s-.75368.1728-1 .4712l-6.18334 7.395c-.42515.5109-.42515 1.2524 0 1.7633l6.18 7.395c.24633.2984.61306.4712 1 .4712.38695 0 .75368-.1728 1-.4712l6.17997-7.395c.4252-.5109.4252-1.2524 0-1.7633z" stroke="#9bf"></path>
  </g>
</svg>
