<svg fill="none" height="36" viewBox="0 0 97 36" width="97" xmlns="http://www.w3.org/2000/svg" xmlns:xlink="http://www.w3.org/1999/xlink"><clipPath id="a"><path d="m0 0h96.3v36h-96.3z"/></clipPath><g clip-path="url(#a)" fill="#c9d1e2"><path d="m23.9325 30.5308c-1.6792-.2445-3.1478-.9552-4.2693-2.0661-.9355-.9266-1.542-1.9456-1.9892-3.3419-.698-2.1799-.6982-4.9827-.0006-7.1181.6761-2.0696 2.1985-3.871 4.0617-4.8063 2.5802-1.2952 6.2118-1.2139 8.6015.1927 2.1507 1.2659 3.4535 3.5152 3.8159 6.5883.1107.9384.0389 2.9202-.1354 3.7383-.7134 3.3484-2.791 5.6875-5.835 6.5691-.328.095-.8366.2061-1.1303.247-.6214.0864-2.5179.0846-3.1193-.003zm3.6342-.2585c1.2287-.2868 2.2082-.7247 3.0838-1.3787 2.1297-1.5905 3.2967-4.0294 3.4045-7.1149.1062-3.0417-.8112-5.6346-2.585-7.3064-1.4399-1.3571-3.2544-2.0076-5.5999-2.0076-2.4864 0-4.4888.7709-6.0293 2.3213-1.6502 1.6607-2.523 3.9774-2.523 6.6964 0 2.8207.7886 5.0978 2.318 6.6931.8432.8796 1.664 1.4071 2.841 1.8258.4162.1481.7224.2192 1.8351.426.0953.0177.7341.021 1.4197.0073.9281-.0185 1.3968-.06 1.8351-.1623zm-2.6275-.9841c-1.1375-.516-1.9441-2.0845-2.3484-4.5664-.2563-1.5733-.2805-5.072-.0469-6.7864.3279-2.4075 1.0206-3.8298 2.0992-4.3102.7394-.3294 1.764-.1345 2.4228.4607 1.4632 1.3218 2.2017 5.0807 1.883 9.5842-.2286 3.2317-.93 4.9845-2.2382 5.5936-.4742.2208-1.3132.2324-1.7715.0245zm1.5054-.102c.4905-.1457 1.0955-.713 1.4181-1.3299.666-1.2735.9634-3.1566.9708-6.1468.0092-3.7475-.5783-6.1322-1.8183-7.3808-.5207-.5243-.8899-.6871-1.5557-.6861-1.4775.0024-2.4153 1.5449-2.7858 4.5823-.1703 1.3961-.1712 4.7222-.0016 5.9429.5248 3.7778 1.88 5.5804 3.7725 5.0184zm27.229 1.3437c-.687-.0696-2.7864-.419-3.5197-.5857l-.5073-.1153.0395-2.7094c.0953-6.5229.1073-10.0838.0456-13.5468-.0604-3.3923-.078-3.75103-.2088-4.25284-.1658-.63583-.405-1.07935-.6928-1.28425-.1118-.0796-.4155-.19241-.6749-.25068-.8623-.1937-.8154-.16264-.8384-.556-.0133-.2266.0112-.37629.0692-.42222.0777-.06158 7.15-1.41059 7.3752-1.4068.0648.00109.0739.90538.0408 4.01786-.0236 2.20903-.0266 4.01643-.0067 4.01643.0198 0 .2782-.1119.5742-.2486.8923-.4123 1.7147-.5912 2.9092-.6328.7952-.0277 1.1636-.0104 1.5716.0741 2.6677.5519 4.6419 2.7354 5.3318 5.8971.1799.8248.2469 2.8746.1274 3.9014-.1019.8751-.3924 2.0542-.6948 2.8193-1.1409 2.8873-3.5889 4.771-6.8364 5.2605-.748.1127-3.097.1269-4.1047.0247zm3.9126-.1651c2.1036-.3155 3.6466-1.0379 4.9534-2.319 1.8888-1.8519 2.7986-4.4655 2.6756-7.6867-.0633-1.6584-.3341-2.7417-1.0215-4.0857-.9311-1.8207-2.5238-3.0978-4.3321-3.4739-1.3564-.2821-3.1017-.0611-4.4287.5607-.3307.155-.6472.2818-.7034.2818-.0892 0-.0989-.5128-.0762-4.0392l.0261-4.03917-.2779.05569c-.1528.03064-1.7112.32102-3.4632.64531-1.752.32428-3.2538.60563-3.3374.62521-.1269.02977-.1492.07816-.1356.29497.0152.24162.035.26348.2904.31967.8779.19317 1.0342.262 1.3606.59918.3998.41305.5804.94049.6989 2.04124.0945.8771.1154 15.9888.0253 18.2194l-.0535 1.3226.7141.1527c2.7041.5783 5.3994.7781 7.0851.5252zm-2.4704-1.0534c-.1399-.0148-.2897-.0693-.3327-.1212-.1187-.143-.2473-9.5434-.1681-12.2935l.0627-2.1814.554-.1597c.8174-.2356 1.6973-.199 2.3211.0966 1.2527.5937 2.0757 2.0602 2.5031 4.4605.1392.7818.1187 3.4973-.0338 4.4636-.3184 2.0177-.8976 3.575-1.704 4.581-.391.4877-1.0402.949-1.5478 1.0997-.3275.0973-1.0294.1204-1.6545.0544zm1.3332-.1586c.5031-.0955.8939-.2957 1.3135-.6729 1.0517-.9456 1.8424-2.8976 2.1534-5.3162.1266-.985.1096-3.2297-.0308-4.0519-.3797-2.2237-1.1957-3.6852-2.386-4.2736-.4938-.2441-.57-.2614-1.1557-.2614-.4188 0-.7792.0449-1.0856.1351l-.4586.1352-.0339 2.5309c-.0433 3.2422.0621 11.359.1507 11.5919.0565.1486.1187.1801.3991.2021.6599.0518.7691.0499 1.1339-.0192zm17.1337 1.3429c-3.4355-.6197-5.8924-3.056-6.6952-6.639-.1033-.4608-.1489-.9764-.1748-1.9741-.041-1.5783.0874-2.5579.4947-3.7751.7821-2.3372 2.1837-3.9934 4.2197-4.986 2.149-1.0477 5.0872-1.1163 6.989-.1632 2.1413 1.0731 3.4013 3.2157 3.7209 6.3275.0431.4189.068.9175.0555 1.108l-.0229.3462-5.1244.0178-5.1244.0177.0195.6055c.0452 1.4026.3468 2.6431.9046 3.7217.2536.4903.4553.7575.9456 1.2525 1.1075 1.1181 2.2092 1.5511 3.9472 1.5511 1.2602 0 2.1664-.2515 3.1141-.8642.2655-.1716.5344-.312.5977-.312.1447 0 .4778.4288.4778.615 0 .3051-.9936 1.2892-1.9627 1.9438-.7937.5362-2.0524 1.0217-3.1438 1.2126-.7644.1337-2.4816.1306-3.2381-.0058zm3.0797-.1331c1.6046-.2602 3.1846-1.0304 4.3202-2.1057.6221-.5891.8284-.8733.7419-1.0222-.2308-.3974-.2209-.397-.8103-.0349-.9384.5765-1.4088.7354-2.5114.8486-1.2879.1321-2.4759-.0831-3.5736-.6475-.7282-.3744-1.6008-1.2356-2.037-2.0103-.5952-1.057-.9181-2.2918-1.0144-3.8787-.0405-.6663-.0317-.8323.0465-.8818.0534-.0338 2.3625-.0616 5.169-.0622l5.0725-.001v-.2004c0-.4555-.1495-1.6797-.2835-2.3216-.5389-2.5808-1.9614-4.4211-3.9899-5.1614-.8074-.2947-1.5711-.4188-2.5778-.4188-2.385 0-4.333.7824-5.8398 2.3455-1.2014 1.2463-1.9142 2.6463-2.3493 4.6141-.1311.5931-.1531.9012-.1531 2.1467 0 1.2362.0225 1.5551.1496 2.1269.8075 3.6321 3.197 6.024 6.63 6.6367.87.1553 2.1521.1672 3.0104.028zm-4.87-10.9566c-.0521-.0843.0771-1.3169.205-1.9553.3083-1.5389.8019-2.6502 1.4811-3.3345.3653-.368.532-.4828.8299-.5713.2051-.0609.4373-.1105.5161-.1103.3177.0009.6927.163.9717.4202.749.6904 1.1776 2.173 1.2625 4.3676l.0419 1.0833-.7202.0401c-1.4456.0805-4.5503.1213-4.588.0602zm3.9647-.1979 1.2048-.0419-.0434-.8559c-.1529-3.0178-.8914-4.667-2.0893-4.6657-1.3018.0015-2.3421 1.6751-2.7747 4.4639-.0531.3428-.0972.7493-.0979.9034l-.0012.28 1.2984-.0209c.7141-.0116 1.8406-.0399 2.5033-.0629zm11.6755 11.3547c-1.2338-.1322-3.1973-.5621-3.851-.8431l-.3194-.1372-.0435-1.582c-.0239-.8702-.0516-2.0335-.0614-2.5853l-.0178-1.0033.1913-.0917c.1053-.0505.3177-.0976.4721-.1047l.2807-.013.2392.5886c.9329 2.2963 2.0272 3.5344 3.4563 3.911.5452.1436 1.5674.1449 1.9711.0024 1.1305-.3991 1.7505-1.2551 1.7559-2.4246.0064-1.3849-.7549-2.0504-3.6308-3.1738-1.7818-.696-2.4034-1.0542-3.1434-1.8117-.7984-.8172-1.1816-1.7474-1.2535-3.0429-.0869-1.5655.4031-2.8852 1.4887-4.0098 1.0926-1.1317 2.511-1.7451 4.4432-1.9214 1.7014-.1553 4.3132.2056 5.6816.785l.2496.1057.0446 1.41c.0244.7756.0498 1.8152.0562 2.3103l.0118.9001-.3353.1245c-.53.1968-.5649.1722-.8597-.6091-.8265-2.1899-1.7868-3.2261-3.2832-3.5426-.9119-.193-1.6736.0144-2.2273.6063-.4319.4618-.6004.8719-.6413 1.5605-.0442.7461.0891 1.1494.545 1.6482.5619.6148 1.4824 1.1455 3.3161 1.9117 2.246.9386 3.3176 1.7354 3.9002 2.8999.3784.7563.4855 1.3604.4475 2.5231-.0286.8725-.0565 1.0518-.255 1.6377-.6472 1.9099-2.1082 3.1673-4.3651 3.7568-.7645.1997-.8736.21-2.3937.2267-.876.0096-1.7174.0041-1.8697-.0123zm3.2893-.194c2.9422-.4468 4.8418-2.0245 5.3401-4.4351.2406-1.164.1283-2.4584-.2884-3.324-.5834-1.2118-1.5698-1.9434-4.0129-2.9763-1.8146-.7672-2.9023-1.4175-3.3478-2.0015-.368-.4825-.4876-.8535-.4827-1.497.0074-.9705.3753-1.7139 1.0776-2.1773.5881-.3881 1.3249-.4828 2.1829-.2805 1.0368.2445 1.8164.8808 2.5205 2.0573.2241.3743.6848 1.4253.9091 2.0738.0348.1007.0749.1049.3167.0335.1523-.045.2983-.1031.3245-.1293.0261-.0262.0244-1.0182-.0038-2.2045l-.0514-2.157-.2513-.1064c-.424-.1795-1.5306-.4806-2.2595-.6147-.5484-.1009-1.0309-.127-2.3198-.1256-1.5385.0017-1.6641.0118-2.2995.1842-1.8457.5007-3.2141 1.5423-3.9292 2.9907-.38.7698-.5113 1.3631-.507 2.2909.0061 1.3174.3651 2.2898 1.159 3.1394.683.7311 1.571 1.2526 3.0837 1.8112 1.1903.4395 2.4191 1.0533 2.8848 1.4408.2737.2278.4888.4873.6492.7834.2281.4209.2398.4766.24 1.1351 0 .6345-.0183.7314-.2197 1.1566-.5262 1.1107-1.5789 1.6621-2.9577 1.5494-1.8735-.1532-3.1924-1.3921-4.2662-4.0076-.2801-.6822-.2993-.6963-.7251-.5344l-.1955.0743.0489 2.439c.0434 2.1646.062 2.449.165 2.528.3079.2361 2.3011.7092 3.6838.8744 1.0734.1282 2.7201.1325 3.5317.0092zm-90.6298554-.2221c-.0575755-.0233-.08656145-.1959-.08656145-.5154 0-.5738-.03657085-.5481 1.07336685-.754.85129-.158 1.15585-.3195 1.53177-.8124.72887-.9556.88641-2.7956.88804-10.3719.00154-7.115-.13553-8.61174-.88935-9.71141-.33444-.48788-.89806-.7528-1.842086-.86585l-.7271163-.08707-.0200538-.56765-.0200539-.56766.227801-.04059c.125291-.02233 4.527309-.03176 9.782299-.02096l9.5544.01962.0448.277c.0247.15235.0651 1.71502.0899 3.47261l.0451 3.19556-.4926.1497c-.7416.2252-.7371.228-1.0707-.6547-.8194-2.168-1.7589-3.4173-3.0446-4.04813-.8867-.43508-1.2967-.48768-3.8008-.48768h-2.17926l-.03757.36356c-.07044.68176-.18168 5.06735-.18091 7.13265l.00077 2.0602.64055-.0037c.35231-.002 1.04702-.0279 1.54382-.0576.7468-.0446.9686-.0843 1.2811-.2289.7676-.3554 1.2899-1.1375 1.6098-2.411l.1652-.6574.5652-.0201.5653-.0201v4.1605 4.1606l-.5655-.0201-.5654-.0202-.1605-.6578c-.3016-1.2361-.882-2.121-1.5991-2.4382-.3312-.1465-1.1507-.2298-2.73604-.278l-.74443-.0227v1.5631c0 1.7033.09363 4.0075.21367 5.2581.16734 1.7433.61283 2.7067 1.4129 3.0553.1528.0666.6361.1747 1.0741.2403.438.0655.8509.1474.9176.1818.169.0873.179.9902.0116 1.0544-.1309.0503-12.351703.0465-12.4764554-.0038zm12.4475554-.5428c0-.2095-.0187-.3809-.0416-.3809-.33 0-1.8675-.3315-2.1147-.456-.87932-.4427-1.28582-1.4951-1.44354-3.7372-.11213-1.5938-.2237-6.2763-.15128-6.3487.06567-.0657 2.99342.051 3.33562.1329.9461.2265 1.6753 1.1572 2.0404 2.604l.161.6377.4228.0207.4228.0206v-4.0198-4.0197h-.4502c-.4208 0-.4501.0101-.4501.156 0 .2624-.2627 1.0927-.5113 1.6163-.3895.82-.9379 1.315-1.6354 1.4759-.1714.0395-.9804.1028-1.7979.1406-1.15288.0534-1.4988.05-1.54228-.0153-.08037-.1207.10283-9.23815.19413-9.6618l.03442-.1597 2.54263.02121 2.5426.0212.5917.2119c1.3704.49081 2.3566 1.49307 3.1805 3.23249.1851.3908.4223.9599.5272 1.2646s.1977.5636.2062.5755c.0086.0118.236-.0455.5055-.1273l.4899-.1488-.0344-2.2618c-.019-1.24403-.0525-2.73706-.0744-3.31789l-.04-1.05605h-9.65625-9.656277l.020616.4325.020617.4325.623243.07795c.831411.10399 1.136261.19457 1.471051.43709.5075.36763.81961.9077 1.01615 1.7583.30534 1.3215.41523 4.3018.36434 9.8805-.05378 5.8947-.12813 7.1207-.50392 8.3099-.30908.9781-.88432 1.4966-1.83449 1.6535-.26151.0432-.631964.1121-.823234.1531l-.347764.0746v.3751.3752h6.197798 6.19782zm21.6889.5297c-.0632-.0403-.0838-.2-.0693-.5359l.0208-.4785.2423-.0516c.1333-.0284.4197-.0848.6363-.1253.6705-.1252 1.0558-.4892 1.2727-1.202.1766-.5807.2545-2.4386.2585-6.1693.005-4.5628-.09-5.6403-.5514-6.2512-.25-.331-.4303-.4252-1.037-.5416-.2995-.0575-.6146-.1191-.7003-.1369-.1387-.0289-.1558-.0741-.1558-.4135 0-.33.0209-.3896.1558-.4451.2073-.0853 7.0675-1.4565 7.2866-1.4565h.171l-.0336 1.0215c-.0184.5617-.0479 1.3797-.0655 1.8178l-.0319.7963.2485-.4482c.7956-1.4347 1.6878-2.3253 2.8742-2.8691.6513-.2984 1.0859-.3875 1.8905-.3875.9543 0 1.9083.3114 1.9083.6228 0 .2094-1.6813 4.6519-1.774 4.6875-.0453.0173-.3736-.1083-.7296-.2791-.7424-.3563-1.439-.5305-2.1152-.529-.842.0018-1.7826.312-2.154.7103-.1588.1703-.1596.1806-.1991 2.7249-.039 2.5196.0449 5.593.1866 6.8291.1207 1.0531.4005 1.5715.9784 1.8129.1928.0805 1.4126.2477 1.8106.2481.0302 0 .0458.2415.0347.5367l-.0203.5367-5.1244.0165c-2.8184.0091-5.1649-.0093-5.2144-.0408zm10.235-.5238v-.3749l-.5367-.0454c-1.2379-.1045-1.577-.2288-1.9021-.6969-.471-.6784-.5736-1.9303-.5736-7.0026v-3.9589l.1717-.1828c.2166-.2305.8937-.5522 1.3725-.6521.9723-.2027 2.2152-.0276 3.1873.4491.279.1369.5189.2371.5332.2228.0286-.0286 1.6252-4.2477 1.6748-4.4257.0225-.0808-.0695-.1511-.3381-.2586-.5748-.23-1.0733-.3089-1.7162-.2716-1.7199.0998-3.2462 1.2424-4.3456 3.2531-.1825.3338-.3715.6071-.4201.6075-.0705.0005-.0787-.3829-.0408-1.9078l.0474-1.9085-.1669.0394c-.0918.0216-1.4757.302-3.0754.623-3.4308.6885-3.9077.7889-3.9895.8394-.0339.021-.0616.1447-.0616.2751 0 .2614-.0305.2463.7491.3717 1.0716.1723 1.4501.6948 1.6099 2.2223.2083 1.9917.1251 9.7557-.116 10.8157-.1233.542-.4418 1.0639-.7624 1.2494-.1188.0688-.4928.179-.831.2451l-.6149.1201-.021.3635-.0209.3636h5.0934 5.0935z"/><path d="m12.5396 29.6039c0-.2095-.0187-.3809-.0416-.3809-.33 0-1.8675-.3315-2.1147-.456-.87932-.4427-1.28582-1.4951-1.44354-3.7372-.11213-1.5938-.2237-6.2763-.15128-6.3487.06567-.0657 2.99342.051 3.33562.1329.9461.2265 1.6753 1.1572 2.0404 2.604l.161.6377.4228.0207.4228.0206v-4.0198-4.0197h-.4502c-.4208 0-.4501.0101-.4501.156 0 .2624-.2627 1.0927-.5113 1.6163-.3895.82-.9379 1.315-1.6354 1.4759-.1714.0395-.9804.1028-1.7979.1406-1.15288.0534-1.4988.05-1.54228-.0153-.08037-.1207.10283-9.23815.19413-9.6618l.03442-.1597 2.54263.02121 2.5426.0212.5917.2119c1.3704.49081 2.3566 1.49307 3.1805 3.23249.1851.3908.4223.9599.5272 1.2646s.1977.5636.2062.5755c.0086.0118.236-.0455.5055-.1273l.4899-.1488-.0344-2.2618c-.019-1.24403-.0525-2.73706-.0744-3.31789l-.04-1.05605h-9.65625-9.656277l.020616.4325.020617.4325.623243.07795c.831411.10399 1.136261.19457 1.471051.43709.5075.36763.81961.9077 1.01615 1.7583.30534 1.3215.41523 4.3018.36434 9.8805-.05378 5.8947-.12813 7.1207-.50392 8.3099-.30908.9781-.88432 1.4966-1.83449 1.6535-.26151.0432-.631964.1121-.823234.1531l-.347764.0746v.3751.3752h6.197798 6.19782z"/><path clip-rule="evenodd" d="m27.5667 30.2723c1.2287-.2868 2.2082-.7247 3.0838-1.3787 2.1297-1.5905 3.2967-4.0294 3.4045-7.1149.1062-3.0417-.8112-5.6346-2.585-7.3064-1.4399-1.3571-3.2544-2.0076-5.5999-2.0076-2.4864 0-4.4888.7709-6.0293 2.3213-1.6502 1.6607-2.523 3.9774-2.523 6.6964 0 2.8207.7886 5.0978 2.318 6.6931.8432.8796 1.664 1.4071 2.841 1.8258.4162.1481.7224.2192 1.8351.426.0953.0177.7341.021 1.4197.0073.9281-.0185 1.3968-.06 1.8351-.1623zm-4.9759-5.5505c.4043 2.4819 1.2109 4.0504 2.3484 4.5664.4583.2079 1.2973.1963 1.7715-.0245 1.3082-.6091 2.0096-2.3619 2.2382-5.5936.3187-4.5035-.4198-8.2624-1.883-9.5842-.6588-.5952-1.6834-.7901-2.4228-.4607-1.0786.4804-1.7713 1.9027-2.0992 4.3102-.2336 1.7144-.2094 5.2131.0469 6.7864z" fill-rule="evenodd"/><path d="m44.4635 29.6098v-.3749l-.5367-.0454c-1.2379-.1045-1.577-.2288-1.9021-.6969-.471-.6784-.5736-1.9303-.5736-7.0026v-3.9589l.1717-.1828c.2166-.2305.8937-.5522 1.3725-.6521.9723-.2027 2.2152-.0276 3.1873.4491.279.1369.5189.2371.5332.2228.0286-.0286 1.6252-4.2477 1.6748-4.4257.0225-.0808-.0695-.1511-.3381-.2586-.5748-.23-1.0733-.3089-1.7162-.2716-1.7199.0998-3.2462 1.2424-4.3456 3.2531-.1825.3338-.3715.6071-.4201.6075-.0705.0005-.0787-.3829-.0408-1.9078l.0474-1.9085-.1669.0394c-.0918.0216-1.4757.302-3.0754.623-3.4308.6885-3.9077.7889-3.9895.8394-.0339.021-.0616.1447-.0616.2751 0 .2614-.0305.2463.7491.3717 1.0716.1723 1.4501.6948 1.6099 2.2223.2083 1.9917.1251 9.7557-.116 10.8157-.1233.542-.4418 1.0639-.7624 1.2494-.1188.0688-.4928.179-.831.2451l-.6149.1201-.021.3635-.0209.3636h5.0934 5.0935z"/><path clip-rule="evenodd" d="m57.5862 30.3648c2.1036-.3155 3.6466-1.0379 4.9534-2.319 1.8888-1.8519 2.7986-4.4655 2.6756-7.6867-.0633-1.6584-.3341-2.7417-1.0215-4.0857-.9311-1.8207-2.5238-3.0978-4.3321-3.4739-1.3564-.2821-3.1017-.0611-4.4287.5607-.3307.155-.6472.2818-.7034.2818-.0892 0-.0989-.5128-.0762-4.0392l.0261-4.03917-.2779.05569c-.1528.03064-1.7112.32102-3.4632.64531-1.752.32428-3.2538.60563-3.3374.62521-.1269.02977-.1492.07816-.1356.29497.0152.24162.035.26348.2904.31967.8779.19317 1.0342.262 1.3606.59918.3998.41305.5804.94049.6989 2.04124.0945.8771.1154 15.9888.0253 18.2194l-.0535 1.3226.7141.1527c2.7041.5783 5.3994.7781 7.0851.5252zm-2.8031-1.1746c.043.0519.1928.1064.3327.1212.6251.066 1.327.0429 1.6545-.0544.5076-.1507 1.1568-.612 1.5478-1.0997.8064-1.006 1.3856-2.5633 1.704-4.581.1525-.9663.173-3.6818.0338-4.4636-.4274-2.4003-1.2504-3.8668-2.5031-4.4605-.6238-.2956-1.5037-.3322-2.3211-.0966l-.554.1597-.0627 2.1814c-.0792 2.7501.0494 12.1505.1681 12.2935z" fill-rule="evenodd"/><path clip-rule="evenodd" d="m76.6624 30.3626c1.6046-.2602 3.1846-1.0304 4.3202-2.1057.6221-.5891.8284-.8733.7419-1.0222-.2308-.3974-.2209-.397-.8103-.0349-.9384.5765-1.4088.7354-2.5114.8486-1.2879.1321-2.4759-.0831-3.5736-.6475-.7282-.3744-1.6008-1.2356-2.037-2.0103-.5952-1.057-.9181-2.2918-1.0144-3.8787-.0405-.6663-.0317-.8323.0465-.8818.0534-.0338 2.3625-.0616 5.169-.0622l5.0725-.001v-.2004c0-.4555-.1495-1.6797-.2835-2.3216-.5389-2.5808-1.9614-4.4211-3.9899-5.1614-.8074-.2947-1.5711-.4188-2.5778-.4188-2.385 0-4.333.7824-5.8398 2.3455-1.2014 1.2463-1.9142 2.6463-2.3493 4.6141-.1311.5931-.1531.9012-.1531 2.1467 0 1.2362.0225 1.5551.1496 2.1269.8075 3.6321 3.197 6.024 6.63 6.6367.87.1553 2.1521.1672 3.0104.028zm-4.665-12.9119c-.1279.6384-.2571 1.871-.205 1.9553.0377.0611 3.1424.0203 4.588-.0602l.7202-.0401-.0419-1.0833c-.0849-2.1946-.5135-3.6772-1.2625-4.3676-.279-.2572-.654-.4193-.9717-.4202-.0788-.0002-.311.0494-.5161.1103-.2979.0885-.4646.2033-.8299.5713-.6792.6843-1.1728 1.7956-1.4811 3.3345z" fill-rule="evenodd"/><path d="m90.7219 30.3688c2.9422-.4468 4.8418-2.0245 5.3401-4.4351.2406-1.164.1283-2.4584-.2884-3.324-.5834-1.2118-1.5698-1.9434-4.0129-2.9763-1.8146-.7672-2.9023-1.4175-3.3478-2.0015-.368-.4825-.4876-.8535-.4827-1.497.0074-.9705.3753-1.7139 1.0776-2.1773.5881-.3881 1.3249-.4828 2.1829-.2805 1.0368.2445 1.8164.8808 2.5205 2.0573.2241.3743.6848 1.4253.9091 2.0738.0348.1007.0749.1049.3167.0335.1523-.045.2983-.1031.3245-.1293.0261-.0262.0244-1.0182-.0038-2.2045l-.0514-2.157-.2513-.1064c-.424-.1795-1.5306-.4806-2.2595-.6147-.5484-.1009-1.0309-.127-2.3198-.1256-1.5385.0017-1.6641.0118-2.2995.1842-1.8457.5007-3.2141 1.5423-3.9292 2.9907-.38.7698-.5113 1.3631-.507 2.2909.0061 1.3174.3651 2.2898 1.159 3.1394.683.7311 1.571 1.2526 3.0837 1.8112 1.1903.4395 2.4191 1.0533 2.8848 1.4408.2737.2278.4888.4873.6492.7834.2281.4209.2398.4766.24 1.1351 0 .6345-.0183.7314-.2197 1.1566-.5262 1.1107-1.5789 1.6621-2.9577 1.5494-1.8735-.1532-3.1924-1.3921-4.2662-4.0076-.2801-.6822-.2993-.6963-.7251-.5344l-.1955.0743.0489 2.439c.0434 2.1646.062 2.449.165 2.528.3079.2361 2.3011.7092 3.6838.8744 1.0734.1282 2.7201.1325 3.5317.0092z"/></g></svg>