<svg fill="none" height="36" viewBox="0 0 110 36" width="110" xmlns="http://www.w3.org/2000/svg" xmlns:xlink="http://www.w3.org/1999/xlink"><clipPath id="a"><path d="m.400024 0h109.538v36h-109.538z"/></clipPath><g clip-path="url(#a)"><path d="m25.2872 19.191 1.9112-.9882v-15.01906h-1.445l-3.5287 4.68004h-.3962l.2237-5.26272h15.2988l.2237 5.26738h-.4242l-3.4587-4.68004h-1.487v14.9771l1.9205 1.0162v.5081h-8.8381zm13.7745-.6619v-16.63657l-1.487-.59666v-.307653l5.3606-.988217h.5873v7.89641l.1259-.12585c1.2819-1.09077 2.9087-1.69675 4.5961-1.70608 2.3494 0 3.3842 1.3285 3.3842 3.79438v8.66554l1.2539.6852v.4755h-7.0107v-.4755l1.2586-.6852v-8.69351c0-1.36112-.5967-1.90185-1.7061-1.90185-.6712-.01398-1.3285.20044-1.8552.61065v10.01271l1.2352.6852v.4522h-7.0107v-.4522zm17.6341-5.1089c.1445 2.7502 1.3797 4.8758 4.2978 4.8758 1.4124 0 2.4146-.6526 3.3422-1.1514v.5408c-1.2632 1.5429-3.1604 2.4239-5.1555 2.4006-4.5262 0-6.8336-2.5172-6.8336-6.8709 0-4.25589 2.5311-6.90822 6.6145-6.90822 3.8457 0 5.8407 1.92049 5.8407 6.98282v.1305zm-.0746-.6386 3.9901-.2424c0-3.40752-.5826-5.6683-1.7526-5.6683-1.2493.00467-2.2375 2.6337-2.2375 5.9107zm-56.221176 13.5693c0-7.2392 4.791926-9.8169 10.129276-9.8169 2.2654 0 4.4003.3729 5.5983.8577l.1025 5.0529h-.508l-3.1325-4.8898c-.6293-.2517-1.3052-.3589-1.9858-.3216-2.83876 0-4.28846 3.2816-4.24184 8.6562.05127 6.4281 1.17001 9.3555 3.77574 9.3555.5314.0186 1.0628-.07 1.5616-.2611v-6.8895l-1.7201-.9789v-.5874h8.3066v.6153l-1.6921.9463v6.7963c-2.0137.7132-4.1393 1.0768-6.2789 1.0675-6.06446.0046-9.914776-2.8062-9.914776-9.6025zm17.116676-3.3795v-.4195l5.5704-.9836.6153.0513v11.0102c0 1.3285.6386 1.734 1.7107 1.734.7039.0094 1.3705-.3029 1.8133-.853v-9.8775l-1.5289-.6666v-.4288l5.5703-.9836.5594.0513v12.6324l1.5056.6293v.4009l-5.4631.6712-.5594-.0513v-1.6594h-.1538c-1.1234 1.0954-2.6197 1.7247-4.186 1.762-2.6803 0-3.9062-1.5802-3.9062-3.9809v-8.3765zm35.0211-1.4264.4615.0513v4.088h.1258c.5967-2.974 1.9112-4.088 3.5194-4.088.2331-.0094.4661.0233.6852.1025v4.1393c-.3776-.0792-.7645-.1118-1.1467-.1025-1.0441-.028-2.0836.1818-3.0392.606v8.0595l1.2725.7039v.5547h-7.2438v-.55l1.3052-.7086v-11.0009l-1.5289-.4568v-.3729zm14.0168.3449v-4.2978l-1.5289-.536v-.3403l5.6403-1.0348.536.0792v18.4591l1.557.5641v.4754l-5.5704.7412-.4335-.0513v-1.5196h-.1259c-.9649 1.0209-2.312 1.5849-3.7151 1.5569-3.0393 0-5.2581-2.3214-5.2581-7.0573 0-5.0017 2.5778-7.4629 6.484-7.4629.8204-.042 1.6502.1025 2.4146.4241zm0 11.8214v-11.0522c-.4288-.3636-.9835-.5361-1.5429-.4802-1.5103.0513-2.4426 2.3307-2.4426 6.3908 0 3.6499.6666 5.6916 2.6803 5.6217.4802.0046.9416-.1678 1.3052-.4801zm12.3108-12.1663.4848.0513v12.8048l1.2725.7039v.5547h-7.2438v-.55l1.3006-.7086v-10.7958l-1.557-.6153v-.4288zm.5081-3.4634c-.042 1.3285-1.1467 2.3726-2.4752 2.3493-.8764.0327-1.7014-.4148-2.1489-1.1653s-.4475-1.6921 0-2.4426 1.2725-1.198 2.1489-1.1654c1.3471-.0186 2.4565 1.0628 2.4752 2.41zm16.2683 16.3195v-10.9123l-1.529-.5361v-.5267l5.5704-1.0348.5598.0512v1.6362h.153c1.324-1.1327 3.007-1.7574 4.75-1.762 2.424 0 3.496 1.1467 3.496 3.7151v9.3508l1.301.7412v.5407h-7.253v-.5501l1.3-.7085v-9.1457c0-1.403-.615-1.9671-1.762-1.9671-.69-.0186-1.361.1958-1.911.6107v10.4974l1.277.7039v.5594h-7.2481v-.5501zm-7.8825-6.8569v-1.8319c0-2.7549-.6013-3.6592-2.3073-3.6592-.1912.0047-.3869.0233-.5781.0513l-3.0345 4.1113h-.4289v-3.7897c1.6408-.564 3.3609-.8624 5.0949-.8857 3.7152 0 5.8641 1.0302 5.8641 4.1394v8.9172l1.3285.3496v.3496c-.8437.4335-1.7853.648-2.7363.6293-1.8319 0-2.7082-.6013-3.1091-1.6035h-.1305c-.7785 1.0535-1.8786 1.6548-3.6126 1.6548-2.2049 0-3.7152-1.3798-3.7152-3.7571 0-2.3074 1.4311-3.5566 4.3398-4.1114zm0 6.1671v-5.5145l-.9276.0746c-1.4543.1259-1.9811 1.0535-1.9811 3.1092 0 2.2281.7412 2.8061 1.7527 2.8061.4382.042.8717-.1352 1.156-.4754zm-47.0335-6.1671v-1.8319c0-2.7549-.6013-3.6592-2.3074-3.6592-.1911.0047-.3869.0233-.578.0513l-3.0346 4.1067h-.4242v-3.7851c1.6409-.564 3.3563-.8624 5.0903-.8857 3.7151 0 5.864 1.0302 5.864 4.1394v8.9172l1.3285.3496v.3496c-.8437.4335-1.7853.648-2.7362.6293-1.8319 0-2.7083-.6013-3.1092-1.6035h-.1258c-.7785 1.0535-1.8786 1.6548-3.6126 1.6548-2.2048 0-3.7151-1.3798-3.7151-3.7571 0-2.3074 1.431-3.5566 4.3397-4.1114zm0 6.1671v-5.5145l-.9276.0746c-1.4544.1259-1.9811 1.0535-1.9811 3.1092 0 2.2281.7412 2.8061 1.7527 2.8061.4381.042.8717-.1352 1.156-.4754z" fill="#c9d1e2"/></g></svg>