<svg fill="none" height="32" viewBox="0 0 117 32" width="117" xmlns="http://www.w3.org/2000/svg" xmlns:xlink="http://www.w3.org/1999/xlink"><clipPath id="a"><path d="m.587891 0h116v32h-116z"/></clipPath><g clip-path="url(#a)"><path clip-rule="evenodd" d="m111.188 11.2941v.5647s-.6.1883-.6.9412v10.9176c0 .3765-.3.6589-.7.6589h-2.3l-5-7.5294v7.5294h-2.7003v-12.9883h1.8003c1 0 1.6.3765 2 .9412l4.3 6.3059s-.2-.3765-.2-1.3177v-6.0235zm-53.6003 0v12.4235c0 .3765-.4.6589-.8.6589h-2.2l-5-7.5294v7.5294h-2.8v-12.9883h1.8c1 0 1.6.3765 2 .9412l4.2 6.3059-.1-1.3177v-6.0235zm-34.7 0h-3.7v5.0824h-3.3v-5.0824h-4.3v.4706s.6.1882.6.9412v11.5765h3.7v-5.6471h3.3v5.6471h3.7v-12.8942zm12.2 0h-8.3v11.953c0 .6588.6 1.1294 1.4 1.1294h6.9c.4 0 .7-.2824.7-.6589v-1.6941h-4.8c-.1592 0-.3118-.0595-.4243-.1654s-.1757-.2495-.1757-.3993v-2.6353h4.3v-2.3529h-4.3v-2.6353h5.3v-1.6941c.1-.2824-.3-.6588-.6-.6588zm7.9 0h-3.8v12.4235c0 .3765.4.6589.7.6589h3v-12.9883zm53 0h-8.4v11.953c0 .6588.7 1.1294 1.4 1.1294h7c.4 0 .7-.2824.7-.6589v-1.6941h-4.8c-.1592 0-.3118-.0595-.4243-.1654s-.1757-.2495-.1757-.3993v-2.6353h4.3v-2.3529h-4.3v-2.6353h5.3v-1.6941c0-.2824-.3-.6588-.6-.6588zm-26.4 0h-8.3v11.953c0 .6588.7 1.1294 1.4 1.1294h7c.4 0 .7-.2824.7-.6589v-1.6941h-4.8c-.1592 0-.3118-.0595-.4243-.1654s-.1757-.2495-.1757-.3993v-2.6353h4.3v-2.3529h-4.3v-2.6353h5.3v-1.6941c0-.2824-.3-.6588-.7-.6588zm15.8 0h-2.7c-.3272-.0151-.6534.0456-.9498.1769s-.5541.3291-.7502.5761l-3.8 4.1411v-4.8941h-3.8v12.3294c0 .4706.4.753.7.753h3v-5.9294l3.4 4.8941c.5.6588 1 1.0353 2.1 1.0353h3.1l-5.1-7.6236 5-5.3647zm-81.10003 4.8941h-.3v-.1882l2-5.9294-5.300002-3.57648c-.1-.18824 0-.47059.2-.47059h6.500002l2-5.9294124.2-.0941176.1.0941176 2.00003 5.9294124h6.5c.2 0 .3.28235.1.47059l-3 2.07059h-3.7l-1-3.29412-1.20003 3.29412h-3.7l3 2.16469-1 3.2941z" fill="#c9d1e2" fill-rule="evenodd"/></g></svg>