<svg width="768" height="944" fill="none" xmlns="http://www.w3.org/2000/svg"><g clip-path="url(#clip0)"><path fill="#F7F9FC" d="M0 0h768v944H0z"/><g filter="url(#filter0_d)"><path d="M-478.074 143.454c-12.796-12.796-9.929-29.486 6.406-37.277L-99.505-71.336c16.335-7.791 39.95-3.733 52.747 9.063L244.804 229.29c12.796 12.797 9.928 29.487-6.406 37.278L-133.766 444.08c-16.334 7.791-39.949 3.733-52.746-9.064l-291.562-291.562z" fill="#F7F9FC"/></g><path fill-rule="evenodd" clip-rule="evenodd" d="M872.881 1448.68L28.125 603.922l2.772-1.322 844.757 844.76-2.773 1.32zm987.929 40.33L-166.603-538.406l2.773-1.322L1863.59 1487.69l-2.78 1.32z" fill="#EDF0F7"/><path fill-rule="evenodd" clip-rule="evenodd" d="M511.675 137.824L-1213.59 960.732l-2.17-2.172L509.503 135.652l2.172 2.172zm1587.255 239.46L373.673 1200.19l-2.773 1.32 1725.26-822.903 2.77-1.323zm-515.6-513.554L-141.929 686.637l-2.173-2.172L1581.16-138.443l2.17 2.173z" fill="#EDF0F7"/><path d="M418.304 306.238c-9.598-9.598-7.447-22.115 4.804-27.958L810.059 93.713c12.251-5.843 29.962-2.8 39.56 6.798l102.517 102.517c9.598 9.598 7.447 22.115-4.804 27.958L560.381 415.553c-12.251 5.843-29.963 2.799-39.56-6.798L418.304 306.238z" fill="#FFD9CC"/><g filter="url(#filter1_d)"><path d="M-364.824 463.743c-12.797-12.797-9.929-29.487 6.405-37.278l183.463-87.507c16.335-7.791 39.95-3.733 52.747 9.063l291.562 291.562c12.796 12.797 9.928 29.486-6.406 37.277l-183.463 87.508c-16.334 7.791-39.95 3.733-52.746-9.064l-291.562-291.561z" fill="#F7F9FC"/></g><path d="M-165.338 933.972c-9.597-9.598-7.447-22.115 4.804-27.958L10.76 824.311c12.25-5.843 29.962-2.8 39.56 6.798l303.147 303.151c9.597 9.59 7.446 22.11-4.804 27.95l-171.294 81.71c-12.251 5.84-29.962 2.8-39.56-6.8l-303.147-303.148zm673.239 28.233c-9.598-9.597-7.447-22.114 4.804-27.958l386.951-184.566c12.251-5.843 29.963-2.8 39.56 6.797l303.144 303.152c9.6 9.59 7.45 22.11-4.8 27.95l-386.952 184.57c-12.251 5.84-29.963 2.8-39.56-6.8L507.901 962.205z" fill="#F1F5FA"/><g filter="url(#filter2_d)"><path d="M-203.605 537.369c-9.597-9.597-7.446-22.115 4.805-27.958l386.951-184.566c12.251-5.844 29.962-2.8 39.56 6.797l28.601 28.601c9.597 9.598 7.447 22.115-4.804 27.958l-386.952 184.567c-12.25 5.843-29.962 2.8-39.56-6.798l-28.601-28.601z" fill="#99E6FF"/></g><g filter="url(#filter3_d)"><path d="M555.872 196.952c-9.598-9.598-7.447-22.115 4.804-27.958L947.628-15.572c12.25-5.844 29.962-2.8 39.559 6.797l28.603 28.601c9.6 9.598 7.45 22.115-4.81 27.958L624.033 232.351c-12.251 5.843-29.962 2.799-39.56-6.798l-28.601-28.601z" fill="#69F"/></g></g><defs><filter id="filter0_d" x="-502.071" y="-75.297" width="770.871" height="555.337" filterUnits="userSpaceOnUse" color-interpolation-filters="sRGB"><feFlood flood-opacity="0" result="BackgroundImageFix"/><feColorMatrix in="SourceAlpha" values="0 0 0 0 0 0 0 0 0 0 0 0 0 0 0 0 0 0 127 0"/><feOffset dy="16"/><feGaussianBlur stdDeviation="8"/><feColorMatrix values="0 0 0 0 0.419608 0 0 0 0 0.482353 0 0 0 0 0.611765 0 0 0 0.05 0"/><feBlend in2="BackgroundImageFix" result="effect1_dropShadow"/><feBlend in="SourceGraphic" in2="effect1_dropShadow" result="shape"/></filter><filter id="filter1_d" x="-388.821" y="334.997" width="582.171" height="465.331" filterUnits="userSpaceOnUse" color-interpolation-filters="sRGB"><feFlood flood-opacity="0" result="BackgroundImageFix"/><feColorMatrix in="SourceAlpha" values="0 0 0 0 0 0 0 0 0 0 0 0 0 0 0 0 0 0 127 0"/><feOffset dy="16"/><feGaussianBlur stdDeviation="8"/><feColorMatrix values="0 0 0 0 0.419608 0 0 0 0 0.482353 0 0 0 0 0.611765 0 0 0 0.05 0"/><feBlend in2="BackgroundImageFix" result="effect1_dropShadow"/><feBlend in="SourceGraphic" in2="effect1_dropShadow" result="shape"/></filter><filter id="filter2_d" x="-225.603" y="321.874" width="503.912" height="285.864" filterUnits="userSpaceOnUse" color-interpolation-filters="sRGB"><feFlood flood-opacity="0" result="BackgroundImageFix"/><feColorMatrix in="SourceAlpha" values="0 0 0 0 0 0 0 0 0 0 0 0 0 0 0 0 0 0 127 0"/><feOffset dy="16"/><feGaussianBlur stdDeviation="8"/><feColorMatrix values="0 0 0 0 0.419608 0 0 0 0 0.482353 0 0 0 0 0.611765 0 0 0 0.05 0"/><feBlend in2="BackgroundImageFix" result="effect1_dropShadow"/><feBlend in="SourceGraphic" in2="effect1_dropShadow" result="shape"/></filter><filter id="filter3_d" x="533.874" y="-18.543" width="503.912" height="285.864" filterUnits="userSpaceOnUse" color-interpolation-filters="sRGB"><feFlood flood-opacity="0" result="BackgroundImageFix"/><feColorMatrix in="SourceAlpha" values="0 0 0 0 0 0 0 0 0 0 0 0 0 0 0 0 0 0 127 0"/><feOffset dy="16"/><feGaussianBlur stdDeviation="8"/><feColorMatrix values="0 0 0 0 0.419608 0 0 0 0 0.482353 0 0 0 0 0.611765 0 0 0 0.05 0"/><feBlend in2="BackgroundImageFix" result="effect1_dropShadow"/><feBlend in="SourceGraphic" in2="effect1_dropShadow" result="shape"/></filter><clipPath id="clip0"><path fill="#fff" d="M0 0h768v944H0z"/></clipPath></defs></svg>