<?xml version="1.0" encoding="UTF-8"?>
<svg xmlns="http://www.w3.org/2000/svg" width="2880" height="900" fill="none">
  <g clip-path="url(#clip0)">
    <path fill="url(#paint0_linear)" d="M0 0h2880v900H0z"></path>
    <mask id="a" maskUnits="userSpaceOnUse" x="0" y="0" width="1808" height="900">
      <path fill="url(#paint1_linear)" d="M0 0h1808v900H0z"></path>
    </mask>
    <g mask="url(#a)">
      <path d="M1094.05 186.213c-9.37-9.373-7.27-21.597 4.69-27.303l182.32-86.963c11.97-5.707 29.26-2.735 38.64 6.638l178.19 178.191c9.37 9.372 7.27 21.596-4.69 27.303l-182.33 86.963c-11.96 5.706-29.26 2.734-38.63-6.638l-178.19-178.191z" fill="#EDF0F7"></path>
      <path fill-rule="evenodd" clip-rule="evenodd" d="M1445.08 1247.45L172.287-25.344l1.805-.861L1446.88 1246.59l-1.8.86zM3129.07 2532.51L442.063-154.498l1.805-.861L3130.87 2531.65l-1.8.86zM1349.23 352.745L712.838-283.651l1.805-.861 636.397 636.396-1.81.861z" fill="#EDF0F7"></path>
      <path fill-rule="evenodd" clip-rule="evenodd" d="M1602.33 76.65L-22.324 851.568l-1.414-1.414L1600.91 75.235l1.42 1.414zM1892.4 94.715l-676.94 322.883-1.42-1.414 676.94-322.883 1.42 1.414zM1998.46 202.781L373.807 977.701l-1.414-1.414 1624.657-774.92 1.41 1.414zM2210.59 412.913L585.94 1187.83l-1.414-1.41L2209.18 411.499l1.41 1.414zM1574.2-223.483L-50.457 551.437l-1.414-1.414 1624.651-774.92 1.42 1.414z" fill="#EDF0F7"></path>
      <g filter="url(#filter0_d)">
        <path d="M786.621 358.698c-4.393-4.394-3.395-10.13 2.229-12.813l270.72-129.125c5.62-2.683 13.74-1.296 18.14 3.098l10.6 10.606c4.4 4.394 3.4 10.13-2.23 12.813L815.366 372.402c-5.624 2.682-13.745 1.296-18.138-3.098l-10.607-10.606z" fill="#fff"></path>
      </g>
      <path d="M1074.55 229.197c3.66 3.661 2.84 8.436-1.84 10.665-4.67 2.229-11.43 1.068-15.09-2.593s-2.84-8.436 1.84-10.665c4.67-2.229 11.43-1.068 15.09 2.593z" fill="#EDF0F7"></path>
      <path fill-rule="evenodd" clip-rule="evenodd" d="M1063.54 230.692a.715.715 0 01.76.13l4.42 4.419c.18.183.14.422-.09.533-.24.112-.58.054-.76-.129l-4.42-4.42c-.18-.183-.14-.422.09-.533z" fill="#9CA9C4"></path>
      <path fill-rule="evenodd" clip-rule="evenodd" d="M1062.84 234.78c-.18-.183-.14-.421.09-.533l5.64-2.691c.24-.111.58-.053.76.13.18.183.14.422-.09.533l-5.64 2.691c-.24.111-.58.053-.76-.13z" fill="#9CA9C4"></path>
      <path fill-rule="evenodd" clip-rule="evenodd" d="M1063.54 230.692a.715.715 0 01.76.13l4.42 4.419c.18.183.14.422-.09.533-.24.112-.58.054-.76-.129l-4.42-4.42c-.18-.183-.14-.422.09-.533z" fill="#9CA9C4"></path>
      <path fill-rule="evenodd" clip-rule="evenodd" d="M1062.84 234.78c-.18-.183-.14-.421.09-.533l5.64-2.691c.24-.111.58-.053.76.13.18.183.14.422-.09.533l-5.64 2.691c-.24.111-.58.053-.76-.13z" fill="#9CA9C4"></path>
      <path d="M868.996 322.344c-1.83-1.831-1.42-4.218.917-5.333l76.155-36.324c2.337-1.115 5.715-.534 7.546 1.296l6.629 6.63c1.83 1.83 1.42 4.218-.917 5.332l-76.155 36.325c-2.337 1.114-5.715.534-7.546-1.297l-6.629-6.629z" fill="#F7F9FC"></path>
      <path d="M937.571 294.936l1.383 1.383.817-.39-1.383-1.382-.426-2.614-.918.438.362 1.753-2.246-.855-.96.458 3.371 1.209zM940.322 293.597c-.191-.218-.207-.566.201-.761.451-.215.863-.083 1.102.139l-1.303.622zm1.974-.065c.11.25.052.49-.315.665-.391.186-.935.124-1.254-.17l2.085-.994c-.01-.009-.091-.108-.179-.196-.733-.733-1.722-.926-2.623-.497-.746.356-.96 1.157-.231 1.886.77.77 1.925.884 2.725.503.717-.342.849-.892.603-1.357l-.811.16zM943.623 293.173c.358.358 1.066.506 1.688.21.433-.206.553-.497.52-.749.088.089.226.208.304.26l.722-.345a4.035 4.035 0 01-.397-.345l-1.123-1.123c-.46-.459-1.211-.704-2.135-.263-.782.373-.808.968-.499 1.348l.815-.217c-.175-.211-.158-.473.186-.637.332-.158.626-.1.789.062.078.079.09.17-.057.267l-.633.426c-.43.287-.588.698-.18 1.106zm1.395-.329a.568.568 0 01-.644-.083c-.176-.177-.105-.341.074-.46l.578-.393.102.102c.404.404.221.676-.11.834zM947.1 289.048a2.15 2.15 0 00-.192.078c-.249.119-.596.366-.472.753l-.339-.339-.764.364 2.283 2.284.788-.376-1.044-1.044c-.492-.492-.296-.812.107-1.004a1.55 1.55 0 01.255-.095l-.622-.621zM884.403 321.461l-2.103-2.102.658-.313c.687-.328 1.594-.26 2.309.454.715.715.474 1.323-.213 1.651l-.651.31zm1.275.27c1.196-.571 1.476-1.595.436-2.635a3.25 3.25 0 00-3.72-.658l-1.505.717 3.29 3.29 1.499-.714zM887.607 319.892c.357.357 1.065.506 1.687.209.433-.206.553-.496.521-.748.088.088.225.208.303.26l.723-.345a4.035 4.035 0 01-.398-.345l-1.123-1.123c-.459-.459-1.211-.704-2.135-.263-.782.373-.808.968-.498 1.348l.815-.218c-.176-.211-.158-.473.185-.636.332-.159.626-.1.789.062.079.079.09.169-.057.267l-.633.425c-.43.288-.588.699-.179 1.107zm1.394-.329a.568.568 0 01-.644-.084c-.176-.176-.104-.341.074-.46l.578-.392.103.102c.403.403.221.676-.111.834zM893.431 319.362l-1.353-4.056-.841.401.62 1.678-2.113-.966-.882.421 3.233 1.405.501 1.515.835-.398z" fill="#9CA9C4"></path>
      <g filter="url(#filter1_d)">
        <path d="M898.098 308.953c-1.465-1.465-1.137-3.375.733-4.266L919.139 295c1.869-.891 4.572-.427 6.036 1.037l5.966 5.967c1.465 1.464 1.137 3.374-.733 4.266l-20.308 9.686c-1.869.892-4.572.427-6.036-1.037l-5.966-5.966z" fill="#fff"></path>
      </g>
      <path d="M911.641 307.846l-3.21-1.828-.847.404 1.335 2.708-3.035-1.897-.865.413 4.457 2.733.853-.407-1.384-2.801 3.303 1.886.841-.401-2.129-3.844-.835.398 1.516 2.636zM913.691 306.299c-.191-.218-.207-.566.202-.761.45-.215.862-.083 1.102.139l-1.304.622zm1.975-.065c.109.25.051.49-.316.665-.391.186-.935.124-1.254-.17l2.085-.994c-.009-.009-.09-.108-.178-.196-.734-.733-1.723-.926-2.623-.497-.746.356-.96 1.157-.232 1.886.771.77 1.926.884 2.725.503.717-.342.85-.892.603-1.357l-.81.16zM916.965 304.737c-.191-.217-.207-.566.202-.761.45-.215.862-.082 1.102.139l-1.304.622zm1.975-.064c.109.249.051.489-.316.664-.391.187-.935.124-1.254-.169l2.085-.995c-.009-.009-.09-.107-.178-.196-.734-.733-1.723-.926-2.623-.496-.746.356-.96 1.157-.232 1.885.771.77 1.926.884 2.725.503.717-.342.849-.892.603-1.357l-.81.161zM921.609 301.22l-1.031.492-.158 1.329-1.926-1.926-.787.376 3.359 3.36.788-.376-.603-.603.056-.425 1.643.505.965-.46-2.513-.755.207-1.517z" fill="#47536B"></path>
      <path d="M810.258 345.466l30.462-14.53 13.258 13.258-30.462 14.53-13.258-13.258z" fill="#fff"></path>
      <path fill-rule="evenodd" clip-rule="evenodd" d="M840.628 331.469l-29.616 14.126 12.596 12.596 29.616-14.127-12.596-12.595zm-30.37 13.997l13.258 13.258 30.462-14.53-13.258-13.258-30.462 14.53z" fill="#E1E6F1"></path>
      <path d="M826.203 346.137l-.608-.608-3.477 1.659.608.608 1.327-.633 2.682 2.682.823-.393-2.682-2.682 1.327-.633zM829.657 347.724c-.385.184-.963.131-1.39-.296-.431-.432-.294-.819.091-1.003.385-.183.958-.135 1.39.297.431.431.294.819-.091 1.002zm-1.861-1.86c-.87.415-1.022 1.234-.317 1.94.701.7 1.869.897 2.74.482.87-.415 1.017-1.239.317-1.94-.706-.705-1.869-.898-2.74-.482zM831.717 342.506l-.776.37 1.304 1.304c-.203-.081-.602-.13-1.106.11-.823.393-.873 1.191-.205 1.859.691.692 1.794.92 2.623.524.391-.186.548-.467.497-.71.107.107.236.21.295.25l.752-.358a7.587 7.587 0 01-.437-.402l-2.947-2.947zm.01 3.265c-.408-.409-.32-.793.083-.985.402-.193.944-.115 1.352.293.413.413.341.805-.062.997-.415.197-.964.103-1.373-.305zM835.115 344.929c.357.358 1.066.506 1.688.21.432-.207.553-.497.52-.749.088.088.225.208.303.26l.723-.345a4.035 4.035 0 01-.398-.345l-1.123-1.123c-.459-.459-1.211-.704-2.135-.263-.782.373-.808.968-.498 1.348l.815-.217c-.176-.211-.158-.473.185-.637.332-.158.627-.1.789.062.079.079.091.17-.057.267l-.633.426c-.43.287-.588.698-.179 1.106zm1.394-.329a.568.568 0 01-.644-.083c-.176-.177-.104-.341.074-.46l.579-.393.102.102c.403.404.221.676-.111.834zM840.939 344.399l-1.353-4.056-.841.401.62 1.678-2.112-.966-.883.421 3.233 1.405.501 1.516.835-.399z" fill="#6B7B9C"></path>
      <path d="M797.072 356.65c-1.831-1.83-1.42-4.218.916-5.332l12.693-6.054 13.258 13.258-12.692 6.054c-2.337 1.114-5.715.534-7.546-1.297l-6.629-6.629z" fill="#fff"></path>
      <path fill-rule="evenodd" clip-rule="evenodd" d="M810.589 345.797l-12.269 5.852c-2.103 1.003-2.472 3.152-.825 4.8l6.629 6.629c1.648 1.647 4.688 2.17 6.791 1.167l12.27-5.853-12.596-12.595zm-12.601 5.521c-2.336 1.114-2.747 3.502-.916 5.332l6.629 6.629c1.831 1.831 5.209 2.411 7.546 1.297l12.692-6.054-13.258-13.258-12.693 6.054z" fill="#E1E6F1"></path>
      <path fill-rule="evenodd" clip-rule="evenodd" d="M808.248 353.608c.292.065.483.283.428.487l-.595 2.2 3.19.395c.296.036.523.237.507.448-.016.212-.269.353-.566.316l-3.803-.47a.68.68 0 01-.394-.181c-.096-.095-.134-.211-.105-.318l.71-2.623c.055-.204.336-.318.628-.254z" fill="#9CA9C4"></path>
      <path d="M840.297 331.137l12.693-6.054c2.336-1.114 5.715-.534 7.545 1.297l6.629 6.629c1.831 1.831 1.421 4.218-.916 5.333l-12.693 6.054-13.258-13.259z" fill="#fff"></path>
      <path fill-rule="evenodd" clip-rule="evenodd" d="M853.321 325.415l-12.269 5.852 12.595 12.595 12.269-5.852c2.103-1.003 2.473-3.152.825-4.799l-6.629-6.629c-1.647-1.648-4.688-2.17-6.791-1.167zm-13.024 5.722l13.258 13.259 12.693-6.054c2.337-1.115 2.747-3.502.916-5.333l-6.629-6.629c-1.83-1.831-5.209-2.411-7.545-1.297l-12.693 6.054z" fill="#E1E6F1"></path>
      <path fill-rule="evenodd" clip-rule="evenodd" d="M852.458 332.521c.016-.211.27-.352.566-.316l3.803.471a.682.682 0 01.394.18c.096.096.134.212.105.319l-.71 2.623c-.055.204-.336.318-.628.253-.291-.064-.483-.282-.428-.486l.596-2.2-3.19-.395c-.297-.037-.524-.238-.508-.449z" fill="#9CA9C4"></path>
      <path d="M807.655 793.277c-9.373-9.373-7.272-21.596 4.691-27.303l182.516-87.055c11.968-5.707 29.258-2.735 38.628 6.638l178.2 178.191c9.37 9.372 7.27 21.596-4.7 27.303l-182.51 87.055c-11.97 5.707-29.262 2.735-38.634-6.638L807.655 793.277z" fill="#F7F9FC"></path>
      <g filter="url(#filter2_d)">
        <path d="M733.036 462.585c-4.393-4.394-3.409-10.124 2.199-12.799L1207.4 224.575c5.61-2.675 13.72-1.281 18.11 3.112l275.77 275.772c4.39 4.393 3.41 10.123-2.2 12.798l-472.16 225.211c-5.61 2.675-13.72 1.282-18.11-3.112L733.036 462.585z" fill="#fff"></path>
      </g>
      <path d="M777.121 429.808l.423-.202 291.686 291.682-.43.202-291.679-291.682zM841.008 399.336l.423-.202 291.679 291.682-.42.202-291.682-291.682zM904.893 368.864l.424-.202L1197 660.344l-.43.201-291.677-291.681zM968.78 338.392l.423-.202 291.677 291.681-.42.202-291.68-291.681zM1032.67 307.92l.42-.202 291.68 291.681-.42.202-291.68-291.681zM1096.55 277.448l.42-.202 291.69 291.681-.43.202-291.68-291.681zM1157.05 248.59l.43-.202 291.68 291.681-.43.202-291.68-291.681z" fill="#EDF0F7"></path>
      <path d="M783.727 481.715c-.316-.316-.525-.613-.558-.865-.03-.205.056-.39.334-.523.285-.135.554-.12.821-.028.335.108.663.348.979.664.315.316.525.613.552.867.03.205-.044.385-.329.52a1.057 1.057 0 01-.826.031c-.329-.11-.657-.351-.973-.666zm-.817.389c.385.386.838.725 1.409.911.552.176 1.175.187 1.774-.099.598-.285.804-.691.755-1.107-.05-.435-.343-.851-.728-1.236-.385-.385-.844-.721-1.415-.908a2.358 2.358 0 00-1.768.096c-.598.285-.804.692-.762 1.11.051.436.349.848.735 1.233zM788.379 481.572c.299.002.73-.101 1.056-.256 1.315-.628 1.367-1.599.281-2.684-.96-.961-2.123-1.092-2.958-.693-.853.407-1.034 1.144-.417 1.761.622.622 1.621.721 2.338.379.403-.192.594-.482.564-.749.499.578.332 1.103-.366 1.436-.267.127-.615.19-.812.195l.314.611zm.052-2.896c.297.297.194.64-.167.813-.361.172-.852.118-1.154-.183-.297-.297-.194-.641.161-.81.361-.173.863-.117 1.16.18zM791.664 479.574a.908.908 0 00.961.165c.303-.144.355-.45.123-.682-.232-.232-.665-.307-.967-.163-.296.141-.349.448-.117.68zM793.252 477.172c-.316-.316-.526-.613-.559-.865-.03-.205.056-.39.335-.523.284-.135.553-.12.82-.028.335.108.664.348.979.664.316.316.526.613.553.867.03.205-.045.385-.329.52a1.057 1.057 0 01-.826.031c-.329-.11-.658-.351-.973-.666zm-.818.389c.385.386.838.725 1.41.911.551.176 1.175.187 1.773-.099.598-.285.804-.691.756-1.107-.05-.435-.343-.851-.728-1.236-.386-.385-.844-.721-1.416-.908a2.356 2.356 0 00-1.767.096c-.599.285-.804.692-.762 1.11.05.436.349.848.734 1.233zM797.232 475.273c-.315-.316-.525-.613-.558-.865-.03-.205.056-.39.335-.523.284-.135.553-.12.82-.028.335.108.663.349.979.664.316.316.525.613.552.868.03.205-.044.384-.328.52-.279.132-.56.123-.827.031-.329-.111-.657-.352-.973-.667zm-.817.39c.385.385.838.724 1.41.911.551.175 1.175.186 1.773-.099.598-.286.804-.692.756-1.108-.051-.435-.343-.85-.729-1.236-.385-.385-.844-.721-1.415-.908a2.358 2.358 0 00-1.768.096c-.598.286-.804.692-.761 1.111.05.435.349.847.734 1.233z" fill="#6B7B9C"></path>
      <path d="M814.668 466.729l440.012-209.874.33.332-440.011 209.874-.331-.332z" fill="#EDF0F7"></path>
      <path d="M825.201 521.92l-3.012-3.011-.704.336c.238.352.093.784-.465 1.057l.432.432.924-.441 2.014 2.014.811-.387zM825.547 519.535c-.316-.316-.526-.613-.558-.865-.03-.205.056-.39.334-.523.284-.135.554-.12.821-.028.335.108.663.348.978.664.316.316.526.613.553.867.03.205-.044.385-.329.52a1.057 1.057 0 01-.826.031c-.329-.11-.658-.351-.973-.666zm-.817.389c.385.386.838.725 1.409.911.552.176 1.175.187 1.773-.098.599-.286.805-.692.756-1.108-.05-.435-.343-.851-.728-1.236-.385-.385-.844-.721-1.416-.908a2.356 2.356 0 00-1.767.096c-.598.285-.804.692-.762 1.11.05.436.349.848.735 1.233zM829.735 519.182a.908.908 0 00.961.165c.302-.144.355-.45.123-.682-.232-.232-.666-.306-.968-.162-.296.141-.348.447-.116.679zM831.322 516.78c-.315-.316-.525-.613-.558-.865-.03-.205.056-.39.334-.522.285-.136.554-.121.821-.029.335.108.663.349.979.664.315.316.525.613.552.868.03.205-.044.384-.329.52a1.057 1.057 0 01-.826.031c-.329-.111-.657-.352-.973-.667zm-.817.39c.385.385.838.724 1.409.911.552.175 1.175.186 1.774-.099.598-.285.804-.692.755-1.108-.05-.435-.343-.85-.728-1.235-.385-.386-.844-.722-1.415-.909a2.358 2.358 0 00-1.768.096c-.598.286-.804.692-.762 1.111.051.435.349.848.735 1.233zM835.303 514.881c-.316-.315-.526-.613-.558-.864-.031-.205.056-.39.334-.523.284-.136.554-.12.821-.028.335.107.663.348.978.664.316.315.526.613.553.867.03.205-.044.384-.329.52a1.057 1.057 0 01-.826.031c-.329-.11-.658-.351-.973-.667zm-.818.39c.386.385.838.724 1.41.911.552.175 1.175.187 1.773-.099.599-.285.804-.692.756-1.107-.05-.436-.343-.851-.728-1.236-.385-.385-.844-.722-1.416-.908a2.346 2.346 0 00-1.767.096c-.598.285-.804.692-.762 1.11.05.435.349.848.734 1.233z" fill="#6B7B9C"></path>
      <path d="M853.779 505.841l440.011-209.874.33.332-440.009 209.874-.332-.332z" fill="#EDF0F7"></path>
      <path d="M864.313 561.032l-3.012-3.012-.705.336c.239.353.094.785-.464 1.058l.432.432.924-.441 2.013 2.014.812-.387zM866.958 559.77l-3.012-3.011-.705.336c.239.352.094.785-.464 1.058l.431.431.924-.44 2.014 2.013.812-.387zM867.632 558.873a.906.906 0 00.961.165c.302-.144.355-.45.123-.682-.232-.232-.665-.306-.967-.162-.297.141-.349.447-.117.679zM869.219 556.471c-.315-.315-.525-.613-.558-.864-.03-.205.056-.39.334-.523.285-.136.554-.12.821-.028.335.107.663.348.979.664.315.315.525.612.552.867.03.205-.044.384-.328.52a1.06 1.06 0 01-.827.031c-.329-.11-.657-.351-.973-.667zm-.817.39c.385.385.838.724 1.409.911.552.175 1.176.186 1.774-.099.598-.285.804-.692.756-1.108-.051-.435-.344-.85-.729-1.235-.385-.385-.844-.722-1.415-.908a2.349 2.349 0 00-1.768.096c-.598.285-.804.692-.761 1.11.05.435.349.848.734 1.233zM873.2 554.572c-.315-.315-.525-.613-.558-.864-.03-.205.056-.39.334-.523.285-.136.554-.12.821-.028.335.107.663.348.979.664.315.315.525.613.552.867.03.205-.044.385-.329.52a1.057 1.057 0 01-.826.031c-.329-.11-.657-.351-.973-.667zm-.817.39c.385.385.838.724 1.409.911.552.176 1.175.187 1.774-.099.598-.285.804-.692.755-1.107-.05-.436-.343-.851-.728-1.236-.385-.385-.844-.722-1.415-.908-.546-.178-1.17-.19-1.768.096-.598.285-.804.692-.762 1.11.051.435.35.848.735 1.233z" fill="#6B7B9C"></path>
      <path d="M892.468 545.155l319.852-152.562.33.331L892.8 545.486l-.332-.331z" fill="#EDF0F7"></path>
      <path d="M903.425 600.144l-3.012-3.012-.705.336c.239.353.094.785-.464 1.058l.431.432.924-.441 2.014 2.014.812-.387zM903.409 597.424a1.143 1.143 0 01-.196-.153c-.284-.283-.3-.598.108-.793.385-.183.776-.082.994.137.209.208.236.428.064.737l-.337.599c-.362.653-.144 1.186.379 1.718l2.843-1.356-.552-.553-1.842.879c-.057-.144-.016-.287.058-.432l.387-.706c.247-.453.204-.899-.186-1.288-.524-.525-1.497-.719-2.356-.309-.894.426-.926 1.147-.397 1.676.075.075.185.159.239.195l.794-.351zM907.733 597.513a.906.906 0 00.961.165c.302-.144.355-.45.123-.682-.232-.232-.665-.306-.967-.162-.296.141-.349.447-.117.679zM909.32 595.111c-.315-.315-.525-.613-.558-.864-.03-.205.056-.39.335-.523.284-.136.553-.12.82-.028.335.107.663.348.979.664.315.315.525.613.552.867.03.205-.044.384-.328.52a1.06 1.06 0 01-.827.031c-.329-.11-.657-.351-.973-.667zm-.817.39c.385.385.838.724 1.41.911.551.176 1.175.187 1.773-.099.598-.285.804-.692.756-1.107-.051-.436-.343-.851-.729-1.236-.385-.385-.844-.722-1.415-.908a2.349 2.349 0 00-1.768.096c-.598.285-.804.692-.761 1.11.05.435.349.848.734 1.233zM913.301 593.212c-.315-.315-.525-.612-.558-.864-.03-.205.056-.39.334-.523.285-.136.554-.12.821-.028.335.108.663.348.979.664.315.316.525.613.552.867.03.205-.044.385-.328.52a1.06 1.06 0 01-.827.031c-.329-.11-.657-.351-.973-.667zm-.817.39c.385.386.838.725 1.409.911.552.176 1.175.187 1.774-.099.598-.285.804-.691.756-1.107-.051-.435-.344-.851-.729-1.236s-.844-.721-1.415-.908a2.358 2.358 0 00-1.768.096c-.598.285-.804.692-.762 1.11.051.436.35.848.735 1.233z" fill="#6B7B9C"></path>
      <path d="M932.003 584.065l440.007-209.874.34.331-440.015 209.874-.332-.331z" fill="#EDF0F7"></path>
      <path d="M942.536 639.256l-3.011-3.012-.705.336c.238.353.093.785-.465 1.058l.432.432.924-.441 2.014 2.014.811-.387zM943.245 636.944a.929.929 0 01.303-.213c.367-.175.79-.137 1.073.146.251.25.212.57-.196.765a1.133 1.133 0 01-1.228-.195l-.668.496c.554.483 1.553.678 2.448.252.93-.444.997-1.182.477-1.702-.552-.552-1.433-.646-2.032-.387l.345-1.125-.515-.515-2.719 1.297.552.552 1.683-.802-.33 1.158.807.273zM946.792 636.65a.908.908 0 00.962.165c.302-.144.354-.45.122-.682-.232-.232-.665-.306-.967-.162-.296.141-.349.447-.117.679zM948.38 634.248c-.316-.316-.526-.613-.559-.865-.03-.205.056-.39.335-.522.284-.136.553-.12.82-.029.335.108.664.349.979.664.316.316.526.613.553.868.03.205-.045.384-.329.52a1.057 1.057 0 01-.826.031c-.329-.111-.658-.351-.973-.667zm-.818.39c.385.385.838.724 1.41.911.551.175 1.175.186 1.773-.099.598-.285.804-.692.756-1.108-.05-.435-.343-.85-.728-1.235-.386-.386-.844-.722-1.416-.909a2.356 2.356 0 00-1.767.096c-.599.286-.804.692-.762 1.111.05.435.349.848.734 1.233zM952.36 632.349c-.315-.315-.525-.613-.558-.864-.03-.205.056-.39.335-.523.284-.136.553-.12.82-.028.335.107.663.348.979.664.316.315.525.613.552.867.03.205-.044.385-.328.52a1.06 1.06 0 01-.827.031c-.329-.11-.657-.351-.973-.667zm-.817.39c.385.385.838.724 1.41.911.551.176 1.175.187 1.773-.099.598-.285.804-.692.756-1.107-.05-.436-.343-.851-.729-1.236-.385-.385-.844-.722-1.415-.908a2.349 2.349 0 00-1.768.096c-.598.285-.804.692-.761 1.11.05.435.349.848.734 1.233z" fill="#6B7B9C"></path>
      <path d="M971.114 623.177l440.006-209.874.34.331-440.014 209.874-.332-.331z" fill="#EDF0F7"></path>
      <path d="M981.648 678.367l-3.012-3.011-.705.336c.239.352.094.785-.464 1.058l.431.431.924-.441 2.014 2.014.812-.387zM981.918 677.286l1.818-.868.645.645.806-.384-.645-.645.634-.302-.548-.548-.634.303-1.819-1.819-1.007.48.082 2.47.668.668zm1.271-1.415l-1.096.523-.055-1.674 1.151 1.151zM986.193 675.624a.908.908 0 00.961.165c.302-.144.355-.45.123-.682-.232-.232-.665-.307-.967-.163-.296.142-.349.448-.117.68zM987.78 673.222c-.315-.316-.525-.613-.558-.865-.03-.205.056-.39.335-.523.284-.135.553-.12.82-.028.335.108.664.349.979.664.316.316.526.613.553.867.03.205-.045.385-.329.52-.278.133-.56.123-.827.031-.329-.11-.657-.351-.973-.666zm-.817.389c.385.386.838.725 1.41.911.551.176 1.175.187 1.773-.098.598-.286.804-.692.756-1.108-.05-.435-.343-.851-.729-1.236-.385-.385-.843-.721-1.415-.908a2.356 2.356 0 00-1.767.096c-.599.285-.805.692-.762 1.11.05.436.349.848.734 1.233zM991.761 671.323c-.315-.316-.525-.613-.558-.865-.03-.205.056-.39.334-.523.285-.135.554-.12.821-.028.335.108.663.349.979.664.315.316.525.613.552.868.03.205-.044.384-.328.52-.279.132-.56.123-.827.031-.329-.111-.657-.352-.973-.667zm-.817.39c.385.385.838.724 1.409.911.552.175 1.176.186 1.774-.099.598-.286.804-.692.756-1.108-.051-.435-.344-.85-.729-1.236-.385-.385-.844-.721-1.415-.908a2.358 2.358 0 00-1.768.096c-.598.286-.804.692-.761 1.111.05.435.349.848.734 1.233z" fill="#6B7B9C"></path>
      <path d="M1010.23 662.288l440.01-209.874.33.332-440.01 209.874-.33-.332z" fill="#EDF0F7"></path>
      <path d="M1020.76 717.479l-3.01-3.011-.71.336c.24.352.1.784-.46 1.058l.43.431.92-.441 2.02 2.014.81-.387zM1020.86 716.182c.53.451 1.55.619 2.39.221.92-.441.98-1.191.42-1.752-.64-.645-1.55-.747-2.32-.38-.25.121-.46.316-.51.516l-.47-.754 1.61-.768-.55-.553-2.17 1.034 1.09 1.763c.1-.021.85-.143.95-.156.01-.171.12-.363.38-.487.36-.169.85-.162 1.19.181.3.302.2.633-.17.808-.41.195-.91.098-1.21-.172l-.63.499zM1025.04 714.86c.24.232.67.306.97.165.3-.144.35-.45.12-.682-.23-.232-.67-.307-.97-.163-.29.142-.35.448-.12.68zM1026.63 712.458c-.31-.316-.52-.613-.56-.865-.03-.205.06-.39.34-.523.28-.135.55-.12.82-.028.33.108.66.349.98.664.31.316.52.613.55.867.03.205-.04.385-.33.52-.28.133-.56.123-.82.031-.33-.11-.66-.351-.98-.666zm-.82.39c.39.385.84.724 1.41.91.56.176 1.18.187 1.78-.098.6-.286.8-.692.75-1.108-.05-.435-.34-.851-.72-1.236-.39-.385-.85-.721-1.42-.908-.55-.178-1.17-.189-1.77.096-.6.286-.8.692-.76 1.111.05.435.35.847.73 1.233zM1030.61 710.559c-.31-.316-.52-.613-.56-.865-.03-.205.06-.39.34-.522.28-.136.55-.121.82-.029.33.108.66.349.98.664.31.316.52.613.55.868.03.205-.04.384-.33.52-.28.133-.56.123-.82.031-.33-.111-.66-.352-.98-.667zm-.81.39c.38.385.83.724 1.41.911.55.175 1.17.186 1.77-.099.6-.285.8-.692.75-1.108-.05-.435-.34-.85-.72-1.236-.39-.385-.85-.721-1.42-.908-.55-.178-1.17-.189-1.77.096-.59.286-.8.692-.76 1.111.05.435.35.848.74 1.233z" fill="#6B7B9C"></path>
      <path d="M1049.34 701.4l440.01-209.874.33.332-440.01 209.874-.33-.332z" fill="#EDF0F7"></path>
      <path d="M819.103 468.041c-.366-.367-.284-.844.183-1.067l57.963-27.647c.468-.223 1.143-.107 1.509.259l34.803 34.803c.366.367.284.844-.183 1.067l-57.963 27.647c-.467.223-1.143.107-1.509-.259l-34.803-34.803z" fill="#CCF2FF"></path>
      <g opacity=".5" fill="#1A202C">
        <path d="M839.277 478.979l-2.147-2.148-.364.174c.168.262.072.553-.302.741l.228.229.664-.317 1.515 1.515.406-.194zM839.547 477.377a.715.715 0 01.208-.148c.271-.129.678-.147.96.134.215.216.194.495-.182.675a.992.992 0 01-1.074-.174l-.333.267c.377.339 1.061.492 1.696.19.639-.305.666-.803.305-1.164-.441-.441-1.097-.441-1.499-.249l.216-.94-.292-.292-1.862.888.299.298 1.311-.626-.225.969.472.172zM841.974 477.38a.48.48 0 00.521.089c.165-.079.196-.241.067-.37a.495.495 0 00-.528-.091c-.165.079-.189.242-.06.372zM842.537 475.838c-.328-.328-.484-.596-.455-.811.02-.137.102-.254.297-.347a.905.905 0 01.575-.069c.301.058.609.253.937.581.328.329.484.597.455.811-.02.137-.102.255-.297.348a.904.904 0 01-.575.068c-.301-.057-.609-.253-.937-.581zm-.41.196c.295.295.63.536 1.024.662.386.124.797.129 1.187-.057.389-.186.528-.453.497-.746-.03-.299-.239-.601-.534-.896-.295-.295-.63-.537-1.024-.662-.387-.124-.797-.129-1.187.057-.389.185-.528.452-.497.746.03.299.239.601.534.896zM845.115 474.608c-.328-.328-.484-.596-.455-.811.02-.136.102-.254.297-.347a.898.898 0 01.575-.068c.301.057.609.252.937.581.328.328.484.596.455.811-.02.136-.102.254-.297.347a.897.897 0 01-.575.068c-.3-.057-.609-.252-.937-.581zm-.41.196c.295.295.63.537 1.024.662.387.124.798.129 1.187-.057s.528-.453.497-.746c-.03-.299-.239-.601-.534-.896-.295-.295-.63-.537-1.024-.662-.386-.124-.797-.129-1.186.057-.39.186-.529.453-.498.746.03.299.239.601.534.896zM849.535 472.882l-.272-.271-1.147.546.272.272 1.147-.547zM852.565 472.641l-2.148-2.148-.364.174c.169.262.072.553-.302.741l.229.229.664-.317 1.515 1.515.406-.194zM852.445 471.837c.376.32 1.068.43 1.652.152.609-.291.679-.809.274-1.213a1.441 1.441 0 00-1.643-.269c-.216.103-.383.261-.4.426l-.413-.714 1.172-.558-.298-.299-1.447.69.712 1.237c.179-.027.345-.042.532-.068.022-.152.149-.301.343-.394.318-.151.742-.133 1.037.162.265.265.172.559-.154.715a.993.993 0 01-1.062-.15l-.305.283zM855.241 471.052a.48.48 0 00.521.089c.165-.079.196-.241.067-.37a.495.495 0 00-.528-.091c-.165.079-.189.242-.06.372zM855.804 469.51c-.328-.328-.484-.596-.455-.811.02-.137.102-.254.297-.347a.905.905 0 01.575-.069c.301.058.609.253.937.581.328.329.484.597.455.811-.02.137-.102.255-.297.348a.904.904 0 01-.575.068c-.301-.057-.609-.253-.937-.581zm-.41.196c.295.295.63.536 1.024.662.386.124.797.129 1.187-.057.389-.186.528-.453.497-.746-.03-.299-.239-.601-.534-.896-.295-.295-.63-.537-1.024-.662-.387-.124-.797-.129-1.187.057-.389.185-.528.452-.497.746.03.299.239.601.534.896zM858.382 468.28c-.328-.328-.484-.596-.455-.811.02-.136.102-.254.297-.347a.897.897 0 01.575-.068c.301.057.609.252.937.581.328.328.484.596.455.811-.02.136-.102.254-.297.347a.897.897 0 01-.575.068c-.301-.057-.609-.252-.937-.581zm-.41.196c.295.295.63.537 1.024.662.387.124.797.129 1.187-.057.389-.186.528-.453.497-.746-.03-.299-.239-.601-.534-.896-.295-.295-.63-.537-1.024-.662-.386-.124-.797-.129-1.187.057-.389.186-.528.453-.497.746.03.299.239.601.534.896z"></path>
      </g>
      <g opacity=".75" fill="#1A202C">
        <path d="M836.562 471.462l-2.82-2.82-.954.456.98 2.54-3.118-1.521-.924.441 2.82 2.82.67-.32-1.96-1.961 2.996 1.467.584-.278-.941-2.471 1.977 1.977.69-.33zM837.577 470.226l-1.802-1.801.564-.269c.589-.281 1.366-.223 1.979.389.612.613.406 1.134-.183 1.415l-.558.266zm1.093.231c1.025-.489 1.265-1.367.374-2.258a2.785 2.785 0 00-3.189-.564l-1.29.615 2.82 2.82 1.285-.613zM842.293 468.729l-2.581-2.582-.605.289c.205.302.081.672-.398.906l.37.37.792-.378 1.726 1.727.696-.332z"></path>
      </g>
      <path d="M818.44 467.378l59.655-28.454.663.662-59.655 28.455-.663-.663z" fill="#00BFFF"></path>
      <path d="M975.127 624.69c-.366-.366-.284-.844.183-1.067l58.39-27.848c.46-.223 1.14-.107 1.51.259l73.91 73.915c.37.366.28.843-.18 1.066l-58.39 27.849c-.47.223-1.14.107-1.51-.259l-73.913-73.915z" fill="#FFD9CC"></path>
      <g opacity=".5" fill="#1A202C">
        <path d="M995.302 635.628l-2.148-2.148-.364.174c.168.262.072.553-.302.741l.228.229.665-.317 1.514 1.515.407-.194zM995.571 634.026a.729.729 0 01.208-.148c.271-.129.678-.147.96.135.215.215.194.494-.182.674a.99.99 0 01-1.073-.174l-.334.267c.377.339 1.061.493 1.696.19.639-.305.666-.803.305-1.164-.441-.441-1.097-.441-1.499-.249l.216-.94-.292-.292-1.862.888.299.298 1.311-.625-.224.968.471.172zM997.998 634.029a.48.48 0 00.521.089c.165-.079.197-.241.067-.37a.495.495 0 00-.528-.091c-.165.079-.189.242-.06.372zM998.561 632.487c-.328-.328-.484-.596-.455-.811.02-.136.102-.254.297-.347a.897.897 0 01.575-.068c.301.057.609.252.937.581.325.328.485.596.455.811-.02.136-.1.254-.3.347a.886.886 0 01-.572.068c-.3-.057-.609-.253-.937-.581zm-.41.196c.295.295.63.537 1.024.662.387.124.798.129 1.185-.057.39-.186.53-.453.5-.746-.03-.299-.24-.601-.53-.896-.3-.295-.635-.537-1.029-.662-.386-.124-.797-.129-1.187.057-.389.185-.528.453-.497.746.03.299.239.601.534.896zM1001.14 631.258c-.33-.329-.48-.597-.46-.812.02-.136.11-.254.3-.347.2-.092.38-.104.58-.068.3.057.61.253.93.581.33.328.49.596.46.811-.02.137-.1.254-.3.347a.888.888 0 01-.57.069c-.3-.058-.61-.253-.94-.581zm-.41.195c.29.295.63.537 1.02.662.39.124.8.129 1.19-.057.39-.185.53-.452.5-.746-.03-.299-.24-.601-.54-.896-.29-.295-.63-.536-1.02-.662-.39-.124-.8-.129-1.19.057-.39.186-.53.453-.49.746.03.299.23.601.53.896zM1005.56 629.531l-.27-.271-1.15.547.27.271 1.15-.547zM1008.59 629.29l-2.15-2.147-.36.173c.17.262.07.553-.3.741l.22.229.67-.317 1.51 1.515.41-.194zM1008.47 628.486c.38.32 1.07.431 1.65.152.61-.291.68-.808.28-1.213a1.451 1.451 0 00-1.65-.268c-.21.102-.38.26-.4.425l-.41-.713 1.17-.559-.3-.299-1.44.691.71 1.236c.18-.026.34-.042.53-.067.02-.153.15-.302.34-.394a.913.913 0 011.04.161c.27.265.17.56-.15.715-.35.163-.78.104-1.07-.15l-.3.283zM1011.27 627.701c.12.129.35.168.52.089.16-.079.19-.241.06-.37a.497.497 0 00-.53-.091c-.16.079-.18.242-.05.372zM1011.83 626.159c-.33-.328-.49-.596-.46-.811.02-.136.11-.254.3-.347a.881.881 0 01.57-.068c.31.057.61.252.94.581.33.328.49.596.46.811-.02.136-.11.254-.3.347a.881.881 0 01-.57.068c-.31-.057-.61-.253-.94-.581zm-.41.196c.29.295.63.537 1.02.662.39.124.8.129 1.19-.057.39-.186.53-.453.5-.746-.03-.299-.24-.601-.54-.896-.29-.295-.63-.537-1.02-.662-.39-.124-.8-.129-1.19.057-.39.185-.53.453-.5.746.03.299.24.601.54.896zM1014.41 624.93c-.33-.329-.49-.597-.46-.812.02-.136.1-.254.3-.347a.888.888 0 01.57-.068c.3.057.61.253.94.581.33.328.48.596.46.811-.02.137-.11.254-.3.347a.918.918 0 01-.58.069c-.3-.058-.61-.253-.93-.581zm-.41.195c.29.295.63.537 1.02.662.39.124.8.129 1.19-.057.39-.185.53-.452.49-.746-.03-.299-.23-.601-.53-.896-.29-.295-.63-.536-1.02-.662-.39-.124-.8-.129-1.19.057-.39.186-.53.453-.5.746.03.299.24.601.54.896z"></path>
      </g>
      <g opacity=".75" fill="#1A202C">
        <path d="M992.586 628.111l-2.82-2.82-.954.455.98 2.541-3.117-1.521-.925.441 2.821 2.82.67-.32-1.961-1.961 2.996 1.467.584-.278-.941-2.471 1.977 1.977.69-.33zM993.601 626.875l-1.802-1.801.564-.269c.589-.281 1.367-.223 1.979.389.613.613.407 1.134-.182 1.415l-.559.266zm1.093.231c1.026-.489 1.265-1.367.374-2.258a2.787 2.787 0 00-3.189-.565l-1.289.616 2.82 2.82 1.284-.613zM995.968 624.16a.942.942 0 01-.169-.131c-.243-.242-.257-.512.093-.679.33-.157.665-.07.852.117.179.179.202.368.054.632l-.288.514c-.311.559-.124 1.016.325 1.472l2.437-1.162-.474-.474-1.579.753c-.048-.123-.013-.246.05-.37l.332-.605c.212-.389.175-.77-.159-1.105-.45-.449-1.284-.615-2.02-.264-.766.365-.793.983-.34 1.437.064.063.159.136.205.167l.681-.302z"></path>
      </g>
      <path d="M974.464 624.027l60.076-28.656.67.663-60.083 28.656-.663-.663z" fill="#FF6533"></path>
      <path d="M921.678 476.882c-.366-.366-.284-.844.183-1.066l58.386-27.849c.467-.223 1.143-.107 1.509.259l73.914 73.915c.37.366.29.844-.18 1.066l-58.388 27.849c-.468.223-1.143.107-1.509-.259l-73.915-73.915z" fill="#FFF2CC"></path>
      <g opacity=".5" fill="#1A202C">
        <path d="M941.852 487.821l-2.148-2.148-.364.173c.169.263.072.554-.302.742l.229.228.664-.316 1.515 1.514.406-.193zM941.736 486.29c-.328-.328-.484-.597-.455-.811.02-.137.102-.254.297-.347a.898.898 0 01.575-.069c.301.057.609.253.937.581.328.328.484.597.455.811-.02.137-.102.254-.297.347a.898.898 0 01-.575.069c-.3-.057-.609-.253-.937-.581zm-.41.196c.295.295.63.536 1.024.661.387.125.798.129 1.187-.056.389-.186.528-.453.497-.747-.03-.299-.239-.601-.534-.896-.295-.295-.63-.536-1.024-.662-.386-.124-.797-.128-1.187.057-.389.186-.528.453-.497.747.03.299.239.601.534.896zM944.702 486.148a.48.48 0 00.52.09c.165-.079.197-.241.068-.37a.491.491 0 00-.528-.091c-.165.079-.19.242-.06.371zM945.265 484.607c-.328-.328-.484-.597-.455-.811.019-.137.102-.254.296-.347a.899.899 0 01.575-.069c.301.057.609.253.938.581.328.328.484.597.454.811-.019.137-.102.254-.296.347a.899.899 0 01-.575.069c-.301-.057-.609-.253-.937-.581zm-.411.196c.295.295.631.536 1.025.661.386.125.797.129 1.186-.056.389-.186.529-.453.497-.747-.03-.299-.238-.601-.533-.896-.295-.295-.63-.536-1.024-.662-.387-.124-.798-.128-1.187.057-.389.186-.528.453-.497.747.03.299.238.601.533.896zM947.843 483.377c-.328-.328-.484-.596-.455-.811.02-.137.102-.254.296-.347a.906.906 0 01.575-.069c.301.058.61.253.938.581.328.329.484.597.455.811-.02.137-.102.255-.297.348a.905.905 0 01-.575.068c-.301-.057-.609-.253-.937-.581zm-.411.196c.295.295.631.536 1.025.662.386.124.797.129 1.186-.057.39-.186.529-.453.498-.746-.031-.299-.239-.601-.534-.896-.295-.295-.63-.537-1.024-.662-.387-.124-.798-.129-1.187.057-.389.185-.528.452-.497.746.03.299.238.601.533.896zM952.262 481.651l-.272-.272-1.146.547.272.272 1.146-.547zM955.293 481.41l-2.148-2.148-.364.174c.168.262.072.553-.302.741l.228.229.665-.317 1.514 1.515.407-.194zM954.85 479.59c-.038-.032-.075-.063-.105-.093-.245-.245-.272-.521.088-.693a.787.787 0 01.894.132c.166.166.2.375.071.627l-.225.45c-.23.457-.139.811.204 1.166l1.92-.916-.301-.302-1.409.672c-.095-.151-.044-.307.033-.461l.269-.53c.158-.305.135-.627-.146-.909-.358-.358-.998-.498-1.587-.218-.6.287-.619.78-.251 1.148.026.027.056.057.09.085l.455-.158zM957.952 479.828a.483.483 0 00.521.09c.165-.079.196-.241.067-.37a.491.491 0 00-.528-.091c-.165.079-.189.242-.06.371zM958.515 478.287c-.328-.328-.484-.597-.455-.811.02-.137.102-.255.297-.347a.898.898 0 01.575-.069c.301.057.609.253.937.581.328.328.484.596.455.811-.02.137-.102.254-.297.347a.898.898 0 01-.575.069c-.301-.057-.609-.253-.937-.581zm-.41.196c.295.295.63.536 1.024.661.386.124.797.129 1.187-.056.389-.186.528-.453.497-.747-.03-.299-.239-.601-.534-.896-.295-.295-.63-.536-1.024-.662-.387-.124-.797-.128-1.187.057-.389.186-.528.453-.497.747.03.298.239.601.534.896zM961.093 477.057c-.328-.328-.484-.596-.455-.811.02-.137.102-.254.297-.347a.898.898 0 01.575-.069c.301.057.609.253.937.581.328.328.484.597.455.811-.02.137-.102.255-.297.347a.898.898 0 01-.575.069c-.3-.057-.609-.253-.937-.581zm-.41.196c.295.295.63.536 1.024.662.387.124.798.128 1.187-.057.389-.186.528-.453.497-.747-.03-.298-.239-.6-.534-.895-.295-.295-.63-.537-1.024-.662-.386-.124-.797-.129-1.187.056-.389.186-.528.453-.497.747.03.299.239.601.534.896z"></path>
      </g>
      <g opacity=".75" fill="#1A202C">
        <path d="M935.472 478.656l-.521-.521-2.98 1.422.521.521 1.137-.543 2.299 2.299.706-.336-2.299-2.299 1.137-.543zM938.456 479.877l-1.802-1.802.564-.269c.589-.281 1.366-.223 1.979.39.613.612.406 1.133-.182 1.414l-.559.267zm1.093.23c1.026-.489 1.265-1.367.374-2.258a2.787 2.787 0 00-3.189-.564l-1.29.615 2.821 2.82 1.284-.613zM943.172 478.379l-2.581-2.581-.604.288c.204.302.08.673-.399.907l.37.37.792-.378 1.727 1.726.695-.332z"></path>
      </g>
      <path d="M921.015 476.219l60.078-28.656.663.663-60.078 28.656-.663-.663z" fill="#FC3"></path>
      <path d="M1113.34 385.466c-.37-.366-.29-.844.18-1.067l58.39-27.848c.46-.223 1.14-.107 1.5.259l73.92 73.915c.37.366.28.843-.18 1.066l-58.39 27.849c-.47.223-1.14.107-1.51-.26l-73.91-73.914z" fill="#CCF2FF"></path>
      <g opacity=".5" fill="#1A202C">
        <path d="M1133.51 396.404l-2.15-2.148-.36.174c.17.262.07.553-.3.741l.23.229.66-.317 1.51 1.515.41-.194zM1133.39 394.873c-.32-.328-.48-.596-.45-.811.02-.136.1-.254.3-.347a.881.881 0 01.57-.068c.3.057.61.252.94.581.33.328.48.596.45.811-.02.136-.1.254-.29.347a.918.918 0 01-.58.068c-.3-.057-.61-.252-.94-.581zm-.41.196c.3.295.63.537 1.03.662.39.124.8.129 1.19-.057.38-.186.52-.453.49-.746-.03-.299-.24-.601-.53-.896-.3-.295-.63-.537-1.03-.662a1.562 1.562 0 00-1.18.057c-.39.185-.53.453-.5.746.03.299.24.601.53.896zM1136.36 394.732c.13.129.36.168.52.089.17-.078.2-.24.07-.37a.5.5 0 00-.53-.091c-.17.079-.19.242-.06.372zM1136.92 393.19c-.33-.328-.48-.596-.45-.811.02-.136.1-.254.29-.347.2-.093.39-.104.58-.068.3.057.61.252.94.581.33.328.48.596.45.811-.02.136-.1.254-.29.347a.918.918 0 01-.58.068c-.3-.057-.61-.252-.94-.581zm-.41.196c.3.295.63.537 1.03.662.38.124.79.129 1.18-.057.39-.186.53-.453.5-.746-.03-.299-.24-.601-.53-.896-.3-.295-.63-.537-1.03-.662a1.562 1.562 0 00-1.18.057c-.39.185-.53.453-.5.746.03.299.24.601.53.896zM1139.5 391.961c-.33-.329-.48-.597-.45-.811.02-.137.1-.255.29-.348.2-.092.39-.104.58-.068.3.057.61.253.94.581.32.328.48.596.45.811-.02.137-.1.254-.3.347a.888.888 0 01-.57.069c-.3-.058-.61-.253-.94-.581zm-.41.195c.3.295.63.537 1.03.662.38.124.79.129 1.18-.057.39-.185.53-.452.5-.746-.03-.299-.24-.601-.53-.896-.3-.295-.63-.536-1.03-.662-.39-.124-.8-.129-1.19.057-.38.186-.52.453-.49.746.03.299.24.601.53.896zM1143.92 390.235l-.27-.272-1.15.547.27.271 1.15-.546zM1146.95 389.993l-2.15-2.147-.36.173c.17.262.07.553-.3.742l.23.228.66-.317 1.51 1.515.41-.194zM1146.51 388.173c-.04-.031-.08-.062-.11-.092-.24-.245-.27-.522.09-.693.35-.166.7-.064.9.132.16.165.2.374.07.627l-.23.45c-.23.457-.14.81.21 1.166l1.92-.917-.31-.301-1.4.672c-.1-.151-.05-.307.03-.461l.27-.53c.16-.306.13-.628-.15-.91-.36-.358-1-.498-1.59-.217-.6.286-.61.78-.25 1.148.03.026.06.056.09.084l.46-.158zM1149.61 388.412c.13.129.36.168.52.089.17-.079.2-.241.07-.37a.497.497 0 00-.53-.091c-.16.079-.19.242-.06.372zM1150.17 386.87c-.32-.328-.48-.596-.45-.811.02-.136.1-.254.3-.347a.888.888 0 01.57-.069c.3.058.61.253.94.581.33.329.48.597.45.812-.02.136-.1.254-.29.347a.925.925 0 01-.58.068c-.3-.057-.61-.253-.94-.581zm-.41.196c.3.295.63.537 1.03.662.38.124.79.129 1.18-.057.39-.186.53-.453.5-.746-.03-.299-.24-.601-.53-.896-.3-.295-.63-.537-1.03-.662a1.562 1.562 0 00-1.18.057c-.39.185-.53.452-.5.746.03.299.24.601.53.896zM1152.75 385.641c-.33-.329-.48-.597-.45-.812.02-.136.1-.254.29-.347.2-.092.39-.104.58-.068.3.057.61.253.94.581.32.328.48.596.45.811-.02.136-.1.254-.3.347a.888.888 0 01-.57.069c-.3-.058-.61-.253-.94-.581zm-.41.195c.3.295.63.537 1.03.662.38.124.79.129 1.18-.057.39-.185.53-.452.5-.746-.03-.299-.24-.601-.53-.896-.3-.295-.63-.537-1.03-.662-.38-.124-.8-.129-1.19.057-.38.186-.52.453-.49.746.03.299.24.601.53.896z"></path>
      </g>
      <g opacity=".75" fill="#1A202C">
        <path d="M1127.49 390.466l-1.1-1.098 1.39-.666-.5-.505-1.4.669-.7-.696 1.57-.751-.52-.521-2.27 1.085 2.82 2.82.71-.337zM1129.82 388.6l-1.8-1.802.56-.269c.59-.281 1.37-.223 1.98.39.62.612.41 1.133-.18 1.414l-.56.267zm1.09.23c1.03-.489 1.27-1.367.38-2.258a2.787 2.787 0 00-3.19-.564l-1.29.615 2.82 2.82 1.28-.613zM1134.54 387.102l-2.58-2.581-.61.288c.21.302.08.673-.4.907l.37.369.8-.377 1.72 1.726.7-.332z"></path>
      </g>
      <path d="M1112.67 384.803l60.08-28.656.66.663-60.07 28.656-.67-.663z" fill="#00BFFF"></path>
      <path d="M1102.9 563.746c-.37-.367-.28-.844.18-1.067l58.39-27.849c.47-.223 1.14-.106 1.51.26l34.8 34.803c.37.366.28.843-.18 1.066l-58.39 27.849c-.47.223-1.14.107-1.51-.26l-34.8-34.802z" fill="#CDF"></path>
      <g opacity=".5" fill="#1A202C">
        <path d="M1123.07 574.684l-2.14-2.148-.37.174c.17.262.07.553-.3.741l.23.229.66-.317 1.52 1.515.4-.194zM1123.34 573.082a.962.962 0 01.21-.148c.27-.129.68-.147.96.134.22.216.2.495-.18.675a.985.985 0 01-1.07-.174l-.34.267c.38.339 1.06.492 1.7.19.64-.305.66-.803.3-1.164-.44-.441-1.09-.441-1.5-.249l.22-.94-.29-.292-1.86.888.29.298 1.32-.626-.23.969.47.172zM1125.77 573.085c.13.129.36.168.52.089.17-.079.2-.241.07-.37a.497.497 0 00-.53-.091c-.16.079-.19.242-.06.372zM1126.33 571.543c-.32-.328-.48-.596-.45-.811.02-.137.1-.254.29-.347.2-.093.39-.104.58-.069.3.058.61.253.94.581.33.329.48.597.45.811-.02.137-.1.255-.29.348a.925.925 0 01-.58.068c-.3-.057-.61-.253-.94-.581zm-.41.196c.3.295.63.536 1.03.662.38.124.79.129 1.18-.057.39-.186.53-.453.5-.746-.03-.299-.24-.601-.53-.896-.3-.295-.63-.537-1.03-.662a1.562 1.562 0 00-1.18.057c-.39.185-.53.452-.5.746.03.299.24.601.53.896zM1128.91 570.313c-.33-.328-.48-.596-.45-.811.02-.136.1-.254.29-.347.2-.093.39-.104.58-.068.3.057.61.252.94.581.32.328.48.596.45.811-.02.136-.1.254-.3.347a.881.881 0 01-.57.068c-.3-.057-.61-.252-.94-.581zm-.41.196c.3.295.63.537 1.03.662.38.124.79.129 1.18-.057.39-.186.53-.453.5-.746-.03-.299-.24-.601-.53-.896-.3-.295-.63-.537-1.03-.662-.39-.124-.8-.129-1.19.057-.38.186-.52.453-.49.746.03.299.24.601.53.896zM1133.33 568.587l-.27-.271-1.15.546.27.272 1.15-.547zM1136.36 568.346l-2.15-2.148-.36.174c.17.262.07.553-.3.741l.23.229.66-.317 1.52 1.515.4-.194zM1136.34 567.641l1.35-.642.48.484.4-.191-.48-.484.47-.224-.3-.302-.47.224-1.37-1.362-.57.272.12 1.851.37.374zm1.04-.943l-.96.46-.09-1.511 1.05 1.051zM1139.19 566.684c.13.129.36.168.52.089.17-.079.2-.241.07-.37a.5.5 0 00-.53-.091c-.17.079-.19.242-.06.372zM1139.75 565.142c-.33-.328-.48-.596-.45-.811.02-.136.1-.254.29-.347.2-.093.39-.104.58-.069.3.058.61.253.94.581.33.329.48.597.45.812-.02.136-.1.254-.29.347a.925.925 0 01-.58.068c-.3-.057-.61-.253-.94-.581zm-.41.196c.3.295.63.536 1.03.662.38.124.79.129 1.18-.057.39-.186.53-.453.5-.746-.03-.299-.24-.601-.53-.896-.3-.295-.63-.537-1.03-.662a1.562 1.562 0 00-1.18.057c-.39.185-.53.452-.5.746.03.299.24.601.53.896zM1142.33 563.912c-.33-.328-.48-.596-.45-.811.02-.136.1-.254.29-.347.2-.092.39-.104.58-.068.3.057.61.253.94.581.32.328.48.596.45.811-.02.136-.1.254-.3.347a.888.888 0 01-.57.069c-.3-.058-.61-.253-.94-.582zm-.41.196c.3.295.63.537 1.03.662.38.124.79.129 1.18-.057.39-.185.53-.452.5-.746-.03-.299-.24-.601-.53-.896-.3-.295-.63-.537-1.03-.662-.39-.124-.8-.129-1.19.057-.38.186-.52.453-.49.746.03.299.24.601.53.896z"></path>
      </g>
      <g opacity=".75" fill="#1A202C">
        <path d="M1118.85 566.601l-2.75-1.566-.73.346 1.14 2.321-2.6-1.626-.74.354 3.82 2.343.73-.349-1.18-2.401 2.83 1.616.72-.343-1.83-3.295-.71.341 1.3 2.259zM1121.75 565.752l-1.8-1.802.56-.269c.59-.281 1.37-.223 1.98.389.61.613.41 1.134-.18 1.415l-.56.267zm1.09.23c1.03-.489 1.27-1.367.38-2.258a2.79 2.79 0 00-3.19-.564l-1.29.615 2.82 2.82 1.28-.613zM1126.47 564.254l-2.59-2.581-.6.288c.2.302.08.672-.4.906l.37.37.79-.377 1.73 1.726.7-.332z"></path>
      </g>
      <path d="M1102.24 563.083l60.07-28.656.67.663-60.08 28.656-.66-.663z" fill="#37F"></path>
      <path d="M1127.67 494.162c-.36-.367-.28-.844.19-1.067l58.38-27.849c.47-.223 1.15-.106 1.51.26l34.8 34.803c.37.366.29.843-.18 1.066l-58.38 27.849c-.47.223-1.15.107-1.51-.26l-34.81-34.802z" fill="#FFD9CC"></path>
      <g opacity=".5" fill="#1A202C">
        <path d="M1147.85 505.1l-2.15-2.148-.36.174c.16.262.07.553-.31.741l.23.229.67-.317 1.51 1.515.41-.194zM1147.41 503.28a1.402 1.402 0 01-.11-.092c-.24-.246-.27-.522.09-.693.35-.166.7-.064.89.131.17.166.2.375.07.627l-.22.45c-.23.458-.14.811.2 1.166l1.92-.916-.3-.302-1.41.672c-.09-.15-.04-.306.04-.461l.26-.53c.16-.305.14-.627-.14-.909-.36-.358-1-.498-1.59-.218-.6.287-.62.781-.25 1.149.03.026.06.056.09.084l.46-.158zM1150.51 503.518c.13.13.35.169.52.09.16-.079.19-.241.07-.37a.498.498 0 00-.53-.091c-.17.079-.19.242-.06.371zM1151.07 501.977c-.33-.328-.48-.597-.45-.811.02-.137.1-.254.29-.347.2-.093.39-.105.58-.069.3.057.61.253.93.581.33.328.49.597.46.811-.02.137-.1.255-.3.347a.882.882 0 01-.57.069c-.3-.057-.61-.253-.94-.581zm-.41.196c.3.295.63.536 1.02.662.39.124.8.128 1.19-.057.39-.186.53-.453.5-.747-.03-.298-.24-.601-.54-.896-.29-.295-.63-.536-1.02-.662-.39-.124-.8-.128-1.19.057-.39.186-.52.453-.49.747.03.299.24.601.53.896zM1153.65 500.747c-.33-.328-.49-.596-.46-.811.02-.137.11-.254.3-.347.2-.093.38-.104.58-.069.3.058.6.253.93.581.33.329.49.597.46.812-.02.136-.1.254-.3.347a.888.888 0 01-.57.068c-.3-.057-.61-.253-.94-.581zm-.41.196c.29.295.63.536 1.02.662.39.124.8.129 1.19-.057.39-.186.53-.453.5-.746-.03-.299-.24-.601-.54-.896-.29-.295-.63-.537-1.02-.662-.39-.124-.8-.129-1.19.057-.39.185-.53.452-.5.746.04.299.24.601.54.896zM1158.07 499.021l-.27-.272-1.15.547.27.272 1.15-.547zM1161.1 498.78l-2.15-2.148-.36.174c.17.262.07.553-.31.741l.23.229.67-.317 1.51 1.515.41-.194zM1161.37 497.178a.641.641 0 01.21-.148c.27-.129.67-.147.96.134.21.216.19.495-.19.675a.985.985 0 01-1.07-.174l-.33.267c.37.339 1.06.492 1.69.19.64-.305.67-.803.31-1.164-.44-.441-1.1-.441-1.5-.249l.21-.941-.29-.291-1.86.888.3.298 1.31-.626-.22.969.47.172zM1163.8 497.181c.12.129.35.168.52.089.16-.079.19-.241.06-.37a.483.483 0 00-.52-.091c-.17.079-.19.242-.06.372zM1164.36 495.639c-.33-.328-.49-.596-.46-.811.02-.137.11-.254.3-.347a.888.888 0 01.57-.069c.31.057.61.253.94.581.33.328.49.597.46.811-.02.137-.1.255-.3.348a.888.888 0 01-.57.068c-.31-.057-.61-.253-.94-.581zm-.41.196c.29.295.63.536 1.02.662.39.124.8.129 1.19-.057.39-.186.53-.453.5-.746-.03-.299-.24-.601-.54-.896-.29-.295-.63-.537-1.02-.662-.39-.124-.8-.129-1.19.057-.39.185-.53.452-.5.746.03.299.24.601.54.896zM1166.94 494.409c-.33-.328-.49-.596-.46-.811.02-.136.1-.254.3-.347a.881.881 0 01.57-.068c.3.057.61.252.94.581.33.328.48.596.46.811-.02.136-.11.254-.3.347a.91.91 0 01-.58.068c-.3-.057-.61-.252-.93-.581zm-.41.196c.29.295.63.537 1.02.662.39.124.8.129 1.19-.057.39-.185.53-.453.49-.746-.03-.299-.23-.601-.53-.896-.29-.295-.63-.537-1.02-.662-.39-.124-.8-.129-1.19.057-.39.185-.53.453-.5.746.03.299.24.601.54.896z"></path>
      </g>
      <g opacity=".75" fill="#1A202C">
        <path d="M1141.47 495.936l-.52-.521-2.98 1.421.52.521 1.14-.542 2.29 2.299.71-.337-2.3-2.299 1.14-.542zM1144.45 497.156l-1.8-1.802.56-.269c.59-.28 1.37-.223 1.98.39.62.613.41 1.134-.18 1.415l-.56.266zm1.09.231c1.03-.489 1.27-1.367.38-2.258a2.787 2.787 0 00-3.19-.565l-1.29.615 2.82 2.82 1.28-.612zM1146.82 494.441a.987.987 0 01-.17-.131c-.24-.243-.26-.512.09-.679.33-.157.67-.07.85.117.18.179.21.367.06.632l-.29.513c-.31.56-.12 1.017.33 1.473l2.43-1.163-.47-.473-1.58.753c-.05-.124-.01-.246.05-.37l.33-.605c.21-.389.18-.771-.16-1.105-.45-.449-1.28-.616-2.02-.264-.76.365-.79.983-.34 1.437.07.063.16.136.21.167l.68-.302z"></path>
      </g>
      <path d="M1127.01 493.499l60.08-28.656.66.663-60.08 28.656-.66-.663z" fill="#FF6533"></path>
      <path d="M1010.34 376.826c-.37-.366-.29-.843.18-1.066l58.39-27.849c.46-.223 1.14-.107 1.51.259l34.8 34.803c.37.366.28.844-.18 1.067l-58.39 27.848c-.47.223-1.14.107-1.51-.259l-34.8-34.803z" fill="#CDF"></path>
      <g opacity=".5" fill="#1A202C">
        <path d="M1028.88 386.955c-.32-.328-.48-.597-.45-.811.02-.137.1-.254.3-.347a.882.882 0 01.57-.069c.3.057.61.253.94.581.33.328.48.597.45.811-.02.137-.1.254-.29.347a.919.919 0 01-.58.069c-.3-.057-.61-.253-.94-.581zm-.41.196c.3.295.63.536 1.03.662.38.124.8.128 1.18-.057.39-.186.53-.453.5-.747-.03-.299-.24-.601-.53-.896-.3-.295-.63-.536-1.03-.661a1.567 1.567 0 00-1.18.056c-.39.186-.53.453-.5.747.03.299.24.601.53.896zM1032.1 386.895c.21.008.55-.076.76-.177.92-.44.9-1.125.11-1.913-.68-.687-1.51-.736-2.05-.48-.54.257-.71.781-.27 1.225.47.474 1.2.5 1.67.274.38-.178.48-.425.44-.614.4.429.47.899-.19 1.216-.18.085-.43.135-.6.136l.13.333zm.15-2.116c.28.285.16.591-.14.736-.32.15-.76.12-1.05-.171-.28-.282-.16-.588.14-.734.3-.143.77-.11 1.05.169zM1034.31 385.641c.13.129.35.168.52.089.16-.079.2-.241.07-.37a.5.5 0 00-.53-.091c-.17.079-.19.242-.06.372zM1034.87 384.099c-.33-.328-.48-.596-.45-.811.02-.136.1-.254.29-.347.2-.093.39-.104.58-.068.3.057.61.252.93.581.33.328.49.596.46.811-.02.136-.1.254-.3.347a.881.881 0 01-.57.068c-.3-.057-.61-.253-.94-.581zm-.41.196c.3.295.63.537 1.02.662.39.124.8.129 1.19-.057.39-.186.53-.453.5-.746-.03-.299-.24-.601-.53-.896-.3-.295-.63-.537-1.03-.662-.39-.124-.8-.129-1.19.057-.38.186-.52.453-.49.746.03.299.24.601.53.896zM1037.45 382.87c-.33-.329-.48-.597-.46-.811.02-.137.11-.255.3-.348.2-.092.38-.104.58-.068.3.057.6.253.93.581.33.328.49.596.46.811-.02.137-.1.254-.3.347a.888.888 0 01-.57.069c-.3-.058-.61-.253-.94-.581zm-.41.195c.29.295.63.537 1.02.662.39.124.8.129 1.19-.057.39-.185.53-.452.5-.746-.03-.299-.24-.601-.54-.896-.29-.295-.63-.536-1.02-.662-.39-.124-.8-.129-1.19.057-.39.186-.53.453-.49.746.03.299.23.601.53.896zM1041.87 381.144l-.27-.272-1.15.547.27.271 1.15-.546zM1044.9 380.902l-2.15-2.147-.36.173c.17.262.07.553-.3.742l.22.228.67-.317 1.51 1.515.41-.194zM1044.78 379.372c-.33-.329-.48-.597-.45-.811.02-.137.1-.255.29-.348.2-.092.39-.104.58-.068.3.057.61.253.94.581.33.328.48.596.45.811-.02.137-.1.254-.29.347a.926.926 0 01-.58.069c-.3-.058-.61-.253-.94-.581zm-.41.195c.3.295.63.537 1.03.662.38.124.79.129 1.18-.057.39-.185.53-.452.5-.746-.03-.299-.24-.601-.53-.896-.3-.295-.63-.536-1.03-.662a1.562 1.562 0 00-1.18.057c-.39.186-.53.453-.5.746.03.299.24.601.53.896zM1047.75 379.23c.13.129.35.168.52.089.16-.078.2-.24.07-.37a.498.498 0 00-.53-.09c-.17.078-.19.242-.06.371zM1048.31 377.689c-.33-.329-.48-.597-.45-.811.02-.137.1-.255.29-.348.2-.092.39-.104.58-.068.3.057.61.253.94.581.32.328.48.596.45.811-.02.137-.1.254-.3.347a.888.888 0 01-.57.069c-.3-.058-.61-.253-.94-.581zm-.41.195c.3.295.63.537 1.03.662.38.124.79.129 1.18-.057.39-.185.53-.452.5-.746-.03-.299-.24-.601-.53-.896-.3-.295-.63-.536-1.03-.662-.39-.124-.8-.129-1.19.057-.38.186-.52.453-.49.746.03.299.24.601.53.896zM1050.89 376.459c-.33-.328-.48-.597-.46-.811.02-.137.11-.254.3-.347.2-.093.38-.105.58-.069.3.057.61.253.93.581.33.328.49.597.46.811-.02.137-.1.254-.3.347a.882.882 0 01-.57.069c-.3-.057-.61-.253-.94-.581zm-.41.196c.29.295.63.536 1.02.661s.8.129 1.19-.056c.39-.186.53-.453.5-.747-.03-.299-.24-.601-.54-.896-.29-.295-.63-.536-1.02-.662-.39-.124-.8-.128-1.19.057-.39.186-.53.453-.49.747.03.299.23.601.53.896z"></path>
      </g>
      <g opacity=".75" fill="#1A202C">
        <path d="M1024.13 378.6l-.52-.521-2.98 1.422.52.521 1.14-.543 2.3 2.299.7-.336-2.29-2.299 1.13-.543zM1027.12 379.821l-1.81-1.802.57-.269c.59-.281 1.36-.223 1.98.39.61.612.4 1.133-.19 1.414l-.55.267zm1.09.23c1.02-.489 1.26-1.367.37-2.258a2.787 2.787 0 00-3.19-.564l-1.29.615 2.82 2.82 1.29-.613zM1031.83 378.323l-2.58-2.581-.6.288c.2.302.08.672-.4.906l.37.37.79-.377 1.73 1.726.69-.332z"></path>
      </g>
      <path d="M1009.68 376.163l60.07-28.656.67.663-60.08 28.656-.66-.663z" fill="#37F"></path>
      <path d="M952.186 606.748l441.704-210.681.33.331L952.518 607.08l-.332-.332z" fill="#3CF"></path>
      <path d="M956.16 605.098c1.007 1.007.781 2.32-.504 2.933-1.285.613-3.143.293-4.15-.713-1.007-1.007-.781-2.32.504-2.933 1.285-.613 3.143-.294 4.15.713zM925.632 622.351l-3.012-3.011-.705.336c.239.352.094.785-.464 1.058l.431.431.924-.441 2.014 2.014.812-.387zM925.616 619.631a1.096 1.096 0 01-.196-.153c-.284-.283-.3-.597.108-.792.386-.184.776-.082.994.136.209.209.236.429.064.737l-.337.6c-.362.652-.144 1.185.379 1.717l2.843-1.356-.552-.552-1.842.879c-.057-.145-.016-.288.058-.432l.387-.706c.247-.454.204-.899-.186-1.289-.524-.524-1.497-.718-2.356-.309-.894.427-.926 1.148-.397 1.677.075.074.185.158.239.195l.794-.352zM929.94 619.721a.908.908 0 00.961.165c.302-.144.355-.45.123-.682-.232-.232-.665-.307-.967-.163-.296.142-.349.448-.117.68zM932.017 617.332a.94.94 0 01.303-.213c.368-.176.791-.137 1.074.146.25.25.212.57-.197.765a1.132 1.132 0 01-1.228-.196l-.667.497c.553.483 1.553.678 2.447.251.93-.443.997-1.181.477-1.701-.552-.552-1.433-.646-2.032-.387l.345-1.125-.515-.515-2.718 1.297.552.552 1.682-.802-.329 1.158.806.273zM935.861 613.127c-.235.002-.59.076-.945.245-1.268.605-1.446 1.704-.365 2.785.91.91 2.1 1.041 2.941.64.847-.404 1.046-1.15.429-1.767-.622-.622-1.551-.755-2.339-.379-.45.215-.603.535-.578.769-.477-.608-.241-1.159.411-1.47.243-.116.519-.172.74-.196l-.294-.627zm-.094 2.951c-.311-.311-.193-.648.174-.823.373-.178.871-.135 1.182.176.311.311.198.653-.175.831-.356.169-.875.122-1.181-.184z" fill="#3CF"></path>
      <path d="M758.367 477.917l485.703-231.668-18.56-18.562c-4.39-4.393-12.5-5.787-18.11-3.112L742.005 446.558c-5.608 2.674-6.592 8.404-2.199 12.798l18.561 18.561z" fill="#fff"></path>
      <path d="M803.729 455.791l440.011-209.874.33.332-440.01 209.874-.331-.332z" fill="#EDF0F7"></path>
      <path d="M763.708 456.735l-3.21-1.828-.847.404 1.335 2.709-3.035-1.898-.865.413 4.457 2.733.853-.407-1.384-2.801 3.303 1.886.841-.401-2.129-3.844-.835.398 1.516 2.636zM765.864 454.479a1.086 1.086 0 01-.196-.153c-.283-.283-.3-.597.109-.792.385-.183.775-.082.993.136.209.209.236.429.064.738l-.337.599c-.362.652-.144 1.186.379 1.718l2.843-1.357-.552-.552-1.842.879c-.057-.144-.016-.287.058-.432l.388-.706c.246-.453.203-.899-.187-1.289-.524-.524-1.497-.718-2.356-.308-.894.426-.925 1.147-.396 1.676.074.074.184.159.238.195l.794-.352z" fill="#6B7B9C"></path>
      <path d="M822.33 427.827l-5.163-5.163-1.208.576c.409.604.16 1.345-.797 1.813l.74.74 1.584-.755 3.453 3.452 1.391-.663zM824.839 434.953l-2.35-2.35-.918.437.804 1.961-2.412-1.194-.872.416 2.35 2.35.635-.303-1.538-1.538 2.321 1.165.541-.258-.775-1.932 1.558 1.558.656-.312zM825.046 433.116c-.491-.491-.265-.927.154-1.126a1.41 1.41 0 011.576.301c.491.49.261.923-.154 1.121a1.406 1.406 0 01-1.576-.296zm-.691.334c.742.743 1.938.882 2.784.479.842-.402 1.077-1.224.334-1.966-.746-.746-1.941-.885-2.783-.484-.846.404-1.081 1.225-.335 1.971zM831.941 431.565l-2.35-2.35-.669.319 1.429 1.428-2.554-.891-.813.387 2.35 2.35.665-.317-1.545-1.544 2.78.955.707-.337z" fill="#3CF"></path>
      <path d="M881.651 394.656c-.089-.075-.179-.149-.251-.221-.588-.589-.651-1.252.212-1.663.832-.398 1.676-.154 2.145.316.398.397.48.899.171 1.505l-.54 1.079c-.552 1.098-.335 1.946.488 2.799l4.61-2.199-.724-.724-3.381 1.613c-.227-.362-.106-.737.078-1.107l.648-1.272c.377-.732.324-1.506-.352-2.182-.859-.859-2.396-1.195-3.807-.522-1.442.688-1.487 1.872-.604 2.755.064.064.135.135.217.202l1.09-.379zM888.308 401.948l-.501-.501-2.517 1.201.501.5.922-.44 1.849 1.85.669-.319-1.85-1.849.927-.442zM892.011 402.991c.66-.315.878-.879.288-1.469l-1.502-1.501-.668.319 1.458 1.458c.285.285.225.525-.093.676-.317.151-.663.106-.948-.179l-1.458-1.459-.668.319 1.501 1.502c.59.59 1.43.649 2.09.334zM895.889 401.063l-.497-.497-1.235.589-.451-.451 1.117-.532-.461-.461-1.117.533-.447-.448 1.231-.587-.494-.494-1.9.906 2.35 2.35 1.904-.908zM947.178 364.741c.125-.131.296-.259.499-.356.65-.31 1.627-.353 2.303.323.517.517.468 1.187-.436 1.618-.792.378-1.851.249-2.576-.416l-.8.64c.904.814 2.547 1.182 4.07.456 1.533-.732 1.599-1.926.732-2.793-1.058-1.058-2.634-1.059-3.598-.599l.518-2.256-.7-.7-4.468 2.131.716.716 3.148-1.501-.54 2.325 1.132.412zM952.891 372.631l-2.13-1.211-.686.327.883 1.801-1.999-1.269-.711.339 3.166 1.961.703-.335-.915-1.865 2.197 1.253.689-.328-1.533-2.74-.686.327 1.022 1.74zM957.389 371.729l-.498-.497-1.235.589-.451-.45 1.117-.533-.461-.461-1.117.533-.447-.448 1.231-.587-.494-.494-1.899.906 2.35 2.35 1.904-.908zM958.337 370.547l-1.362-1.362.389-.186c.462-.22 1.05-.187 1.521.284.471.47.303.859-.158 1.079l-.39.185zm.909.296c.905-.431 1.063-1.167.337-1.893a2.333 2.333 0 00-2.683-.459l-1.087.519 2.35 2.35 1.083-.517zM1010.05 336.575l3.23-1.541 1.16 1.162.96-.46-1.16-1.162 1.13-.537-.73-.724-1.12.537-3.27-3.269-1.37.654.27 4.441.9.899zm2.5-2.265l-2.31 1.105-.21-3.626 2.52 2.521zM1015.52 341.271l-.5-.501-2.52 1.201.5.5.92-.44 1.85 1.85.67-.319-1.85-1.85.93-.441zM1020.52 341.615l-2.35-2.35-.67.321.92.921-1.19.571-.93-.921-.66.319 2.35 2.35.66-.319-.93-.935 1.2-.571.93.935.67-.321zM1022.6 340.704c.66-.315.88-.879.29-1.469l-1.5-1.502-.67.319 1.46 1.459c.28.285.22.524-.1.675-.31.152-.66.106-.95-.179l-1.45-1.458-.67.319 1.5 1.501c.59.59 1.43.649 2.09.335zM1074.46 305.497c.91.768 2.57 1.034 3.97.365 1.46-.697 1.63-1.94.66-2.91-1.07-1.066-2.66-1.26-3.95-.645-.52.247-.92.626-.96 1.021l-.99-1.712 2.81-1.342-.71-.716-3.47 1.657 1.7 2.968c.43-.064.83-.101 1.28-.163.05-.366.36-.722.83-.945.76-.363 1.77-.32 2.48.388.64.636.42 1.342-.37 1.715-.82.393-1.85.249-2.55-.359l-.73.678zM1081.52 312.523l-.88-.878 1.11-.529-.48-.477-1.11.53-.5-.497 1.27-.603-.5-.497-1.93.922 2.35 2.35.67-.321zM1084.9 310.908l.74-.351-1.56-.661c.26-.278.25-.627-.07-.945a1.524 1.524 0 00-1.71-.272l-1.19.567 2.35 2.35.67-.319-.88-.875.24-.113 1.41.619zm-2.1-.957l-.57-.57.4-.187c.27-.132.53-.093.71.083.16.166.13.355-.14.487l-.4.187zM1087.01 309.905l-2.35-2.35-.68.323 2.35 2.35.68-.323zM1136.82 270.454c-.47-.022-1.11.106-1.7.392-1.92.915-2.31 2.707-.39 4.624 1.7 1.703 3.7 1.762 4.96 1.161 1.29-.615 1.78-1.814.68-2.92-1.13-1.122-2.72-1.303-4.02-.683-.87.417-1.14 1.029-1.06 1.497-.98-1.097-.91-2.296.47-2.95a3.537 3.537 0 011.4-.339l-.34-.782zm-.3 5.093c-.69-.692-.43-1.405.33-1.768s1.82-.281 2.51.412c.68.684.43 1.391-.34 1.759-.72.344-1.83.273-2.5-.403zM1141.46 281.312c-.34-.245-.97-.461-1.72-.104-.58.274-.76.824-.32 1.268.35.348.92.466 1.51.3l.47-.136c.23-.065.43-.037.55.082.15.146.09.322-.17.447-.41.196-.79.096-1.03-.108l-.5.409c.38.311 1.15.563 1.98.167.72-.341.74-.903.37-1.271-.34-.335-.92-.482-1.58-.292l-.46.132c-.23.069-.41.028-.52-.084-.13-.13-.09-.329.16-.448a.752.752 0 01.79.057l.47-.419zM1145.89 281.818l.73-.347-3.47-1.817-.77.369 1.22 2.889.7-.335-.26-.58 1.16-.553.69.374zm-2.55-1.391l1.17.64-.73.347-.44-.987zM1147.35 278.392l-.5-.5-2.52 1.201.5.5.92-.44 1.85 1.85.67-.319-1.85-1.85.93-.442zM1196.75 241.625l-4.8 2.29.71.716 3.71-1.767s-.98 2.592 1.73 5.731l1.02-.489c-2.41-2.878-1.85-5.061-1.62-5.734l-.75-.747zM1201.14 252.846c-.34-.245-.97-.461-1.72-.104-.58.274-.76.824-.32 1.268.35.348.92.466 1.51.3l.47-.136c.23-.065.43-.037.55.082.15.146.09.322-.17.447-.41.196-.79.096-1.03-.107l-.5.408c.38.311 1.15.563 1.98.167.72-.341.74-.903.37-1.271-.34-.335-.92-.482-1.58-.292l-.46.132c-.23.069-.41.028-.52-.084-.13-.13-.09-.329.16-.448a.756.756 0 01.79.057l.47-.419zM1204.85 253.773c.66-.314.88-.878.29-1.468l-1.5-1.502-.67.319 1.46 1.458c.28.285.22.525-.09.676-.32.152-.67.106-.95-.179l-1.46-1.459-.67.319 1.5 1.502c.59.59 1.43.649 2.09.334zM1209.43 251.51l-2.35-2.35-.67.319 1.43 1.429-2.55-.892-.81.387 2.35 2.35.66-.316-1.54-1.545 2.78.955.7-.337z" fill="#9CA9C4"></path>
      <g filter="url(#filter3_d)">
        <path d="M630.925 432.961c-4.393-4.394-3.409-10.124 2.199-12.798l101.541-48.433c5.608-2.675 13.716-1.282 18.109 3.112l141.863 141.863c4.394 4.394 3.409 10.123-2.199 12.798l-101.541 48.433c-5.607 2.675-13.715 1.282-18.109-3.112L630.925 432.961z" fill="#fff"></path>
      </g>
      <path d="M667.229 456.767c-1.464-1.464-1.136-3.374.733-4.266l98.156-46.818c1.87-.892 4.572-.427 6.037 1.037l10.606 10.607c1.465 1.464 1.136 3.374-.733 4.266l-98.156 46.818c-1.869.892-4.572.427-6.036-1.037l-10.607-10.607z" fill="#F0FBFF"></path>
      <path d="M698.682 448.345c-.466-.327-1.34-.623-2.358-.137-.794.379-1.018 1.144-.433 1.728.496.497 1.267.629 2.044.417l.679-.187c.377-.104.709-.044.899.147.232.232.161.519-.278.728a1.405 1.405 0 01-1.535-.179l-.6.519c.534.438 1.587.765 2.7.234.978-.466 1.006-1.234.5-1.74-.464-.464-1.262-.658-2.142-.41l-.675.192c-.354.1-.646.027-.827-.154-.218-.218-.157-.542.24-.731a1.205 1.205 0 011.228.099l.558-.526zM701.382 448.126c.391-.187.769-.079 1.031.077l.519-.522a2.247 2.247 0 00-2.139-.117c-.847.404-1.004 1.226-.299 1.931.701.701 1.887.889 2.745.48.776-.371.843-.978.592-1.421l-.874.15c.112.207.119.512-.284.704-.403.193-.978.124-1.391-.289-.413-.413-.303-.801.1-.993zM704.558 447.262c-.233-.259-.232-.547.1-.705.379-.181.738-.058.993.197l1.332 1.332.788-.376-1.439-1.438c-.501-.501-1.248-.741-1.988-.388-.279.133-.524.36-.538.626l-1.266-1.267-.788.376 3.359 3.36.788-.376-1.341-1.341zM707.744 445.654c-.191-.218-.208-.566.201-.761.45-.215.863-.083 1.102.139l-1.303.622zm1.974-.065c.109.25.052.489-.316.665-.391.186-.934.123-1.254-.17l2.085-.994c-.009-.009-.09-.108-.178-.196-.733-.733-1.723-.926-2.623-.497-.746.356-.96 1.157-.231 1.886.77.77 1.925.884 2.724.502.717-.341.85-.891.603-1.356l-.81.16zM711.263 441.083l-.776.37 1.304 1.304c-.204-.081-.603-.131-1.107.109-.823.393-.873 1.192-.205 1.86.692.691 1.794.919 2.624.524.39-.187.547-.467.497-.711.107.107.236.21.294.251l.752-.359a7.555 7.555 0 01-.437-.402l-2.946-2.946zm.01 3.264c-.409-.408-.321-.793.082-.985.403-.192.944-.114 1.353.294.413.413.34.804-.063.996-.414.198-.964.103-1.372-.305zM717.373 443.13l.752-.358a6.321 6.321 0 01-.443-.399l-1.87-1.87-.787.376 1.327 1.327c.264.264.248.546-.101.713-.367.175-.737.05-.993-.206l-1.317-1.317-.788.375 1.443 1.443c.496.497 1.303.709 2.008.372.308-.147.553-.4.499-.69.093.093.212.194.27.234zM719.724 442.009l-3.36-3.36-.788.376 3.36 3.36.788-.376zM719.74 439.931c-.191-.217-.207-.566.202-.761.45-.214.862-.082 1.102.14l-1.304.621zm1.975-.064c.109.249.051.489-.316.664-.391.187-.935.124-1.254-.169l2.085-.994c-.009-.01-.09-.108-.178-.196-.734-.733-1.723-.927-2.623-.497-.746.356-.96 1.157-.232 1.885.771.771 1.926.885 2.725.503.717-.342.85-.891.603-1.356l-.81.16z" fill="#3CF"></path>
      <path fill-rule="evenodd" clip-rule="evenodd" d="M678.638 458.179c-.183-.183-.142-.422.092-.533l9.308-4.44a.706.706 0 01.754.13c.183.183.142.421-.091.533l-9.308 4.439a.71.71 0 01-.755-.129z" fill="#3CF"></path>
      <path fill-rule="evenodd" clip-rule="evenodd" d="M677.919 455.585c-.234.111-.275.35-.092.533l5.304 5.303a.71.71 0 00.754.13l7.616-3.633c.233-.111.274-.35.091-.533l-5.303-5.303a.71.71 0 00-.754-.13l-7.616 3.633zm-.938.937c-.549-.55-.425-1.266.275-1.6l7.616-3.633c.701-.334 1.714-.16 2.263.389l5.304 5.304c.549.549.425 1.265-.275 1.599l-7.616 3.633c-.701.334-1.715.16-2.263-.389l-5.304-5.303z" fill="#3CF"></path>
      <path fill-rule="evenodd" clip-rule="evenodd" d="M677.863 453.653a.71.71 0 01.754.13l1.657 1.657c.183.183.142.422-.091.534a.712.712 0 01-.755-.13l-1.657-1.657c-.183-.183-.142-.422.092-.534zM682.94 451.232a.706.706 0 01.754.13l1.657 1.657c.183.183.142.422-.091.533a.712.712 0 01-.755-.13l-1.657-1.657c-.183-.183-.142-.422.092-.533z" fill="#3CF"></path>
      <path d="M685.791 475.329c-1.464-1.465-1.136-3.375.733-4.266l98.156-46.818c1.87-.892 4.572-.428 6.037 1.037l10.606 10.606c1.465 1.465 1.137 3.375-.733 4.266l-98.156 46.819c-1.869.891-4.572.427-6.036-1.038l-10.607-10.606z" fill="#fff"></path>
      <path d="M717.748 470.367l-1.281-1.281 1.629-.777-.589-.589-1.635.78-.812-.813 1.836-.875-.608-.608-2.653 1.265 3.29 3.29.823-.392zM720.968 468.831l-2.284-2.283-.787.376 2.283 2.283.788-.376zm-3.913-2.609c.204.204.595.271.861.144.273-.13.314-.403.11-.607a.812.812 0 00-.871-.154c-.266.127-.314.403-.1.617zM721.286 466.74c-.265-.265-.272-.57.071-.733.379-.181.739-.058.994.197l1.332 1.332.788-.376-1.439-1.438c-.501-.501-1.237-.747-1.959-.402-.314.149-.557.423-.498.744l-.283-.283-.764.365 2.283 2.283.788-.376-1.313-1.313zM724.471 466.242c.357.357 1.065.506 1.687.209.433-.206.553-.497.52-.748.089.088.226.208.304.259l.722-.344a4.46 4.46 0 01-.397-.345l-1.123-1.123c-.459-.46-1.211-.704-2.135-.263-.782.373-.808.968-.498 1.347l.815-.217c-.176-.211-.158-.473.185-.637.332-.158.626-.1.789.063.079.079.09.169-.057.267l-.633.425c-.43.287-.588.698-.179 1.107zm1.394-.329a.568.568 0 01-.644-.084c-.176-.176-.104-.341.074-.46l.578-.393.102.103c.404.403.221.675-.11.834zM727.938 463.567c-.265-.265-.272-.569.071-.733.379-.181.739-.058.994.197l1.332 1.332.788-.376-1.439-1.438c-.501-.501-1.237-.747-1.959-.402-.314.15-.557.423-.498.744l-.283-.283-.764.365 2.283 2.283.788-.376-1.313-1.313zM731.449 461.2c.391-.187.77-.079 1.031.077l.519-.522a2.248 2.248 0 00-2.138-.118c-.847.404-1.005 1.227-.3 1.932.701.701 1.887.889 2.746.479.776-.37.842-.977.592-1.42l-.874.15c.111.207.118.512-.284.704-.403.192-.979.124-1.392-.289-.413-.413-.303-.801.1-.993zM734.323 460.391c-.191-.217-.207-.566.201-.761.451-.215.863-.082 1.102.139l-1.303.622zm1.974-.064c.109.249.052.489-.315.664-.391.187-.935.124-1.255-.169l2.085-.995c-.009-.009-.09-.107-.178-.196-.733-.733-1.722-.926-2.623-.496-.746.356-.96 1.157-.231 1.885.77.771 1.925.884 2.725.503.716-.342.849-.892.603-1.357l-.811.161z" fill="#6B7B9C"></path>
      <path fill-rule="evenodd" clip-rule="evenodd" d="M696.15 473.815c-.234.111-.275.35-.092.533a.712.712 0 00.755.13l7.615-3.633c.702-.334 1.715-.16 2.264.389l3.978 3.978c.549.549.426 1.265-.275 1.599l-6.77 3.229c-1.168.557-2.857.267-3.773-.648l-4.64-4.64c-.549-.55-.426-1.266.275-1.6l7.616-3.633a.71.71 0 01.754.13c.183.183.142.422-.092.533l-7.615 3.633zm.846 1.471l3.703 3.702c.549.549 1.562.724 2.263.389l6.77-3.229c.234-.111.275-.35.091-.533l-3.977-3.977a.71.71 0 00-.755-.13l-7.615 3.632a1.76 1.76 0 01-.48.146z" fill="#9CA9C4"></path>
      <path fill-rule="evenodd" clip-rule="evenodd" d="M705.388 474.304c-.234.111-.275.35-.092.533a.712.712 0 00.755.13c.233-.112.274-.35.091-.533a.71.71 0 00-.754-.13zm-.938.937c-.549-.549-.426-1.266.275-1.6.701-.334 1.714-.16 2.264.389.549.549.426 1.265-.275 1.6-.701.334-1.715.16-2.264-.389z" fill="#9CA9C4"></path>
      <path d="M704.352 493.89c-1.464-1.464-1.136-3.374.733-4.266l98.156-46.818c1.87-.892 4.572-.427 6.037 1.037l10.606 10.607c1.465 1.464 1.136 3.374-.733 4.266l-98.156 46.818c-1.869.892-4.572.427-6.036-1.037l-10.607-10.607z" fill="#fff"></path>
      <path d="M735.895 485.164l-.608-.608-3.477 1.659.608.607 1.327-.632 2.682 2.682.823-.393-2.682-2.682 1.327-.633zM737.705 486.192c-.191-.217-.207-.566.202-.761.45-.214.862-.082 1.102.14l-1.304.621zm1.975-.064c.109.249.051.489-.316.664-.391.187-.935.124-1.254-.169l2.085-.994c-.009-.01-.09-.108-.179-.196-.733-.734-1.722-.927-2.622-.497-.746.356-.96 1.157-.232 1.885.771.771 1.926.885 2.725.503.717-.342.849-.891.603-1.357l-.81.161zM741.007 485.769c.357.357 1.066.506 1.688.209.432-.206.553-.496.52-.748.088.088.225.208.303.26l.723-.345a4.035 4.035 0 01-.398-.345l-1.123-1.123c-.459-.459-1.211-.704-2.135-.263-.782.373-.808.968-.498 1.348l.815-.218c-.176-.211-.158-.473.185-.637.332-.158.627-.099.789.063.079.079.09.169-.057.267l-.633.425c-.43.288-.588.699-.179 1.107zm1.394-.329a.568.568 0 01-.644-.084c-.176-.176-.104-.341.074-.46l.579-.392.102.102c.403.403.221.676-.111.834zM745.787 484.407l-1.336-1.336c-.251-.251-.249-.546.094-.71.356-.17.701-.06.947.186l1.355 1.355.782-.373-1.336-1.337c-.246-.246-.249-.546.089-.707.361-.172.701-.06.946.186l1.355 1.355.765-.365-1.481-1.48c-.612-.612-1.383-.622-1.922-.365-.385.184-.591.433-.543.821a1.492 1.492 0 00-1.246.032c-.319.153-.572.452-.509.751l-.279-.279-.752.359 2.283 2.283.788-.376z" fill="#6B7B9C"></path>
      <path fill-rule="evenodd" clip-rule="evenodd" d="M720.405 495.918c.245-.664.858-1.282 1.76-1.712a5.891 5.891 0 012.942-.53c.987.076 1.94.413 2.555 1.029l.539.538c.183.183.142.422-.092.533a.708.708 0 01-.754-.129l-.539-.539c-.366-.366-.969-.604-1.699-.661a4.595 4.595 0 00-2.289.422c-.732.349-1.2.837-1.382 1.329-.182.492-.073.965.293 1.332l.539.538c.183.183.142.422-.092.534a.71.71 0 01-.754-.13l-.539-.539c-.616-.615-.734-1.35-.488-2.015zM718.468 496.372c.296.025.537.218.537.431-.001.321.127.619.379.871l.87.87c.183.183.142.422-.092.533a.708.708 0 01-.754-.129l-.87-.87c-.419-.419-.609-.896-.608-1.367 0-.212.241-.364.538-.339zM726.407 492.585c.071-.201.362-.302.65-.227.638.166 1.217.458 1.635.876l.87.871c.183.183.142.421-.092.533a.71.71 0 01-.754-.13l-.87-.87c-.252-.252-.611-.44-1.045-.553-.289-.076-.465-.299-.394-.5zM718.519 490.56c-.818.39-.962 1.226-.321 1.866.641.641 1.823.844 2.641.454.818-.39.961-1.226.32-1.866-.64-.641-1.823-.844-2.64-.454zm-1.167 2.27c-1.007-1.007-.782-2.32.504-2.933 1.285-.613 3.143-.294 4.15.713 1.006 1.007.781 2.32-.504 2.933-1.286.613-3.144.294-4.15-.713zM722.336 489.668c-.051-.214.146-.397.438-.408.748-.029 1.548.229 2.056.737.703.703.572 1.603-.255 2.069-.22.124-.56.083-.759-.092-.199-.175-.182-.417.038-.541.417-.235.478-.684.13-1.032-.249-.249-.645-.381-1.028-.366-.292.011-.57-.153-.62-.367zM715.959 492.709c.272.109.396.346.277.531-.155.242-.117.544.132.793.348.348.978.468 1.444.282.246-.098.58-.024.746.167.166.19.102.424-.144.522-.924.37-2.189.136-2.892-.567-.508-.508-.574-1.116-.271-1.589.119-.185.436-.247.708-.139z" fill="#9CA9C4"></path>
      <path d="M722.914 512.452c-1.464-1.465-1.136-3.375.733-4.266l98.156-46.818c1.869-.892 4.572-.428 6.037 1.037l10.606 10.606c1.465 1.465 1.136 3.375-.733 4.266l-98.156 46.819c-1.869.891-4.572.427-6.036-1.038l-10.607-10.606z" fill="#fff"></path>
      <path d="M752.998 505.95c-.743-.743-.432-1.412.214-1.72.651-.31 1.667-.274 2.41.468.742.743.432 1.412-.22 1.723-.646.308-1.662.271-2.404-.471zm-.843.408c1.058 1.058 2.732 1.227 3.869.684 1.143-.545 1.507-1.685.449-2.743-1.062-1.063-2.735-1.231-3.878-.686-1.138.543-1.502 1.683-.44 2.745zM758.25 502.492c-.064.024-.128.047-.193.078-.248.119-.596.367-.472.753l-.338-.339-.764.365 2.283 2.283.787-.376-1.044-1.044c-.492-.492-.295-.812.108-1.004.071-.034.152-.066.255-.094l-.622-.622zM760.986 504.758c.519.397 1.442.532 2.241.151 1.096-.523.958-1.3.331-1.926l-2.037-2.038-.758.362.269.269c-.254-.105-.678-.136-1.14.085-.8.381-.846 1.157-.243 1.76.641.641 1.69.833 2.466.463.42-.201.549-.475.519-.68l.167.167c.441.441.357.769-.14 1.006a1.096 1.096 0 01-1.113-.107l-.562.488zm.736-1.468c-.409.195-.922.11-1.279-.247-.353-.353-.267-.722.124-.909.379-.181.909-.105 1.262.248.353.352.296.715-.107.908zM763.774 502.325c.357.357 1.065.506 1.687.209.433-.206.553-.497.521-.748.088.088.225.207.303.259l.723-.344a4.322 4.322 0 01-.398-.345l-1.123-1.123c-.459-.46-1.211-.704-2.135-.264-.782.373-.808.968-.498 1.348l.815-.217c-.176-.211-.158-.473.185-.637.332-.158.626-.1.789.063.079.079.09.169-.057.267l-.633.425c-.43.287-.588.698-.179 1.107zm1.394-.329a.57.57 0 01-.644-.084c-.176-.176-.104-.341.074-.46l.578-.393.103.102c.403.404.221.676-.111.835zM767.241 499.65c-.265-.265-.272-.57.071-.733.379-.181.739-.058.994.197l1.332 1.332.788-.376-1.439-1.438c-.501-.501-1.236-.747-1.959-.402-.314.149-.557.423-.498.744l-.283-.283-.764.365 2.283 2.283.788-.376-1.313-1.313zM772.013 499.313l-2.283-2.283-.788.376 2.283 2.283.788-.376zm-3.913-2.609c.204.204.595.271.862.144.272-.13.314-.403.11-.607a.813.813 0 00-.871-.154c-.267.127-.314.403-.101.617zM771.972 498.394c.295.243 1.043.544 1.919.126.765-.364.751-.92.38-1.291-.334-.335-.898-.47-1.565-.289l-.485.129c-.183.053-.359.034-.47-.078-.13-.129-.062-.306.145-.405a.743.743 0 01.786.078l.542-.43c-.282-.229-.973-.509-1.802-.114-.628.3-.751.859-.343 1.267.32.32.839.463 1.5.292l.454-.114c.262-.07.435-.029.537.073.121.121.103.287-.158.411a.81.81 0 01-.881-.093l-.559.438zM774.764 497.083c.357.357 1.066.506 1.688.209.432-.206.553-.497.52-.748.088.088.225.207.303.259l.723-.345a4.035 4.035 0 01-.398-.345l-1.123-1.122c-.459-.46-1.211-.704-2.135-.264-.782.373-.808.968-.498 1.348l.815-.217c-.176-.211-.158-.473.186-.637.331-.158.626-.1.788.063.079.078.091.169-.057.266l-.633.426c-.43.287-.587.698-.179 1.107zm1.394-.33a.567.567 0 01-.643-.083c-.177-.177-.105-.341.073-.46l.579-.393.102.102c.404.404.221.676-.111.834zM776.745 492.676l-.71.339.32.321c.204.204.219.429-.089.576l-.148.071.548.547.527-.251 1.063 1.063c.441.441 1.061.536 1.629.264.231-.11.341-.21.389-.267l-.511-.511a1.232 1.232 0 01-.224.135c-.225.107-.409.099-.608-.101l-.956-.956.586-.28-.547-.547-.587.28-.682-.683zM781.754 494.667l-2.283-2.283-.788.376 2.283 2.283.788-.376zm-3.913-2.609c.204.204.595.271.862.144.272-.13.314-.403.11-.608a.815.815 0 00-.871-.153c-.267.127-.314.403-.101.617zM783.414 493.148c-.385.184-.963.131-1.39-.296-.431-.432-.294-.819.091-1.003.385-.184.959-.135 1.39.297.432.431.294.819-.091 1.002zm-1.86-1.86c-.871.415-1.023 1.234-.317 1.94.7.7 1.868.897 2.739.482.871-.415 1.018-1.239.317-1.94-.705-.705-1.869-.898-2.739-.482zM785.531 490.926c-.265-.265-.272-.57.072-.733.379-.181.738-.058.993.197l1.332 1.332.788-.376-1.439-1.438c-.501-.501-1.236-.747-1.959-.402-.314.15-.557.423-.498.744l-.283-.283-.764.365 2.283 2.283.788-.376-1.313-1.313z" fill="#6B7B9C"></path>
      <path fill-rule="evenodd" clip-rule="evenodd" d="M735.536 511.327a.708.708 0 01.754.129l5.304 5.304c.183.183.142.421-.092.533a.71.71 0 01-.754-.13l-5.304-5.303c-.183-.183-.142-.422.092-.533zM740.613 508.905a.71.71 0 01.754.13l5.304 5.303c.183.183.142.422-.092.533a.708.708 0 01-.754-.129l-5.304-5.304c-.183-.183-.142-.422.092-.533z" fill="#9CA9C4"></path>
      <path fill-rule="evenodd" clip-rule="evenodd" d="M734.93 512.595c-.234.111-.275.35-.092.533l3.978 3.978a.708.708 0 00.754.129l7.616-3.632c.234-.112.275-.35.092-.533l-3.978-3.978a.71.71 0 00-.754-.13l-7.616 3.633zm-.938.937c-.549-.55-.426-1.266.275-1.6l7.616-3.632c.701-.335 1.714-.161 2.263.389l3.978 3.977c.549.549.426 1.265-.275 1.6l-7.616 3.632c-.701.335-1.714.161-2.263-.389l-3.978-3.977z" fill="#9CA9C4"></path>
      <path fill-rule="evenodd" clip-rule="evenodd" d="M735.48 509.395c-.234.112-.275.35-.092.534l1.326 1.325c.183.183.142.422-.092.534a.71.71 0 01-.754-.13l-1.326-1.326c-.549-.549-.426-1.265.275-1.6l2.538-1.21c.702-.335 1.715-.161 2.264.389l1.326 1.325c.183.183.142.422-.092.534a.71.71 0 01-.754-.13l-1.326-1.326a.71.71 0 00-.755-.129l-2.538 1.21z" fill="#9CA9C4"></path>
      <path d="M741.476 531.013c-1.465-1.464-1.137-3.374.733-4.266l98.156-46.818c1.869-.892 4.572-.427 6.036 1.037l10.607 10.607c1.464 1.464 1.136 3.374-.733 4.266l-98.156 46.818c-1.87.892-4.572.427-6.037-1.037l-10.606-10.607z" fill="#fff"></path>
      <path d="M772.832 525.46l-2.102-2.102.658-.313c.687-.328 1.594-.261 2.309.454.714.715.474 1.323-.213 1.65l-.652.311zm1.275.269c1.197-.57 1.476-1.595.437-2.634a3.252 3.252 0 00-3.721-.659l-1.504.718 3.29 3.29 1.498-.715zM776.036 523.891c.358.357 1.066.506 1.688.209.433-.206.553-.497.52-.748.088.088.226.208.304.259l.722-.344a4.46 4.46 0 01-.397-.345l-1.123-1.123c-.46-.46-1.211-.704-2.135-.263-.782.373-.808.968-.499 1.347l.815-.217c-.175-.211-.158-.473.186-.637.332-.158.626-.1.789.063.078.079.09.169-.057.267l-.633.425c-.43.287-.588.698-.18 1.107zm1.395-.329a.568.568 0 01-.644-.084c-.176-.176-.105-.341.074-.46l.578-.393.102.102c.404.404.221.676-.11.835zM778.018 519.485l-.711.339.32.32c.204.204.22.43-.088.577l-.148.07.547.548.528-.252 1.062 1.063c.441.441 1.061.536 1.63.265.231-.111.34-.211.388-.268l-.51-.511c-.032.03-.13.09-.225.135-.225.107-.408.099-.608-.101l-.956-.956.587-.279-.548-.548-.586.28-.682-.682zM781.456 521.306c.358.357 1.066.506 1.688.209.433-.206.553-.497.52-.748.088.088.226.207.304.259l.722-.345a4.15 4.15 0 01-.397-.344l-1.123-1.123c-.46-.46-1.211-.704-2.135-.264-.782.373-.808.968-.499 1.348l.815-.217c-.175-.211-.158-.473.186-.637.332-.158.626-.1.789.063.078.078.09.169-.057.267l-.633.425c-.43.287-.588.698-.18 1.107zm1.395-.33a.568.568 0 01-.644-.083c-.176-.177-.105-.341.074-.46l.578-.393.102.102c.404.404.221.676-.11.834z" fill="#6B7B9C"></path>
      <path fill-rule="evenodd" clip-rule="evenodd" d="M751.412 529.701a.71.71 0 01.754.13l5.299 5.298c.011.007.078.038.275.048.252.013.607-.017 1.053-.105.885-.173 2.008-.548 3.147-1.091 1.139-.544 2.045-1.137 2.593-1.647.276-.256.443-.475.515-.642.056-.131.037-.185.032-.195l-5.298-5.299c-.183-.183-.142-.422.091-.533a.712.712 0 01.755.13l5.303 5.303c.298.298.26.637.147.901-.119.275-.357.566-.667.854-.623.581-1.61 1.219-2.808 1.791-1.197.571-2.412.982-3.418 1.179-.5.098-.979.149-1.393.128-.398-.02-.871-.115-1.169-.413l-5.303-5.304c-.183-.183-.142-.422.092-.533z" fill="#9CA9C4"></path>
      <path fill-rule="evenodd" clip-rule="evenodd" d="M753.818 531.483a.711.711 0 00-.749-.125c-.234.112-.275.351-.092.534.298.298.771.393 1.168.413.415.021.893-.03 1.393-.128 1.007-.197 2.221-.608 3.419-1.179.233-.112.274-.351.091-.534a.708.708 0 00-.754-.129c-1.139.543-2.263.918-3.147 1.091-.446.088-.802.118-1.053.105-.199-.01-.264-.042-.276-.048zM755.807 533.472a.711.711 0 00-.749-.125c-.234.111-.275.35-.092.533.298.298.771.394 1.168.414.415.021.893-.03 1.393-.128 1.007-.197 2.221-.609 3.419-1.18.233-.111.274-.35.091-.533a.71.71 0 00-.754-.13c-1.139.544-2.263.919-3.147 1.092-.446.087-.802.118-1.053.105-.199-.01-.264-.042-.276-.048zM752.169 529.83c.023.01.095.035.268.044.251.013.607-.018 1.053-.105.884-.173 2.008-.548 3.147-1.092 1.139-.543 2.045-1.136 2.593-1.646.276-.257.442-.476.514-.642.05-.115.041-.171.035-.19a.817.817 0 00-.268-.044c-.252-.013-.607.018-1.053.105-.884.173-2.008.548-3.147 1.092-1.139.543-2.045 1.136-2.593 1.646-.276.257-.443.476-.515.642-.049.115-.04.171-.034.19zm-.329-1.351c.623-.58 1.61-1.219 2.808-1.79 1.197-.572 2.412-.983 3.418-1.18.5-.098.979-.149 1.393-.128.398.02.871.116 1.169.414.298.298.26.637.146.901-.118.275-.357.566-.666.854-.624.58-1.611 1.219-2.808 1.79-1.198.571-2.412.983-3.419 1.18-.5.098-.978.149-1.393.128-.398-.02-.87-.116-1.168-.414-.298-.298-.26-.637-.147-.901.119-.275.357-.566.667-.854z" fill="#9CA9C4"></path>
      <path d="M760.037 549.575c-1.465-1.464-1.136-3.374.733-4.266l98.156-46.818c1.869-.892 4.572-.427 6.036 1.037l10.607 10.607c1.464 1.464 1.136 3.374-.733 4.266l-98.156 46.818c-1.869.891-4.572.427-6.037-1.037l-10.606-10.607z" fill="#fff"></path>
      <path d="M791.49 541.152c-.466-.326-1.34-.622-2.358-.136-.794.378-1.018 1.143-.433 1.728.496.496 1.267.629 2.043.416l.68-.187c.376-.104.709-.043.899.147.232.232.161.52-.278.729a1.407 1.407 0 01-1.535-.179l-.6.519c.534.438 1.587.765 2.7.234.978-.467 1.006-1.234.5-1.74-.464-.464-1.262-.659-2.142-.41l-.675.191c-.354.101-.646.027-.827-.154-.218-.218-.157-.542.24-.731a1.207 1.207 0 011.228.1l.558-.527zM793.836 541.664c-.191-.217-.207-.566.201-.761.45-.214.863-.082 1.102.14l-1.303.621zm1.974-.064c.109.249.052.489-.315.664-.391.187-.935.124-1.255-.169l2.085-.994c-.009-.01-.09-.108-.178-.196-.733-.734-1.722-.927-2.623-.497-.746.356-.96 1.157-.231 1.885.77.771 1.925.885 2.725.503.716-.342.849-.891.603-1.356l-.811.16zM795.943 538.35l-.711.339.32.32c.204.204.22.43-.088.576l-.148.071.548.548.527-.252 1.062 1.063c.441.441 1.061.536 1.63.264.231-.11.34-.21.388-.267l-.51-.511c-.032.03-.13.09-.224.135-.226.107-.409.099-.608-.101l-.956-.956.586-.279-.548-.548-.586.28-.682-.682zM798.153 537.296l-.711.339.32.32c.204.204.22.43-.088.577l-.148.07.547.548.527-.252 1.063 1.063c.441.441 1.061.536 1.629.265.231-.111.341-.211.389-.268l-.51-.51c-.033.029-.13.089-.225.134-.225.107-.408.099-.608-.101l-.956-.956.587-.279-.548-.548-.586.28-.682-.682zM803.161 539.286l-2.283-2.283-.788.376 2.283 2.283.788-.376zm-3.913-2.609c.205.204.595.271.862.144.272-.13.314-.403.11-.607a.813.813 0 00-.871-.154c-.267.127-.314.404-.101.617zM803.479 537.195c-.264-.265-.272-.569.072-.733.379-.181.738-.058.993.197l1.332 1.332.788-.376-1.438-1.438c-.502-.501-1.237-.747-1.96-.402-.314.15-.556.423-.497.744l-.283-.283-.765.365 2.284 2.283.787-.376-1.313-1.313zM807.382 537.458c.519.397 1.442.532 2.241.151 1.096-.523.958-1.3.331-1.926l-2.037-2.037-.758.361.269.269c-.254-.105-.678-.135-1.14.085-.8.382-.846 1.158-.243 1.761.641.64 1.69.832 2.466.462.42-.201.549-.475.519-.68l.167.168c.441.44.357.768-.14 1.005a1.098 1.098 0 01-1.113-.106l-.562.487zm.736-1.468c-.409.195-.922.111-1.279-.247-.353-.352-.268-.722.123-.909.379-.18.91-.105 1.263.248.353.353.296.716-.107.908zM810.113 535.031c.296.243 1.043.545 1.92.126.764-.364.751-.92.38-1.291-.335-.334-.899-.469-1.566-.288l-.484.128c-.183.053-.36.034-.471-.077-.13-.13-.061-.307.146-.405a.743.743 0 01.786.077l.541-.43c-.281-.229-.972-.509-1.802-.113-.628.299-.751.858-.342 1.267.32.32.839.463 1.499.292l.455-.114c.262-.07.434-.029.536.073.121.121.103.287-.157.411a.807.807 0 01-.881-.094l-.56.438z" fill="#6B7B9C"></path>
      <path d="M781.345 547.81a1.104 1.104 0 00-.031-.041l-1.441-.202c.096.079.189.161.275.248a3.1 3.1 0 01.396.48c.089.134.268.231.466.251l1.257.129c.087.009.161.062.173.126l.071.36 1.126.296c-.104-.497-.518-1.504-1.344-1.55l-.948-.097z" fill="#9CA9C4"></path>
      <path fill-rule="evenodd" clip-rule="evenodd" d="M772.847 545.423c-.483.23-.62.7-.327 1.11l.457.639a2.642 2.642 0 00-.459.783l-.909.128c-.584.083-.949.468-.863.91l.132.676c.087.442.599.812 1.211.875l.949.097c.104.135.22.268.351.398.13.13.269.253.414.368l-.204.647c-.131.418.189.88.756 1.092l.868.324c.567.213 1.219.114 1.538-.235l.496-.541c.41.032.82.026 1.222-.019l.703.521.001.001c.452.333 1.136.411 1.619.181l.735-.351c.483-.23.62-.7.326-1.11l-.456-.639a2.68 2.68 0 00.459-.782l.908-.128c.584-.083.95-.468.863-.911l-1.126-.296.062.315c.012.063-.04.118-.122.129l-1.204.17c-.189.027-.33.129-.367.266a2.087 2.087 0 01-.543.927c-.108.109-.117.26-.022.393l.605.845c.042.059.022.126-.046.158l-.735.351a.243.243 0 01-.233-.027l-.929-.689a.736.736 0 00-.54-.125 5.045 5.045 0 01-1.448.023c-.198-.025-.386.03-.489.143l-.657.717c-.044.049-.137.063-.218.033l-.868-.325c-.081-.03-.127-.097-.108-.156l.271-.858c.042-.135-.025-.285-.175-.39a3.832 3.832 0 01-.51-.425 3.154 3.154 0 01-.396-.481c-.089-.134-.268-.23-.466-.25l-1.257-.129c-.087-.009-.161-.063-.174-.126l-.131-.675c-.013-.063.039-.118.122-.13l1.203-.17c.189-.026.33-.128.367-.265a2.09 2.09 0 01.543-.927c.108-.11.117-.261.022-.393l-.131-.184-1.417-.373 1.279.18-.335-.469c-.043-.059-.023-.126.046-.158l.735-.351a.238.238 0 01.231.027l.93.689a.738.738 0 00.541.126c.468-.078.96-.084 1.447-.023.198.024.386-.03.489-.143l.657-.717c.045-.049.137-.064.218-.033l.868.324c.081.031.127.097.108.157l-.27.858c-.043.135.024.284.174.389.081.057.159.116.235.178l1.441.202.031.041.948.097-.979-.138a4.033 4.033 0 00-.32-.358 4.676 4.676 0 00-.414-.367l.204-.648c.131-.417-.189-.879-.756-1.091l-.868-.325c-.567-.212-1.219-.113-1.538.235l-.496.541a6.555 6.555 0 00-1.222.02l-.703-.522c-.452-.334-1.136-.412-1.619-.182l-.735.351z" fill="#9CA9C4"></path>
      <path d="M772.52 546.533l1.417.373-.138-.193-1.279-.18z" fill="#9CA9C4"></path>
      <path fill-rule="evenodd" clip-rule="evenodd" d="M776.529 548.562c-.467.223-.549.701-.183 1.067.366.366 1.041.482 1.509.259.467-.223.549-.7.183-1.066-.366-.366-1.042-.483-1.509-.26zm-1.03 1.471c-.732-.733-.568-1.688.367-2.134.935-.445 2.286-.213 3.018.519.732.732.568 1.687-.366 2.133-.935.446-2.286.214-3.019-.518z" fill="#9CA9C4"></path>
      <path d="M674.702 423.34l-.776-.775-2.33 1.111-.979-.978 2.11-1.006-.734-.734-2.109 1.006-.967-.967 2.33-1.111-.775-.776-3.382 1.613 4.23 4.23 3.382-1.613zM674.604 422.206c.46.459 1.371.651 2.17.269.556-.265.711-.639.669-.962.113.113.29.267.39.334l.929-.443a5.436 5.436 0 01-.511-.444l-1.444-1.444c-.59-.59-1.557-.905-2.745-.338-1.005.479-1.039 1.244-.64 1.733l1.047-.28c-.226-.271-.203-.608.239-.818.426-.204.805-.129 1.014.08.101.101.116.218-.073.343l-.814.547c-.553.37-.756.898-.231 1.423zm1.793-.423c-.328.156-.655.065-.828-.108-.226-.226-.134-.438.095-.591l.744-.505.131.131c.519.519.284.869-.142 1.073zM678.6 420.274c.38.312 1.341.699 2.468.162.983-.469.966-1.183.488-1.66-.429-.43-1.154-.604-2.012-.371l-.623.165c-.235.068-.462.044-.605-.099-.167-.167-.079-.394.187-.521a.958.958 0 011.011.099l.696-.552c-.362-.295-1.251-.655-2.317-.146-.807.385-.966 1.103-.441 1.629.412.411 1.079.595 1.928.375l.585-.146c.337-.091.559-.038.69.094.155.155.132.368-.203.528-.442.211-.877.101-1.133-.121l-.719.564zM680.684 414.856l-.914.436.412.412c.263.262.283.552-.113.741l-.191.091.704.704.678-.323 1.366 1.366c.567.567 1.364.689 2.095.34.297-.142.438-.271.5-.344l-.656-.656a1.653 1.653 0 01-.289.173c-.289.138-.525.127-.782-.13l-1.229-1.229.754-.36-.704-.704-.754.36-.877-.877zM694.07 414.102l-4.23-4.23-1.431.683 1.47 3.81-4.677-2.281-1.386.661 4.23 4.23 1.006-.479-2.942-2.942 4.495 2.201.876-.418-1.412-3.706 2.966 2.965 1.035-.494zM694.143 411.406c-.245-.279-.266-.728.259-.978.579-.276 1.109-.106 1.417.179l-1.676.799zm2.539-.083c.14.321.066.629-.406.855-.503.239-1.202.159-1.612-.218l2.68-1.279c-.012-.012-.116-.138-.229-.252-.943-.942-2.215-1.191-3.372-.638-.96.457-1.235 1.487-.298 2.424.991.99 2.476 1.137 3.504.646.921-.439 1.092-1.146.775-1.744l-1.042.206zM698.668 405.529l-.998.476 1.677 1.677c-.262-.105-.775-.168-1.423.141-1.058.504-1.123 1.531-.263 2.39.888.889 2.306 1.182 3.372.674.503-.24.705-.601.64-.913.137.137.303.269.378.321l.967-.461a9.628 9.628 0 01-.561-.516l-3.789-3.789zm.013 4.197c-.525-.525-.412-1.019.106-1.266.518-.247 1.214-.147 1.739.378.531.531.437 1.033-.081 1.28-.533.255-1.239.133-1.764-.392zM705.099 408.842l-2.935-2.936-1.013.483 2.935 2.936 1.013-.483zm-5.03-3.355c.262.262.765.349 1.107.185.351-.167.404-.518.142-.781-.275-.274-.77-.364-1.12-.197-.343.163-.404.518-.129.793zM705.576 405.23c.502-.239.989-.101 1.325.1l.668-.671a2.89 2.89 0 00-2.75-.151c-1.089.519-1.292 1.576-.385 2.483.901.901 2.426 1.143 3.53.616.997-.475 1.083-1.256.761-1.825l-1.124.192c.143.267.153.658-.365.905s-1.258.16-1.789-.371c-.531-.531-.389-1.031.129-1.278zM709.328 405.644c.459.459 1.37.65 2.17.269.556-.265.711-.639.669-.962.113.113.289.267.39.333l.929-.443a5.27 5.27 0 01-.511-.443l-1.444-1.444c-.591-.591-1.557-.905-2.745-.338-1.006.479-1.039 1.244-.641 1.733l1.048-.28c-.226-.271-.203-.608.239-.819.426-.203.805-.128 1.014.081.101.101.116.217-.073.343l-.815.547c-.552.369-.755.898-.23 1.423zm1.793-.424c-.328.157-.655.066-.828-.107-.227-.227-.134-.438.095-.592l.744-.504.131.131c.519.519.284.869-.142 1.072zM715.474 403.893l-4.32-4.32-1.012.484 4.319 4.319 1.013-.483z" fill="#2C3649"></path>
      <path d="M640.713 430.251c-1.465-1.465-1.136-3.375.733-4.266l10.154-4.844c1.869-.891 4.572-.427 6.036 1.038l7.955 7.955c1.465 1.464 1.137 3.374-.733 4.266l-10.154 4.843c-1.869.892-4.572.427-6.036-1.037l-7.955-7.955z" fill="#EDF0F7"></path>
      <path d="M657.465 431.562l-.775-.776-2.331 1.112-.978-.979 2.11-1.006-.734-.734-2.11 1.006-.966-.966 2.33-1.112-.776-.775-3.381 1.612 4.23 4.23 3.381-1.612z" fill="#9CA9C4"></path>
      <g filter="url(#filter4_d)">
        <path d="M1202.13 293.668c-4.39-4.394-3.41-10.124 2.2-12.798l101.54-48.433c5.61-2.675 13.72-1.282 18.11 3.112l92.81 92.808c4.39 4.393 3.41 10.123-2.2 12.798l-101.54 48.432c-5.61 2.675-13.72 1.282-18.11-3.111l-92.81-92.808z" fill="#fff"></path>
      </g>
      <path fill-rule="evenodd" clip-rule="evenodd" d="M1345.59 299.653c-13.91-13.913-39.59-18.324-57.34-9.854-17.76 8.47-20.88 26.615-6.97 40.528 13.91 13.912 39.59 18.324 57.35 9.853 17.76-8.47 20.87-26.615 6.96-40.527zm5.08-2.422c-16.11-16.109-45.84-21.217-66.4-11.409-20.56 9.807-24.17 30.817-8.06 46.926 16.1 16.11 45.83 21.218 66.39 11.41 20.57-9.808 24.18-30.818 8.07-46.927z" fill="#EDF0F7"></path>
      <path d="M1288.25 289.799c17.75-8.47 43.43-4.059 57.34 9.854 13.91 13.912 10.8 32.057-6.96 40.527-14.29 6.816-33.71 5.291-48-2.814l-.01.013c-1.12-.608-2.61-.713-3.72-.186-1.4.669-1.65 2.102-.55 3.2.13.134.28.256.44.367.21.121.42.24.63.358.03.014.06.028.1.041 7.13 3.954 15.39 6.562 23.92 7.543 8.71 1.004 17.36.268 24.98-2.125a47.923 47.923 0 005.39-2.05c.27-.121.53-.244.79-.369.28-.13.55-.262.81-.396 4.52-2.27 8.33-5.189 11.22-8.621 2.62-3.11 4.43-6.569 5.36-10.222.32-1.256.54-2.533.65-3.825.1-1.098.12-2.208.06-3.327-.31-6.277-3.03-12.573-7.86-18.193-.4-.464-.81-.923-1.23-1.375a65.51 65.51 0 00-.94-.968c-.32-.32-.65-.636-.98-.947-4.44-4.179-10.01-7.721-16.32-10.36a65.731 65.731 0 00-12.39-3.773 66.455 66.455 0 00-12.96-1.31c-8.66-.018-16.88 1.705-23.75 4.98-1.4.669-1.65 2.102-.55 3.2 1.09 1.089 3.09 1.441 4.49.794.01-.005.02-.011.04-.016z" fill="#3CF"></path>
      <path d="M1305.8 328.211c.13.167.19.339.18.515-.02.171-.13.305-.33.399-.5.242-1.12.08-1.63-.429-.51-.514-.5-.975-.01-1.207.41-.194.86-.074 1.25.202l.33-.25a1.94 1.94 0 00-.93-.381 1.607 1.607 0 00-.94.134c-.35.168-.54.405-.57.719-.04.31.11.637.46.979.34.346.73.567 1.16.657.42.086.81.045 1.17-.127.6-.284.73-.808.32-1.339l-.46.128zM1309.59 327.593l-1.42-1.42c-.51-.513-1.13-.564-1.75-.266-.57.269-.68.698-.39 1.109l.45-.096c-.2-.315-.12-.558.24-.73.38-.182.7-.133.88.045.11.137.11.224-.04.395-.11.119-.17.172-.37.336-.52.443-.59.741-.24 1.091.34.346.91.45 1.51.167.42-.203.57-.495.53-.683l.01-.005.23.231.36-.174zm-2.05-.423c.32-.288.47-.482.44-.58l.01-.005.52.525c.25.251.17.577-.31.809-.36.17-.65.143-.87-.076-.18-.187-.16-.353.21-.673zM1309.46 325.646a.51.51 0 01-.16-.443c.02-.168.13-.3.34-.399.53-.252 1.14-.091 1.65.422.52.521.52.962-.01 1.217-.2.094-.41.128-.63.099-.22-.028-.4-.104-.52-.227l-.67-.669zm2.26 2.256l-1.1-1.098.01-.005c.24.072.68.061 1.01-.096.35-.167.53-.4.55-.707.02-.307-.15-.628-.49-.966a2.261 2.261 0 00-1.14-.648c-.43-.096-.81-.066-1.14.094-.35.167-.51.434-.51.63l-.01.005-.21-.203-.39.189 3 3.003.42-.198zM1315.37 324.838l-1.42-1.42c-.51-.513-1.13-.564-1.76-.266-.56.269-.67.698-.39 1.109l.46-.096c-.2-.315-.12-.558.24-.73.38-.182.7-.134.88.045.1.137.11.224-.04.395-.12.119-.18.171-.37.335-.53.444-.6.742-.25 1.092.35.346.92.45 1.51.167.43-.204.57-.495.53-.683l.01-.005.23.231.37-.174zm-2.06-.423c.32-.288.47-.483.44-.58l.01-.005.53.525c.25.251.17.577-.32.809-.35.17-.64.143-.86-.076-.19-.187-.16-.353.2-.673zM1317.14 322.8c.13.167.19.339.18.515-.02.172-.12.305-.32.399-.51.242-1.13.08-1.64-.429-.51-.513-.49-.975 0-1.207.4-.194.85-.074 1.25.202l.32-.25a1.934 1.934 0 00-.92-.38 1.632 1.632 0 00-.95.134c-.35.167-.54.404-.57.718-.03.311.12.637.46.979.35.346.73.567 1.16.657.42.086.82.045 1.18-.127.59-.283.72-.808.32-1.339l-.47.128zM1319.46 322.889l-2.11-2.108-.42.199 2.11 2.108.42-.199zm-2.51-2.548l-.37-.37-.47.228.37.37.47-.228zM1319.83 321.805c.41.41.83.511 1.33.269l.23-.107-.32-.314-.2.097c-.26.126-.42.07-.67-.181l-1.16-1.165.66-.315-.29-.29-.67.317-.52-.517-.39.189.52.517-.39.184.29.29.38-.179 1.2 1.205zM1323.62 322.227l-1.56-3.693-.43.203.77 1.783-.01.005-2.21-1.093-.44.208 2.89 1.404.58 1.374.41-.191zM1325.21 319.058c.53.529 1.15.626 1.74.343.15-.07.26-.157.33-.263a.683.683 0 00.12-.233c.01-.045.01-.081.01-.108l.01-.005.2.203.41-.194-2.11-2.108-.41.196 1.31 1.309c.35.35.33.663-.08.857-.44.213-.77.151-1.16-.243l-1.33-1.325-.41.199 1.37 1.372zM1327.97 317.77c.52.428 1.21.57 1.92.231.34-.163.54-.346.58-.549.05-.206 0-.39-.17-.557a1.13 1.13 0 00-.61-.305c-.22-.039-.55-.016-.98.075-.4.082-.67.126-.8.125a.463.463 0 01-.34-.129c-.15-.159-.09-.389.26-.556.35-.167.71-.141 1.09.075l.28-.248a1.637 1.637 0 00-1.65-.105c-.29.138-.46.306-.51.501-.05.196 0 .37.16.525.3.306.7.351 1.51.177.39-.085.66-.12.81-.115.15.004.28.059.39.166.2.203.12.436-.31.64-.45.213-.88.148-1.3-.197l-.33.246zM1332.73 315.601c.01.069.03.11.03.133 0 .021.01.071 0 .15 0 .076-.01.136-.03.181-.06.09-.19.235-.39.332a1.18 1.18 0 01-.82.08 1.65 1.65 0 01-.73-.411l2.02-.964-.09-.096c-.35-.346-.73-.563-1.15-.655a1.759 1.759 0 00-1.17.118c-.36.172-.56.418-.59.73-.02.312.13.632.47.97.34.338.73.553 1.16.644.44.091.84.048 1.2-.126.55-.262.7-.672.59-1.075l-.5-.011zm-2.19.201a.78.78 0 01-.23-.545c0-.204.12-.37.38-.494.27-.128.53-.159.79-.088.26.071.48.188.66.364l-1.6.763zM1335.5 314.2c.13.123.17.266.13.421-.04.154-.15.279-.35.374-.53.254-1.12.091-1.64-.43-.52-.521-.53-.955 0-1.209.21-.099.43-.123.67-.076.23.046.41.137.54.268l.65.652zm1.12.502l-2.9-2.904-.42.199 1 .998-.01.005c-.36-.086-.7-.054-1.01.093-.33.16-.51.397-.53.706-.02.307.14.627.48.965.33.338.71.558 1.12.661.42.101.8.065 1.16-.104.36-.172.51-.439.52-.638l.01-.005.21.203.37-.179z" fill="#6B7B9C"></path>
      <path d="M1302 311.548l-5.84 2.785 1.11 1.105 3.95-1.887s-.89 2.905 2.03 6.297l1.7-.808c-2.7-3.199-2.07-5.758-1.88-6.425l-1.07-1.067zM1307.01 313.613c-.63-.631-1.05-1.226-1.11-1.729-.06-.41.11-.78.66-1.046.57-.271 1.11-.24 1.65-.056.67.215 1.32.697 1.95 1.328.63.631 1.05 1.226 1.11 1.735.06.41-.09.768-.66 1.04-.56.265-1.12.245-1.65.062-.66-.221-1.32-.703-1.95-1.334zm-1.63.78c.77.77 1.67 1.448 2.82 1.822 1.1.351 2.35.373 3.54-.198 1.2-.571 1.61-1.384 1.51-2.215-.1-.871-.68-1.702-1.45-2.472-.77-.77-1.69-1.443-2.83-1.816-1.09-.357-2.34-.379-3.54.192-1.19.571-1.61 1.384-1.52 2.221.1.87.7 1.695 1.47 2.466zM1312.16 308.799c-.38-.381-.29-.804.14-1.014.45-.214 1.05-.113 1.43.268.38.38.31.808-.14 1.022-.43.21-1.04.114-1.43-.276zm-1.18.565c.84.844 2.4 1.089 3.48.575 1.06-.509 1.33-1.594.46-2.457-.85-.854-2.43-1.087-3.5-.578-1.06.508-1.3 1.606-.44 2.46zm9.55.158c-.38-.38-.29-.804.14-1.013.45-.215 1.05-.113 1.43.267.38.381.31.808-.14 1.023-.43.209-1.04.113-1.43-.277zm-1.18.565c.84.845 2.4 1.089 3.48.575 1.06-.509 1.33-1.593.46-2.456-.85-.854-2.43-1.087-3.5-.579-1.06.509-1.3 1.606-.44 2.46zm-1.23 2.671l-.6-8.611-1.38.655.6 8.611 1.38-.655z" fill="#47536B"></path>
      <path fill-rule="evenodd" clip-rule="evenodd" d="M1312.97 247.656c-.37-.366-.29-.844.18-1.067.47-.223 1.14-.106 1.51.26.36.366.28.843-.18 1.066-.47.223-1.15.107-1.51-.259zM1315.93 246.243c-.37-.366-.29-.843.18-1.066.47-.223 1.14-.107 1.51.259.37.366.28.844-.18 1.067-.47.223-1.15.106-1.51-.26zM1310 249.069c-.36-.367-.28-.844.19-1.067.46-.223 1.14-.107 1.51.259.36.366.28.844-.19 1.067-.46.223-1.14.107-1.51-.259z" fill="#9CA9C4"></path>
      <path d="M1222.4 294.414c1.51-.723 1.5-1.881 1.06-2.629l-1.22.236c.25.463.27 1.148-.65 1.588-.87.414-2.17.304-3.07-.597-.96-.961-.56-1.821.25-2.206.93-.447 1.8-.199 2.33.145l.75-.717a4.006 4.006 0 00-3.88-.221c-1.44.69-1.89 2.17-.54 3.518 1.35 1.349 3.46 1.603 4.97.883zM1224.47 292.112c.46.46 1.37.651 2.17.269.56-.265.71-.638.67-.962.11.114.29.267.39.334l.93-.443a4.327 4.327 0 01-.51-.444l-1.45-1.443c-.59-.591-1.55-.905-2.74-.339-1.01.48-1.04 1.245-.64 1.733l1.05-.279c-.23-.271-.21-.608.23-.819.43-.203.81-.129 1.02.08.1.102.11.218-.08.343l-.81.547c-.55.37-.75.898-.23 1.423zm1.79-.423c-.32.156-.65.066-.82-.107-.23-.227-.14-.439.09-.592l.74-.505.14.132c.51.519.28.869-.15 1.072zM1231.75 291.495l-1.42-1.42c.38.11.92.089 1.44-.158 1.06-.504 1.11-1.499.22-2.388-.87-.871-2.16-1.225-3.26-.702-.56.268-.78.665-.72.972l-.36-.358-.98.468 4.07 4.069 1.01-.483zm-.75-3.484c.52.525.42 1.026-.1 1.273-.52.247-1.25.136-1.77-.383s-.4-1.023.12-1.27c.51-.247 1.23-.139 1.75.38zM1233.24 287.93c.46.459 1.37.651 2.17.269.55-.265.71-.639.67-.962.11.113.29.267.39.334l.93-.443a4.327 4.327 0 01-.51-.444l-1.45-1.444c-.59-.59-1.56-.905-2.74-.338-1.01.479-1.04 1.244-.64 1.733l1.04-.28c-.22-.271-.2-.608.24-.818.43-.204.81-.129 1.02.08.1.101.11.218-.08.343l-.81.547c-.55.37-.76.898-.23 1.423zm1.79-.423c-.33.156-.65.065-.83-.108-.22-.226-.13-.438.1-.591l.74-.505.13.131c.52.519.29.869-.14 1.073zM1237.75 283.576c.5-.24.99-.102 1.32.099l.67-.671a2.889 2.889 0 00-2.75-.151c-1.09.519-1.29 1.576-.38 2.483.9.901 2.42 1.143 3.53.617.99-.476 1.08-1.257.76-1.826l-1.13.192c.15.267.16.659-.36.906s-1.26.159-1.79-.372-.39-1.03.13-1.277zM1243.56 284.189l-2.94-2.935-1.01.483 2.93 2.935 1.02-.483zm-5.03-3.354c.26.262.76.348 1.1.185.35-.167.41-.519.15-.781-.28-.275-.77-.365-1.12-.197-.35.163-.41.518-.13.793zM1242.08 279.264l-.92.436.42.412c.26.262.28.552-.12.741l-.19.091.71.704.67-.324 1.37 1.367c.57.567 1.36.689 2.09.34.3-.142.44-.271.5-.344l-.65-.656c-.04.037-.17.114-.29.172-.29.138-.53.128-.78-.129l-1.23-1.229.75-.36-.7-.704-.76.36-.87-.877zM1250.04 282.807l-1.74-5.215-1.08.516.79 2.158-2.71-1.243-1.14.541 4.16 1.807.64 1.948 1.08-.512z" fill="#2C3649"></path>
    </g>
    <path transform="rotate(90 2880 740)" fill="url(#paint2_linear)" d="M2880 740h160v2880h-160z"></path>
    <path transform="rotate(-90 2720 900)" fill="url(#paint3_linear)" d="M2720 900h900v160h-900z"></path>
    <path transform="rotate(90 160 0)" fill="url(#paint4_linear)" d="M160 0h900v160H160z"></path>
  </g>
  <defs>
    <linearGradient id="paint0_linear" x1="1440" y1="0" x2="1440" y2="900" gradientUnits="userSpaceOnUse">
      <stop stop-color="#F7F9FC"></stop>
      <stop offset="1" stop-color="#fff"></stop>
    </linearGradient>
    <linearGradient id="paint1_linear" x1="1808" y1="450" x2="1223.06" y2="450" gradientUnits="userSpaceOnUse">
      <stop stop-color="#F7F9FC" stop-opacity="0"></stop>
      <stop offset="1" stop-color="#F7F9FC"></stop>
    </linearGradient>
    <linearGradient id="paint2_linear" x1="3040" y1="2180" x2="2880" y2="2180" gradientUnits="userSpaceOnUse">
      <stop stop-color="#fff"></stop>
      <stop offset="1" stop-color="#fff" stop-opacity="0"></stop>
    </linearGradient>
    <linearGradient id="paint3_linear" x1="3170" y1="1060" x2="3170" y2="900" gradientUnits="userSpaceOnUse">
      <stop stop-color="#fff"></stop>
      <stop offset="1" stop-color="#fff" stop-opacity="0"></stop>
    </linearGradient>
    <linearGradient id="paint4_linear" x1="610" y1="160" x2="610.001" y2="0" gradientUnits="userSpaceOnUse">
      <stop stop-color="#fff"></stop>
      <stop offset="1" stop-color="#fff" stop-opacity="0"></stop>
    </linearGradient>
    <filter id="filter0_d" x="751.882" y="215.393" width="371.169" height="222.376" filterUnits="userSpaceOnUse" color-interpolation-filters="sRGB">
      <feFlood flood-opacity="0" result="BackgroundImageFix"></feFlood>
      <feColorMatrix in="SourceAlpha" values="0 0 0 0 0 0 0 0 0 0 0 0 0 0 0 0 0 0 127 0"></feColorMatrix>
      <feOffset dy="32"></feOffset>
      <feGaussianBlur stdDeviation="16"></feGaussianBlur>
      <feColorMatrix values="0 0 0 0 0.419608 0 0 0 0 0.482353 0 0 0 0 0.611765 0 0 0 0.1 0"></feColorMatrix>
      <feBlend in2="BackgroundImageFix" result="effect1_dropShadow"></feBlend>
      <feBlend in="SourceGraphic" in2="effect1_dropShadow" result="shape"></feBlend>
    </filter>
    <filter id="filter1_d" x="889.182" y="290.547" width="50.874" height="37.862" filterUnits="userSpaceOnUse" color-interpolation-filters="sRGB">
      <feFlood flood-opacity="0" result="BackgroundImageFix"></feFlood>
      <feColorMatrix in="SourceAlpha" values="0 0 0 0 0 0 0 0 0 0 0 0 0 0 0 0 0 0 127 0"></feColorMatrix>
      <feOffset dy="4"></feOffset>
      <feGaussianBlur stdDeviation="4"></feGaussianBlur>
      <feColorMatrix values="0 0 0 0 0.101961 0 0 0 0 0.12549 0 0 0 0 0.172549 0 0 0 0.08 0"></feColorMatrix>
      <feBlend in2="BackgroundImageFix" result="effect1_dropShadow"></feBlend>
      <feBlend in="SourceGraphic" in2="effect1_dropShadow" result="shape"></feBlend>
    </filter>
    <filter id="filter2_d" x="682.291" y="223.216" width="869.736" height="615.612" filterUnits="userSpaceOnUse" color-interpolation-filters="sRGB">
      <feFlood flood-opacity="0" result="BackgroundImageFix"></feFlood>
      <feColorMatrix in="SourceAlpha" values="0 0 0 0 0 0 0 0 0 0 0 0 0 0 0 0 0 0 127 0"></feColorMatrix>
      <feOffset dy="48"></feOffset>
      <feGaussianBlur stdDeviation="24"></feGaussianBlur>
      <feColorMatrix values="0 0 0 0 0.419608 0 0 0 0 0.482353 0 0 0 0 0.611765 0 0 0 0.1 0"></feColorMatrix>
      <feBlend in2="BackgroundImageFix" result="effect1_dropShadow"></feBlend>
      <feBlend in="SourceGraphic" in2="effect1_dropShadow" result="shape"></feBlend>
    </filter>
    <filter id="filter3_d" x="580.18" y="370.37" width="365.203" height="304.925" filterUnits="userSpaceOnUse" color-interpolation-filters="sRGB">
      <feFlood flood-opacity="0" result="BackgroundImageFix"></feFlood>
      <feColorMatrix in="SourceAlpha" values="0 0 0 0 0 0 0 0 0 0 0 0 0 0 0 0 0 0 127 0"></feColorMatrix>
      <feOffset dy="48"></feOffset>
      <feGaussianBlur stdDeviation="24"></feGaussianBlur>
      <feColorMatrix values="0 0 0 0 0.419608 0 0 0 0 0.482353 0 0 0 0 0.611765 0 0 0 0.1 0"></feColorMatrix>
      <feBlend in2="BackgroundImageFix" result="effect1_dropShadow"></feBlend>
      <feBlend in="SourceGraphic" in2="effect1_dropShadow" result="shape"></feBlend>
    </filter>
    <filter id="filter4_d" x="1151.39" y="231.077" width="316.148" height="255.87" filterUnits="userSpaceOnUse" color-interpolation-filters="sRGB">
      <feFlood flood-opacity="0" result="BackgroundImageFix"></feFlood>
      <feColorMatrix in="SourceAlpha" values="0 0 0 0 0 0 0 0 0 0 0 0 0 0 0 0 0 0 127 0"></feColorMatrix>
      <feOffset dy="48"></feOffset>
      <feGaussianBlur stdDeviation="24"></feGaussianBlur>
      <feColorMatrix values="0 0 0 0 0.419608 0 0 0 0 0.482353 0 0 0 0 0.611765 0 0 0 0.15 0"></feColorMatrix>
      <feBlend in2="BackgroundImageFix" result="effect1_dropShadow"></feBlend>
      <feBlend in="SourceGraphic" in2="effect1_dropShadow" result="shape"></feBlend>
    </filter>
    <clipPath id="clip0">
      <path fill="#fff" d="M0 0h2880v900H0z"></path>
    </clipPath>
  </defs>
</svg>
