<?xml version="1.0" encoding="UTF-8"?>
<svg xmlns="http://www.w3.org/2000/svg" fill="none" height="40" viewBox="0 0 40 40" width="40">
  <g stroke-linecap="round" stroke-linejoin="round" stroke-width="2.5">
    <g stroke="#9bf">
      <path clip-rule="evenodd" d="m10.1005 22.9422-6.03667-2.0134c-.41104-.1365-.72196-.4763-.82148-.8978-.09952-.4216.02657-.8646.33315-1.1705l.38666-.3867c2.67813-2.6786 6.63984-3.6142 10.23334-2.4166l2.0917.6966z" fill-rule="evenodd"></path>
      <path clip-rule="evenodd" d="m17.1672 30.0118 2.0134 6.0367c.1365.411.4763.722.8978.8215.4216.0995.8646-.0266 1.1705-.3332l.3883-.3866c2.6781-2.6785 3.613-6.6402 2.415-10.2334l-.6933-2.0833z" fill-rule="evenodd"></path>
      <path d="m12.9652 30.897c.0013.9948-.3939 1.9492-1.0983 2.6517-1.4633 1.4633-8.83333 3.535-8.83333 3.535s2.07167-7.375 3.535-8.8333c.64282-.6444 1.4984-1.0325 2.40667-1.0917"></path>
    </g>
    <path clip-rule="evenodd" d="m37.5004 2.61182-3.5967.4c-2.821.31355-5.4513 1.57787-7.4583 3.585l-16.345 16.34498 7.0667 7.07 16.3483-16.345c2.0078-2.0065 3.2722-4.63706 3.585-7.45832z" fill-rule="evenodd" stroke="#37f"></path>
  </g>
</svg>
