<svg width="35" height="34" viewBox="0 0 35 34" fill="none" xmlns="http://www.w3.org/2000/svg">
<path d="M17.4375 0C8.15625 0 0.5625 7.59075 0.5625 16.8683C0.5625 26.1459 8.15625 33.7367 17.4375 33.7367C26.7188 33.7367 34.3125 26.1459 34.3125 16.8683C34.3125 7.59075 26.7188 0 17.4375 0ZM17.4375 5.0605C20.3063 5.0605 22.5 7.25338 22.5 10.121C22.5 12.9886 20.3063 15.1815 17.4375 15.1815C14.5688 15.1815 12.375 12.9886 12.375 10.121C12.375 7.25338 14.5688 5.0605 17.4375 5.0605ZM17.4375 29.0135C13.2188 29.0135 9.50625 26.8207 7.3125 23.6157C7.3125 20.242 14.0625 18.3865 17.4375 18.3865C20.8125 18.3865 27.5625 20.242 27.5625 23.6157C25.3688 26.8206 21.6563 29.0135 17.4375 29.0135Z" fill="white"/>
</svg>
