<?xml version="1.0" encoding="UTF-8"?>
<svg xmlns="http://www.w3.org/2000/svg" width="24" height="24" viewBox="0 0 24 24" fill="none">
  <path fill-rule="evenodd" clip-rule="evenodd" d="M6.06024 13.765L2.43824 12.557C2.19161 12.4751 2.00506 12.2712 1.94535 12.0183C1.88564 11.7653 1.96129 11.4995 2.14524 11.316L2.37724 11.084C3.98411 9.47679 6.36113 8.91545 8.51724 9.63398L9.77224 10.052L6.06024 13.765Z" stroke="#6699FF" stroke-width="1.5" stroke-linecap="round" stroke-linejoin="round"></path>
  <path fill-rule="evenodd" clip-rule="evenodd" d="M10.3006 18.007L11.5086 21.629C11.5905 21.8757 11.7944 22.0622 12.0473 22.1219C12.3002 22.1816 12.566 22.106 12.7496 21.922L12.9826 21.69C14.5894 20.083 15.1504 17.706 14.4316 15.55L14.0156 14.3L10.3006 18.007Z" stroke="#6699FF" stroke-width="1.5" stroke-linecap="round" stroke-linejoin="round"></path>
  <path d="M7.77925 18.538C7.78003 19.1349 7.54286 19.7075 7.12025 20.129C6.24225 21.007 1.82025 22.25 1.82025 22.25C1.82025 22.25 3.06325 17.825 3.94125 16.95C4.32695 16.5634 4.84029 16.3306 5.38525 16.295" stroke="#6699FF" stroke-width="1.5" stroke-linecap="round" stroke-linejoin="round"></path>
  <path fill-rule="evenodd" clip-rule="evenodd" d="M22.5 1.56702L20.342 1.80702C18.6494 1.99515 17.0712 2.75374 15.867 3.95802L6.06 13.765L10.3 18.007L20.109 8.20002C21.3137 6.99611 22.0723 5.41777 22.26 3.72502L22.5 1.56702Z" stroke="#0055FF" stroke-width="1.5" stroke-linecap="round" stroke-linejoin="round"></path>
</svg>
