<svg fill="none" height="36" viewBox="0 0 90 36" width="90" xmlns="http://www.w3.org/2000/svg" xmlns:xlink="http://www.w3.org/1999/xlink"><clipPath id="a"><path d="m.299988 0h89.1v36h-89.1z"/></clipPath><g clip-path="url(#a)"><path d="m46.2 28.8002h-8.1v-7.02c0-.945-.405-1.755-.945-2.43l-3.105-3.105c-.675-.54-1.485-.945-2.43-.945h-1.62v13.5h-8.1v-21.6h11.745c1.755 0 3.51.675 4.725 2.025l5.805 5.805c1.35 1.215 2.025 2.97 2.025 4.725zm35.1-21.6v7.02c0 .945-.405 1.755-.945 2.43l-3.105 3.105c-.675.675-1.485.945-2.43.945h-3.375c1.08-1.215 1.755-2.835 1.755-4.455v-9.045h-8.1v7.02c0 .945-.405 1.755-.945 2.43l-3.105 3.105c-.675.675-1.485.945-2.43.945h-1.62v-13.5h-8.1v21.6h11.745c1.755 0 3.51-.675 4.725-2.025l3.78-3.78v5.805h7.695c1.755 0 3.51-.675 4.725-2.025l5.805-5.805c1.35-1.215 2.025-2.97 2.025-4.725v-9.045zm-62.1 0h-18.900012v8.1h5.400002v13.5h8.10001v-13.5h5.4" fill="#d4dae8"/></g></svg>