<svg fill="none" height="36" viewBox="0 0 126 36" width="126" xmlns="http://www.w3.org/2000/svg" xmlns:xlink="http://www.w3.org/1999/xlink"><clipPath id="a"><path d="m0 0h126v36h-126z"/></clipPath><g clip-path="url(#a)"><path d="m43.5675 23.7994v2.8997h-12.0131v-2.8997h4.315v-11.5989h-4.315v-2.89978h12.0131v2.89978h-4.3151v11.5989zm-20.4016-14.49868h-3.314l-2.3819 13.77368h-.0345l-2.7617-12.7726c-.1726-.86299-.4488-1.07012-1.2772-1.07012h-1.8296c-.794 0-1.1047.20713-1.2773 1.07012l-2.76164 12.7726h-.06904l-2.3474-13.77368h-3.55561l3.41753 16.53538c.13808.7249.41425.8975 1.20822.8975h2.3474c.79397 0 1.07013-.1726 1.20822-.9321l2.58902-11.9786h.0691l2.589 11.9786c.1726.7595.4142.9321 1.2082.9321h2.3129c.8285 0 1.0701-.1726 1.2082-.8975zm1.795 21.29918h-25.199959v-25.2h25.199959zm41.5628-8.354c.0126 1.4894.1164 2.9765.3107 4.4532h3.452c-.1036-.9321-.2071-2.4855-.2762-4.6948-.069-2.2093-.8975-2.9688-2.6926-3.314v-.069c2.0022-.3107 2.8652-1.2773 2.8652-4.3496 0-2.5545-.4142-3.4866-1.1046-4.177-.6904-.69041-1.4154-.75945-2.7616-.75945h-10.5979v17.36385h3.5902v-6.766h4.9709c1.0357 0 1.4499.069 1.7261.3452.2761.2761.4833.5868.5178 1.9676zm-7.2148-5.1435v-4.8329h5.6959c.7939 0 1.0356.069 1.1737.2071.138.1381.4833.6214.4833 2.1403s-.2417 2.0022-.5179 2.2438c-.2761.2417-.3797.2417-1.1737.2417zm16.052 13.4975h-25.2v-25.2h25.2zm30.7581-21.29918v17.39838h8.561c2.451 0 3.797-.3452 4.867-1.2773 1.07-.932 1.83-3.1068 1.83-7.3874 0-4.2805-.587-6.3172-1.83-7.3874-1.243-1.07011-2.382-1.27723-4.867-1.27723h-8.561zm11.702 8.69918c0 3.7282-.31 4.6948-.966 5.2126s-1.14.5178-2.417.5178h-4.729v-11.4608h4.729c1.312 0 1.864.069 2.417.5178.552.4488.966 1.4844.966 5.2471zm7.94 12.6h-25.2v-25.2h25.2zm-45.7743-18.3994v-2.89978h14.8093v5.59238h-3.1069v-2.6926h-6.0065v4.1424h4.7638v2.7962h-4.7638v4.6603h6.1446v-3.0379h3.1414v5.9376h-14.9819v-2.8997h2.3474v-11.5989z" fill="#c9d1e2"/></g></svg>