<svg fill="none" height="32" viewBox="0 0 151 32" width="151" xmlns="http://www.w3.org/2000/svg" xmlns:xlink="http://www.w3.org/1999/xlink"><clipPath id="a"><path d="m0 0h150.588v32h-150.588z"/></clipPath><g clip-path="url(#a)"><path d="m0 1.88232h30.1176v30.11768h-30.1176z" fill="#c9d1e2"/><path d="m82.8234 8.09412c.4706-.09412.9412-.28235 1.5059-.28235.2824 0 .2824.37647.2824.5647l.1882 3.01173v2.9177c.5647-.3765 1.1294-.9412 1.6941-1.1294.5132-.2497 1.0764-.3794 1.6471-.3794.5706 0 1.1339.1297 1.647.3794.5441.2984 1.0238.7015 1.4114 1.1861.3877.4846.6757 1.0411.8475 1.6374.2823 1.0353.3764 2.1647.3764 3.2941-.0456 1.345-.4696 2.6499-1.2235 3.7647-.4706.5647-1.1294 1.1294-1.8824 1.4118-1.1294.3765-2.5411.1882-3.5764-.4706l-.9412-.7529-.2824 1.2235h-1.6941c.1883-.9412.1883-1.8824.1883-2.8235v-9.7883c0-1.2235 0-2.54115-.1883-3.76468zm13.1765.18824h1.0353c.3765.28235.5647.5647.7529.94117.1883.75294-.3764 1.59997-1.2235 1.69417-.5647 0-1.2235-.2824-1.4118-.94123-.1882-.65882.1883-1.41176.8471-1.69411zm-53.3647 1.41176c.847-.56471 1.8823-1.03529 2.8235-1.03529 1.1294 0 2.2588 0 3.2.47058.3765.18824.8471.37647 1.1294.65883-.1882.47056-.5647.84706-.847 1.22356l-1.2236-.6589c-1.0621-.39682-2.2319-.39682-3.2941 0-.9412.2824-1.6.9412-2.0706 1.8824-.6845 1.1319-1.0125 2.4438-.9412 3.7647v2.4471c.1883 1.2235.6589 2.447 1.4118 3.2941.753.847 1.7882 1.3176 2.8235 1.4117l1.6942-.0941 1.8823-.7529.9412 1.1294-1.4118.7529c-1.3176.4706-2.8235.4706-4.1411.3765-.9412-.1882-1.8824-.7529-2.7295-1.4118-.9411-.7529-1.5058-1.7882-1.8823-2.8235-.2646-.7912-.4229-1.6141-.4706-2.447v-1.7883c0-1.1294.1882-2.1647.5647-3.2.5117-1.3201 1.3942-2.4641 2.5412-3.2941z" fill="#b6c1d8"/><path d="m8.9408 9.41187.37647-.09412h1.88233c.1883 0 .1883.09412.2824.18824l2.9176 6.11761.6588 1.2236.5648-1.0353 3.2941-6.58827c.6588.09412 1.4117 0 2.1647.18824l-.5647 1.12943-4.5177 8.2823v6.2118h-2.1647v-5.7412-.5647l-4.04704-7.5294-.94118-1.88235z" fill="#fff"/><path d="m125.365 10.2589 1.788-.47057-.283 3.29407 2.824.0942-.471 1.2235h-2.353v8.2823c.095.3765.471.5648.753.6589.588.1436 1.201.1436 1.789 0l.188 1.0353c-.471.2823-1.13.3764-1.694.3764-.753 0-1.694-.0941-2.259-.6588-.471-.4706-.377-1.2235-.471-1.7882v-3.8588-4.0471h-1.506v-1.2235h1.412l.283-2.8236zm-69.6475 2.6353h1.2235l1.4118.0941c1.0182.3587 1.8822 1.0565 2.447 1.9765.4706.9412.8471 1.7882.9412 2.7294 0 1.2235 0 2.5412-.3765 3.7647-.3691 1.1808-1.1884 2.1688-2.2805 2.7501-1.0921.5812-2.3691.7091-3.5548.3558-.9411-.2824-1.8823-.9412-2.5411-1.8824-.6589-.9411-.9412-2.1647-.9412-3.2941s0-2.2588.3764-3.2941c.2824-1.0353.9412-1.9765 1.8824-2.6353zm9.0353.3765 1.6-.4706c.1882.5647.3764 1.0353.3764 1.6l.9412-.6588c.9412-.5647 1.8824-.9412 2.8235-.9412l.5647.1882.9412.6589.6588.9411c.4706-.1882.8471-.5647 1.2236-.847.6588-.4706 1.4117-.8471 2.2588-.9412.7529 0 1.6.1882 2.1647.7529l.6588.8471.1883.9412.0941 5.4588v3.6706h-1.7883v-5.4588-3.4824c-.0377-.1943-.1158-.3785-.2293-.5406-.1135-.1622-.2598-.2986-.4295-.4006-.2823-.1882-.7529-.1882-1.1294-.1882-.7529 0-1.3176.5647-1.8823.9412l-.753.6588v8.4706h-1.8823v-6.4-1.5059c0-.5647 0-1.1294-.2824-1.6-.3765-.5647-1.0353-.6588-1.6941-.4706-.8885.27-1.6966.7549-2.353 1.4118l-.0941.2823v8.2824h-1.6v-8.4706c0-.6588 0-1.3177-.1882-1.8824l-.1882-.9411zm30.7764-.0941 1.6942-.3765.0941 4.8v6.8706h-1.7883v-9.7883zm17.7878.9411c1.192-.7395 2.553-1.1608 3.953-1.2235h1.412c.634.1062 1.212.4251 1.64.9042.427.4791.679 1.0897.713 1.7311v5.6471l.094 1.6941c.094.3765.471.5647.753.7529l-.847 1.1294c-.188.0942-.47 0-.565-.1882-.47-.2824-.753-.7529-.941-1.2235-.47.1882-.753.4706-1.129.7529-.659.3765-1.412.6588-2.259.6588-.659 0-1.412-.0941-2.071-.4706-.941-.4705-1.6-1.6941-1.505-2.8235 0-1.1294.564-2.1647 1.411-2.8235 1.092-.7177 2.365-1.1095 3.671-1.1294h1.788l-.094-1.8824c-.094-.3764-.376-.9412-.753-1.1294-.56-.2559-1.188-.322-1.788-.1882-1.091.1498-2.126.5705-3.012 1.2235l-.659-1.0353c-.094-.1882 0-.3765.188-.3765zm22.212-1.2235h2.071c.941.2824 1.882.9412 2.541 1.7882.471.6589.847 1.5059.941 2.353.188.7529.188 1.6.188 2.3529 0 1.3177-.47 2.6353-1.223 3.7647-.659.8471-1.694 1.3177-2.73 1.5059-1.223.1883-2.635 0-3.67-.7529-.941-.6588-1.506-1.6941-1.882-2.8236l-.189-1.6c0-.9411 0-1.8823.189-2.8235.245-1.0774.801-2.0592 1.6-2.8235.564-.4706 1.317-.8471 2.164-.9412zm8.847.3765 1.6-.4706c.283.5647.283 1.2235.377 1.8823l.753-.7529c.753-.7529 1.882-1.2235 3.011-1.0353v.0941l-.658 1.6941h-.189c-.47 0-.941 0-1.411.2824-.471.2824-.847.5647-1.13.9412-.282.3764-.282.9412-.282 1.4117v7.153h-1.882v-5.8353-3.953zm-43.482 0c.471-.1883 1.035-.3765 1.6-.3765.188.5647.376 1.1294.376 1.6l1.412-.9412c.941-.5647 2.071-.9411 3.2-.5647.565.2824 1.224.6589 1.6 1.2236.283.3764.377.9411.377 1.4117l.094 5.2706v3.5765h-1.788v-5.8353l-.095-3.2941c-.188-.4706-.658-.9412-1.223-.9412l-1.224.0941c-.941.3765-1.694.9412-2.353 1.4118v8.5647h-1.6v-4.8l-.094-4.9883z" fill="#b6c1d8"/><path d="m56.0003 14.3058c.7529-.1882 1.6-.0941 2.2588.2823.4706.2824.8471.6589.9412 1.1295.3764.847.4706 1.6941.4706 2.5411v2.5412c-.0942.5647-.3765 1.2235-.8471 1.6941-.2881.2699-.6297.4763-1.0025.606-.3729.1297-.7688.1798-1.1622.147-.8471 0-1.6941-.3765-2.0706-1.1294-.3765-.753-.5647-1.5059-.6588-2.2589v-1.9764c0-.9412.0941-1.8824.5647-2.5412.3765-.5647.9412-.9412 1.5059-1.0353zm79.6237 0h1.788c.565.3765.941.7529 1.318 1.2235.376.6588.47 1.5059.47 2.2588v1.9765c0 .6588 0 1.2235-.282 1.8824-.188.4706-.471.9411-.941 1.1294-.659.3764-1.506.4706-2.259.2823-.565 0-1.035-.3764-1.412-.7529-.376-.4706-.565-.9412-.659-1.5059l-.188-2.4471c0-.9411 0-1.7882.377-2.6352.282-.753.941-1.4118 1.788-1.5059zm-48.5649.1882h1.4118c.6588.1883 1.1294.5647 1.4117 1.1294.3765.6589.5647 1.4118.5647 2.1647v1.8824c-.0941.7529-.2823 1.6-.6588 2.3529-.2823.4706-.8471.9412-1.4118 1.0353-1.1294.2824-2.447-.0941-3.2941-.9411-.1882-.0942-.2823-.1883-.2823-.3765v-5.1765-.6588c.5647-.6588 1.3176-1.3177 2.2588-1.4118zm29.1769 4.3294 1.788-.1882h1.317l-.094 2.8235c0 .4706-.376.9412-.753 1.2236-.47.3764-.941.6588-1.6.7529-.47 0-.941 0-1.411-.1882-.471-.1883-.753-.5647-.942-.9412v-1.2235c0-.3765 0-.753.189-1.0353.376-.6589.941-.9412 1.6-1.2236z" fill="#fff"/></g></svg>